<svg width="53" height="60" viewBox="0 0 53 60" fill="none" xmlns="http://www.w3.org/2000/svg">
<path fill-rule="evenodd" clip-rule="evenodd" d="M11.3768 12.5466C10.8232 12.5466 10.375 12.0987 10.375 11.5467C10.375 10.9947 10.8232 10.5469 11.3768 10.5469H41.6241C42.1782 10.5469 42.6264 10.9943 42.6264 11.5467C42.6264 12.0992 42.1782 12.5466 41.6241 12.5466H11.3768ZM11.3768 21.4521C10.8232 21.4521 10.375 21.0052 10.375 20.4523C10.375 19.9003 10.8232 19.4525 11.3768 19.4525H41.6241C42.1782 19.4525 42.6264 19.9003 42.6264 20.4523C42.6264 21.0057 42.1782 21.4521 41.6241 21.4521H11.3768ZM11.3768 30.359C10.8232 30.359 10.375 29.9112 10.375 29.3592C10.375 28.8072 10.8232 28.3594 11.3768 28.3594H41.6241C42.1782 28.3594 42.6264 28.8072 42.6264 29.3592C42.6264 29.9112 42.1782 30.359 41.6241 30.359H11.3768ZM11.3768 48.1702C10.8232 48.1702 10.375 47.7224 10.375 47.1704C10.375 46.6184 10.8232 46.1705 11.3768 46.1705H20.4688C21.0224 46.1705 21.4715 46.6184 21.4715 47.1704C21.4715 47.7224 21.0224 48.1702 20.4688 48.1702H11.3768ZM11.3768 39.2646C10.8232 39.2646 10.375 38.8154 10.375 38.2634C10.375 37.7114 10.8232 37.2645 11.3768 37.2645H20.4688C21.0224 37.2645 21.4715 37.7114 21.4715 38.2634C21.4715 38.8154 21.0224 39.2646 20.4688 39.2646H11.3768ZM47.9857 40.1794V8.84999C47.017 8.65188 46.1495 8.17242 45.4769 7.50138C44.8034 6.8294 44.3207 5.96539 44.1243 4.99941H8.87776C8.67861 5.96624 8.19775 6.82934 7.52521 7.50138C6.85034 8.1729 5.98425 8.6519 5.01593 8.84999V49.8653C5.98418 50.0634 6.85073 50.5429 7.52521 51.2139C8.1987 51.8859 8.6791 52.7495 8.87776 53.7154H31.1528V52.9667C31.1099 52.8807 31.0693 52.7933 31.0353 52.7035L30.3693 50.9941L28.5661 50.6374C27.7238 50.4709 27.0181 49.9668 26.589 49.226C26.159 48.4838 26.0741 47.6235 26.3516 46.812L26.9434 45.076L25.7914 43.646C25.2532 42.9791 25.0377 42.1393 25.187 41.2984C25.3376 40.4544 25.8269 39.741 26.561 39.297L28.1352 38.3464L28.1734 36.5133C28.1916 35.6581 28.568 34.8754 29.2247 34.3257C29.8819 33.7779 30.7191 33.543 31.5674 33.6742L33.3855 33.9541L34.5977 32.5739C35.1625 31.9307 35.9544 31.5726 36.8131 31.5726C37.6703 31.5726 38.4627 31.9307 39.0285 32.5739L40.2402 33.9541L42.0587 33.6742C42.9056 33.543 43.7428 33.777 44.3999 34.3257C45.0571 34.8749 45.433 35.6576 45.4503 36.5133L45.4899 38.3464L47.0631 39.297C47.4363 39.5253 47.7506 39.8257 47.9861 40.1791L47.9857 40.1794ZM47.9857 49.8657V43.4323C47.9363 43.5063 47.885 43.5783 47.8285 43.6472L46.6756 45.0772L47.2674 46.8132C47.5445 47.6233 47.4591 48.485 47.031 49.2272C46.6009 49.968 45.8957 50.4721 45.053 50.6385L43.249 50.9952L42.5839 52.7047C42.5489 52.7949 42.5088 52.8819 42.4664 52.9679V53.7166H44.124C44.3213 52.7507 44.804 51.8871 45.4766 51.2151C46.1496 50.5431 47.017 50.0637 47.9858 49.8655L47.9857 49.8657ZM39.7509 40.4095C38.9981 39.658 37.9575 39.1948 36.8097 39.1948C35.6605 39.1948 34.6199 39.658 33.8686 40.4095C33.1158 41.1596 32.6499 42.1962 32.6499 43.3416C32.6499 44.4861 33.1158 45.5236 33.8686 46.2751C34.6199 47.0252 35.661 47.4884 36.8097 47.4884C37.9585 47.4884 38.9981 47.0252 39.7509 46.2751C40.5036 45.5236 40.9686 44.4857 40.9686 43.3416C40.9691 42.1962 40.5036 41.1596 39.7509 40.4095ZM36.8092 37.1946C38.5116 37.1946 40.0526 37.882 41.1687 38.9939C42.2839 40.1072 42.9746 41.6442 42.9746 43.3416C42.9746 45.0385 42.2839 46.5764 41.1687 47.6884C40.0526 48.8017 38.5116 49.4904 36.8092 49.4904C35.1064 49.4904 33.5635 48.8017 32.4488 47.6884C31.3322 46.5765 30.6429 45.0381 30.6429 43.3416C30.6429 41.6437 31.3322 40.1068 32.4488 38.9939C33.5639 37.882 35.1064 37.1946 36.8092 37.1946ZM37.5149 33.8924L39.1138 35.7126C39.3302 35.9586 39.6362 36.0707 39.9636 36.02L42.3618 35.6512C42.6389 35.6084 42.8921 35.6786 43.1071 35.8586C43.3212 36.0386 43.4355 36.2767 43.442 36.5552L43.4924 38.9734C43.5003 39.304 43.6621 39.584 43.9457 39.7547L46.0203 41.0074C46.2591 41.1535 46.4093 41.3706 46.4582 41.6455C46.5063 41.9203 46.441 42.177 46.2642 42.3942L44.7451 44.2795C44.538 44.5362 44.4816 44.8547 44.5889 45.1677L45.3696 47.4571C45.461 47.7226 45.4349 47.9844 45.2941 48.2262C45.1551 48.4671 44.9391 48.6224 44.6649 48.6755L42.284 49.1456C41.9612 49.2107 41.7121 49.4191 41.5918 49.7264L40.7145 51.9806C40.6138 52.2414 40.4235 52.4261 40.1609 52.5228C39.8974 52.6181 39.6338 52.5967 39.3885 52.4614L37.2621 51.2988C36.9711 51.1388 36.6479 51.1388 36.3573 51.2988L34.2309 52.4614C33.9847 52.5967 33.7216 52.6172 33.4581 52.5228C33.1946 52.4261 33.0062 52.2414 32.9045 51.9806L32.0272 49.7264C31.9069 49.4191 31.6587 49.2112 31.3336 49.1456L28.9531 48.6755C28.6798 48.622 28.4643 48.4667 28.3244 48.2262C28.1835 47.9844 28.1583 47.7221 28.2488 47.458L29.0296 45.1672C29.1359 44.8547 29.079 44.5357 28.8738 44.279L27.3534 42.3937C27.1775 42.1765 27.1127 41.9198 27.1617 41.645C27.2097 41.3701 27.3589 41.153 27.5992 41.0069L29.6737 39.7542C29.9573 39.5835 30.1191 39.3035 30.1266 38.9729L30.1774 36.5547C30.1826 36.2762 30.2978 36.0381 30.5118 35.8581C30.7273 35.6781 30.982 35.6079 31.2586 35.6507L33.6554 36.0195C33.9823 36.0702 34.2864 35.9581 34.5052 35.7121L36.1031 33.8919C36.2868 33.6813 36.5298 33.5724 36.8097 33.5724C37.0886 33.5734 37.3302 33.6813 37.5149 33.8924ZM40.4607 54.512V60L36.8093 56.9061L33.1573 60V54.512C33.8485 54.6631 34.564 54.5627 35.1964 54.2153L36.8093 53.3313L38.4207 54.2153C39.054 54.5627 39.7686 54.6627 40.4607 54.512ZM53 58.7146V0H0V58.7146H31.1512V55.716H7.97465C7.4215 55.716 6.97236 55.2681 6.97236 54.7161C6.97236 53.9009 6.64075 53.1629 6.10439 52.6286C5.56942 52.0947 4.8279 51.7641 4.01168 51.7641C3.45667 51.7641 3.00799 51.3148 3.00799 50.7642V7.95241C3.00799 7.4004 3.45667 6.95257 4.01168 6.95257C4.82788 6.95257 5.56948 6.62193 6.10439 6.08806C6.64075 5.55326 6.97236 4.81529 6.97236 4.00051C6.97236 3.44804 7.4215 3.00067 7.97465 3.00067H45.0241C45.5778 3.00067 46.0269 3.44804 46.0269 4.00051C46.0269 4.81573 46.3585 5.55376 46.894 6.08806C47.4294 6.62193 48.1696 6.95257 48.9876 6.95257C49.5412 6.95257 49.9904 7.4004 49.9904 7.95241V50.7642C49.9904 51.3148 49.5412 51.7641 48.9876 51.7641C48.17 51.7641 47.4298 52.0947 46.894 52.6286C46.3585 53.1624 46.0269 53.9005 46.0269 54.7161C46.0269 55.2681 45.5778 55.716 45.0241 55.716H42.4654V58.7146L52.9996 58.7155L53 58.7146Z" fill="#FED56C"/>
</svg>
