<svg width="47" height="60" viewBox="0 0 47 60" fill="none" xmlns="http://www.w3.org/2000/svg">
<path d="M31.8223 15.1769H37.9458L31.8223 9.05078V15.1769Z" fill="#FED56C"/>
<path d="M29.7529 16.2121V7.58789H0V59.9991H39.4089V17.2472H30.7882C30.2164 17.2472 29.7536 16.7838 29.7536 16.2123L29.7529 16.2121ZM31.5874 55.8972L7.82054 55.8967C7.24878 55.8967 6.78601 55.4333 6.78601 54.8618C6.78601 54.2903 7.24878 53.8269 7.82054 53.8269H31.5874C32.1587 53.8269 32.6219 54.2903 32.6219 54.8618C32.6219 55.4333 32.1587 55.8967 31.5874 55.8967V55.8972ZM31.5874 51.3871L7.82054 51.3866C7.24878 51.3866 6.78601 50.9232 6.78601 50.3517C6.78601 49.7803 7.24878 49.3169 7.82054 49.3169H31.5874C32.1587 49.3169 32.6219 49.7803 32.6219 50.3517C32.6219 50.9232 32.1587 51.3866 31.5874 51.3866V51.3871ZM6.78601 45.8417C6.78601 45.2702 7.24878 44.8068 7.82054 44.8068H20.4465C21.0178 44.8068 21.481 45.2702 21.481 45.8417C21.481 46.4136 21.0178 46.8765 20.4465 46.8765H7.82054C7.24878 46.8765 6.78601 46.4136 6.78601 45.8417ZM31.5661 27.9672V31.5029C32.7097 31.8513 33.6144 32.7314 33.9936 33.8652C34.3732 34.9989 34.1806 36.2468 33.4767 37.2133C32.7729 38.1799 31.6446 38.7458 30.4494 38.732C29.2542 38.7186 28.1393 38.1272 27.4576 37.145C26.7759 36.1628 26.6115 34.9112 27.0165 33.7863C27.4215 32.6614 28.3457 31.802 29.497 31.48V29.0023H20.4366V31.4916C21.5847 31.8265 22.5001 32.6969 22.8926 33.827C23.2852 34.957 23.1069 36.2077 22.4137 37.1829C21.7205 38.1578 20.5982 38.7372 19.402 38.7372C18.2058 38.7372 17.084 38.1578 16.3907 37.1829C15.6975 36.2077 15.5188 34.9571 15.9113 33.827C16.3039 32.6969 17.2192 31.8265 18.3674 31.4916V29.0023H9.91334V31.48C11.0661 31.802 11.9916 32.6622 12.3976 33.7886C12.8031 34.915 12.6387 36.1679 11.9561 37.1516C11.274 38.1352 10.1577 38.727 8.96106 38.7409C7.76396 38.7543 6.63473 38.1875 5.93043 37.2201C5.22566 36.2522 5.03308 35.0029 5.41317 33.8678C5.79326 32.7326 6.69894 31.8516 7.84424 31.5033V27.9675C7.84424 27.396 8.30747 26.9326 8.87877 26.9326H18.3673V24.3842C18.3673 23.8127 18.8305 23.3493 19.4018 23.3493C19.9731 23.3493 20.4364 23.8127 20.4364 24.3842V26.9326H30.5313C31.1026 26.9326 31.5658 27.396 31.5658 27.9675L31.5661 27.9672Z" fill="#FED56C"/>
<path d="M39.4082 7.58857H45.5322L39.4082 1.46289V7.58857Z" fill="#FED56C"/>
<path d="M37.3389 8.62418V0H7.58594V5.51953H30.7865C30.8558 5.51953 30.925 5.526 30.9934 5.5394C31.0368 5.55002 31.0802 5.56296 31.1222 5.57867C31.1435 5.58606 31.1657 5.59022 31.1864 5.59854V5.599C31.234 5.61979 31.2802 5.64381 31.3241 5.67153C31.3379 5.67985 31.3532 5.68539 31.3661 5.69417C31.4229 5.73205 31.4756 5.77502 31.5236 5.82306L41.1793 15.4821C41.2273 15.5302 41.2703 15.5828 41.3082 15.6392C41.3156 15.6508 41.3211 15.6646 41.3289 15.6771C41.3567 15.7214 41.3816 15.7676 41.4033 15.8152C41.4107 15.8346 41.4144 15.8545 41.4213 15.8739C41.4633 15.982 41.4841 16.0975 41.4827 16.2135V52.4107H47.0004L46.9999 9.65882H38.3727C37.8014 9.65882 37.3381 9.19543 37.3381 8.62394L37.3389 8.62418Z" fill="#FED56C"/>
<path d="M7.29104 35.0232C7.29104 35.6811 7.6873 36.2743 8.29462 36.5261C8.9024 36.7779 9.60214 36.6388 10.0671 36.1736C10.5322 35.7083 10.6712 35.0084 10.4195 34.4004C10.1678 33.7929 9.57483 33.3965 8.91717 33.3965C8.01934 33.3974 7.29198 34.125 7.29104 35.0232Z" fill="#FED56C"/>
<path d="M17.7754 35.0232C17.7754 35.6811 18.1717 36.2743 18.7795 36.5261C19.3868 36.7779 20.0865 36.6388 20.5515 36.1736C21.0166 35.7083 21.1556 35.0084 20.9039 34.4004C20.6522 33.7929 20.0592 33.3965 19.4015 33.3965C18.5037 33.3974 17.7764 34.125 17.7754 35.0232Z" fill="#FED56C"/>
<path d="M28.8633 35.0232C28.8633 35.6811 29.2596 36.2743 29.8674 36.5261C30.4752 36.7779 31.1744 36.6388 31.6394 36.1736C32.1045 35.7083 32.244 35.0084 31.9923 34.4004C31.7406 33.7929 31.1476 33.3965 30.4894 33.3965C29.5921 33.3974 28.8648 34.125 28.8633 35.0232Z" fill="#FED56C"/>
</svg>
