<svg width="60" height="60" viewBox="0 0 60 60" fill="none" xmlns="http://www.w3.org/2000/svg">
<path d="M26.4754 18.9254C27.9028 19.5715 28.9425 20.8863 29.2571 22.4428L30.2845 27.53C30.3052 27.6329 30.3958 27.7074 30.5 27.7074C30.6042 27.7074 30.6948 27.6329 30.7155 27.53L31.7429 22.4428C32.057 20.8866 33.0972 19.5715 34.5245 18.9254C38.0497 17.3301 40.3276 13.7854 40.3276 9.89525C40.3276 7.18095 39.2576 4.64877 37.3149 2.76555C35.4665 0.974049 33.0601 0 30.5028 0C30.3743 0 30.2451 0.00240212 30.1155 0.00760658C24.8758 0.208176 20.6398 4.67165 20.6721 9.9582C20.6963 13.8211 22.9742 17.3409 26.4755 18.9255L26.4754 18.9254ZM30.5 1.97895C34.835 1.97895 38.3621 5.52996 38.3621 9.89535C38.3621 14.2603 34.8355 17.8118 30.5 17.8118C26.1649 17.8118 22.6378 14.2607 22.6378 9.89535C22.6378 5.53037 26.1649 1.97895 30.5 1.97895Z" fill="#FED56C"/>
<path d="M25.6704 20.7303C24.5745 20.2342 23.5794 19.5789 22.7054 18.801H12.8107V20.78H25.7721C25.7383 20.7632 25.7049 20.7459 25.6708 20.7303L25.6704 20.7303Z" fill="#FED56C"/>
<path d="M36.3965 9.89613C36.3965 13.1753 33.7568 15.8337 30.5 15.8337C27.2432 15.8337 24.6035 13.1753 24.6035 9.89613C24.6035 6.61733 27.2432 3.95898 30.5 3.95898C33.7568 3.95898 36.3965 6.61733 36.3965 9.89613Z" fill="#FED56C"/>
<path d="M55.0688 20.2724L48.1895 18.1582V48.8524L55.0688 52.1553V20.2724Z" fill="#FED56C"/>
<path d="M10.8451 50.6296V12.2969L3.11609 15.1265C2.44851 15.3711 2 16.016 2 16.731V52.4175C2.32007 52.2489 2.66956 52.1264 3.04097 52.0584L10.8451 50.6296Z" fill="#FED56C"/>
<path d="M35.3303 20.7297C35.2957 20.7453 35.2623 20.7625 35.2285 20.7797H38.1071L46.2242 16.239V13.6211L39.2796 17.8168C38.1981 19.0334 36.863 20.0358 35.3302 20.7297L35.3303 20.7297Z" fill="#FED56C"/>
<path d="M48.1895 13.3164V16.0908L57.0345 18.8091V55.2929L48.1895 51.0459V53.7555L56.9574 57.287C57.134 57.3582 57.32 57.3943 57.5105 57.3943C58.3319 57.3943 58.9999 56.7217 58.9999 55.8946V17.5024L48.1895 13.3164Z" fill="#FED56C"/>
<path d="M33.687 22.7594C33.681 22.7854 33.6742 22.8111 33.6691 22.8371L32.6416 27.9243C32.4357 28.9452 31.5347 29.6862 30.5001 29.6862C29.4656 29.6862 28.5646 28.9451 28.3583 27.9243L27.3308 22.8371C27.3257 22.8111 27.3185 22.7854 27.3129 22.7594H12.8104V52.2822L3.39244 54.0065C2.5857 54.1542 2 54.8604 2 55.686C2 56.6276 2.76062 57.3934 3.69576 57.3934H38.1545L46.225 53.7819V51.1588L38.6173 55.4145H8.87943V53.4355H38.1074L46.2244 48.8948V18.5039L38.6167 22.7595L33.687 22.7594ZM38.3624 51.4562H20.673C19.0471 51.4562 17.7247 50.1242 17.7247 48.4876C17.7247 46.8505 19.0475 45.519 20.673 45.519H34.4314C34.9734 45.519 35.4143 45.075 35.4143 44.5294C35.4143 43.9837 34.9734 43.5397 34.4314 43.5397H17.7242C16.0984 43.5397 14.776 42.2078 14.776 40.5711C14.776 38.9341 16.0988 37.6026 17.7242 37.6026H26.5692C27.1112 37.6026 27.5521 37.1586 27.5521 36.6129C27.5521 36.0672 27.1112 35.6233 26.5692 35.6233H20.6728C19.0469 35.6233 17.7245 34.2913 17.7245 32.6547V24.7383H19.6899V32.6547C19.6899 33.2004 20.1308 33.6443 20.6728 33.6443H26.5693C28.1951 33.6443 29.5175 34.9763 29.5175 36.6129C29.5175 38.25 28.1947 39.5815 26.5693 39.5815H17.7242C17.1823 39.5815 16.7414 40.0255 16.7414 40.5711C16.7414 41.1168 17.1823 41.5608 17.7242 41.5608H34.4314C36.0573 41.5608 37.3797 42.8927 37.3797 44.5294C37.3797 46.1664 36.0569 47.4979 34.4314 47.4979H20.673C20.1311 47.4979 19.6901 47.9419 19.6901 48.4876C19.6901 49.0333 20.1311 49.4772 20.673 49.4772H38.3624L38.3624 51.4562Z" fill="#FED56C"/>
<path d="M2.41099 59.225C2.38952 59.2358 2.36726 59.2438 2.3442 59.249C2.32074 59.2542 2.29688 59.257 2.27263 59.257C2.19708 59.257 2.13784 59.2362 2.0945 59.1946C2.05077 59.1529 2.0293 59.0965 2.0293 59.0248C2.0293 58.9524 2.05077 58.8951 2.0945 58.8535C2.13784 58.8118 2.19708 58.791 2.27263 58.791C2.29688 58.791 2.32074 58.7938 2.3442 58.799C2.36726 58.8046 2.38952 58.8126 2.41099 58.823V58.9175C2.38873 58.9027 2.36686 58.8919 2.34579 58.8855C2.32551 58.8783 2.30444 58.8743 2.28217 58.8743C2.24082 58.8743 2.20782 58.8879 2.18357 58.9143C2.16011 58.9411 2.14858 58.978 2.14858 59.0248C2.14858 59.0709 2.16011 59.1073 2.18357 59.1337C2.20782 59.1605 2.24082 59.1737 2.28217 59.1737C2.30444 59.1737 2.32551 59.1705 2.34579 59.1641C2.36686 59.1569 2.38873 59.1457 2.41099 59.1305V59.225Z" fill="#FED56C"/>
<path d="M2.75165 59.0016C2.7421 58.9976 2.73256 58.9944 2.72302 58.992C2.71427 58.99 2.70552 58.9888 2.69598 58.9888C2.66815 58.9888 2.64708 58.998 2.63237 59.016C2.61726 59.0345 2.6101 59.0601 2.6101 59.0929V59.2482H2.50195V58.9104H2.6101V58.9664C2.62362 58.944 2.63952 58.928 2.65781 58.9184C2.67571 58.9079 2.69678 58.9023 2.72143 58.9023H2.73415C2.73813 58.9023 2.74409 58.9031 2.75165 58.9039L2.75165 59.0016Z" fill="#FED56C"/>
<path d="M3.14069 59.0785V59.1089H2.8894C2.89258 59.1345 2.90132 59.1538 2.91643 59.1666C2.93234 59.1794 2.9546 59.1858 2.98323 59.1858C3.0055 59.1858 3.02816 59.1826 3.05162 59.1762C3.07587 59.169 3.10013 59.1582 3.12478 59.1441V59.2274C3.09933 59.237 3.07388 59.2442 3.04844 59.2482C3.02299 59.2534 2.99754 59.2562 2.9721 59.2562C2.91166 59.2562 2.86435 59.241 2.83055 59.2098C2.79755 59.179 2.78125 59.1357 2.78125 59.0801C2.78125 59.0248 2.79755 58.9816 2.83055 58.9504C2.86316 58.9184 2.90888 58.9023 2.96733 58.9023C3.01902 58.9023 3.06117 58.9184 3.09298 58.9504C3.12479 58.9824 3.14069 59.0252 3.14069 59.0785ZM3.03095 59.0417C3.03095 59.0216 3.02459 59.0056 3.01187 58.9936C2.99994 58.9808 2.98483 58.9744 2.96574 58.9744C2.94547 58.9744 2.92837 58.9804 2.91485 58.992C2.90213 59.004 2.89418 59.0204 2.89099 59.0417L3.03095 59.0417Z" fill="#FED56C"/>
<path d="M3.37221 59.0961C3.34994 59.0961 3.33285 59.1001 3.32131 59.1073C3.31058 59.1149 3.30541 59.1261 3.30541 59.141C3.30541 59.155 3.30939 59.1662 3.31813 59.1746C3.32768 59.1822 3.3404 59.1858 3.3563 59.1858C3.37618 59.1858 3.39328 59.1786 3.4072 59.1634C3.42072 59.1486 3.42787 59.1305 3.42787 59.1089V59.0961H3.37221ZM3.53602 59.0561V59.2482H3.42787V59.1986C3.41396 59.219 3.39805 59.2338 3.38016 59.2434C3.36187 59.2518 3.33961 59.2563 3.31337 59.2563C3.27838 59.2563 3.25015 59.2462 3.22907 59.2258C3.2076 59.2058 3.19727 59.1794 3.19727 59.1474C3.19727 59.1081 3.21039 59.0793 3.23703 59.0609C3.26446 59.0417 3.307 59.0321 3.36426 59.0321H3.42787V59.0241C3.42787 59.0072 3.42072 58.9948 3.4072 58.9872C3.39448 58.9788 3.3738 58.9744 3.34517 58.9744C3.32171 58.9744 3.29985 58.9768 3.27997 58.9808C3.26088 58.9852 3.24259 58.992 3.22589 59.0016V58.92C3.24895 58.9136 3.27201 58.9096 3.29428 58.9071C3.31734 58.9039 3.3408 58.9023 3.36426 58.9023C3.42469 58.9023 3.46803 58.9148 3.49467 58.9392C3.5221 58.9628 3.53602 59.0016 3.53602 59.0561Z" fill="#FED56C"/>
<path d="M3.75243 58.8145V58.9105H3.86376V58.9874H3.75243V59.1315C3.75243 59.1467 3.75561 59.1571 3.76197 59.1635C3.76833 59.1692 3.78026 59.1716 3.79855 59.1716H3.85421V59.2484H3.76197C3.71943 59.2484 3.68921 59.24 3.67132 59.2228C3.65422 59.2048 3.64587 59.1744 3.64587 59.1315V58.9874H3.5918V58.9105H3.64587V58.8145L3.75243 58.8145Z" fill="#FED56C"/>
<path d="M4.26373 59.0785V59.1089H4.01244C4.01562 59.1345 4.02437 59.1538 4.03948 59.1666C4.05538 59.1794 4.07765 59.1858 4.10628 59.1858C4.12854 59.1858 4.15121 59.1826 4.17466 59.1762C4.19892 59.169 4.22317 59.1582 4.24782 59.1441V59.2274C4.22238 59.237 4.19693 59.2442 4.17148 59.2482C4.14604 59.2534 4.12059 59.2562 4.09514 59.2562C4.03471 59.2562 3.98739 59.241 3.9536 59.2098C3.9206 59.179 3.9043 59.1357 3.9043 59.0801C3.9043 59.0248 3.9206 58.9816 3.9536 58.9504C3.9862 58.9184 4.03193 58.9023 4.09038 58.9023C4.14207 58.9023 4.18422 58.9184 4.21603 58.9504C4.24784 58.9824 4.26373 59.0252 4.26373 59.0785ZM4.154 59.0417C4.154 59.0216 4.14764 59.0056 4.13491 58.9936C4.12298 58.9808 4.10788 58.9744 4.08879 58.9744C4.06851 58.9744 4.05142 58.9804 4.0379 58.992C4.02517 59.004 4.01722 59.0204 4.01404 59.0417L4.154 59.0417Z" fill="#FED56C"/>
<path d="M4.57514 58.9603V58.7793H4.68329V59.2485H4.57514V59.1989C4.56003 59.2193 4.54373 59.2341 4.52584 59.2437C4.50874 59.2521 4.48807 59.2565 4.46381 59.2565C4.42246 59.2565 4.38827 59.2401 4.36203 59.2069C4.33539 59.174 4.32227 59.1316 4.32227 59.0804C4.32227 59.0283 4.33539 58.9855 4.36203 58.9522C4.38827 58.9194 4.42246 58.9026 4.46381 58.9026C4.48687 58.9026 4.50755 58.9074 4.52584 58.917C4.54373 58.9258 4.56003 58.9402 4.57514 58.9603ZM4.50516 59.178C4.52743 59.178 4.54413 59.17 4.55606 59.154C4.56878 59.1372 4.57514 59.1124 4.57514 59.0804C4.57514 59.0475 4.56878 59.0227 4.55606 59.0067C4.54413 58.9899 4.52743 58.9811 4.50516 58.9811C4.4817 58.9811 4.46381 58.9899 4.45109 59.0067C4.43916 59.0227 4.43359 59.0475 4.43359 59.0804C4.43359 59.1124 4.43916 59.1372 4.45109 59.154C4.46381 59.17 4.4817 59.178 4.50516 59.178Z" fill="#FED56C"/>
<path d="M5.17972 59.178C5.20198 59.178 5.21868 59.17 5.23061 59.154C5.24333 59.1372 5.24969 59.1124 5.24969 59.0803C5.24969 59.0475 5.24333 59.0227 5.23061 59.0067C5.21868 58.9899 5.20198 58.9811 5.17972 58.9811C5.15626 58.9811 5.13837 58.9899 5.12564 59.0067C5.11371 59.0239 5.10815 59.0483 5.10815 59.0803C5.10815 59.1124 5.11371 59.1372 5.12564 59.154C5.13837 59.17 5.15626 59.178 5.17972 59.178ZM5.10815 58.9602C5.12286 58.9402 5.13916 58.9258 5.15745 58.917C5.17534 58.9074 5.19602 58.9026 5.21948 58.9026C5.26083 58.9026 5.29462 58.9194 5.32126 58.9522C5.34751 58.9855 5.36102 59.0283 5.36102 59.0804C5.36102 59.1316 5.34751 59.174 5.32126 59.2069C5.29462 59.2401 5.26083 59.2565 5.21948 59.2565C5.19602 59.2565 5.17534 59.2521 5.15745 59.2437C5.13916 59.2341 5.12286 59.2193 5.10815 59.1989V59.2485H5V58.7793H5.10815V58.9602Z" fill="#FED56C"/>
<path d="M5.39648 58.9102H5.50304L5.5937 59.1392L5.67004 58.9102H5.77819L5.63664 59.2801C5.62153 59.3173 5.60483 59.3433 5.58575 59.3585C5.56746 59.3734 5.5432 59.381 5.51259 59.381H5.45056V59.3105H5.48396C5.50185 59.3105 5.51497 59.3073 5.52372 59.3009C5.53207 59.2953 5.53843 59.2853 5.54281 59.2705L5.54599 59.2609L5.39648 58.9102Z" fill="#FED56C"/>
<path d="M6.05859 58.7988H6.37031V58.8853H6.17469V58.9702H6.35918V59.0583H6.17469V59.1607H6.37668V59.2488H6.05859V58.7988Z" fill="#FED56C"/>
<path d="M6.4707 59.1167V58.9102H6.57885V58.9438V59.0126V59.0687C6.57885 59.0955 6.57925 59.1151 6.58044 59.1279C6.58124 59.14 6.58362 59.1484 6.5868 59.1536C6.59197 59.16 6.59794 59.1656 6.6043 59.1696C6.61146 59.1728 6.6202 59.1744 6.62975 59.1744C6.65201 59.1744 6.66951 59.166 6.68223 59.1488C6.69495 59.1319 6.70131 59.1079 6.70131 59.0767V58.9102H6.80787V59.2481H6.70131V59.1984C6.68541 59.2188 6.66831 59.2336 6.65042 59.2432C6.63213 59.2517 6.61225 59.2561 6.58998 59.2561C6.55062 59.2561 6.5208 59.2444 6.50092 59.2208C6.48064 59.1976 6.4707 59.1628 6.4707 59.1167Z" fill="#FED56C"/>
<path d="M7.18253 58.9216V59.0096C7.16742 58.9992 7.15271 58.9916 7.138 58.9872C7.12408 58.982 7.10937 58.9792 7.09347 58.9792C7.06246 58.9792 7.0386 58.9884 7.0219 59.0064C7.006 59.0236 6.99804 59.0481 6.99804 59.0801C6.99804 59.1113 7.006 59.1357 7.0219 59.1538C7.0386 59.171 7.06246 59.1794 7.09347 59.1794C7.10937 59.1794 7.12448 59.1774 7.13959 59.173C7.15549 59.1678 7.16981 59.1602 7.18253 59.1505V59.2386C7.16544 59.245 7.14834 59.249 7.13164 59.2514C7.11454 59.2546 7.09705 59.2562 7.07916 59.2562C7.01872 59.2562 6.9714 59.241 6.93761 59.2098C6.90342 59.179 6.88672 59.1357 6.88672 59.0801C6.88672 59.0236 6.90342 58.98 6.93761 58.9488C6.97141 58.918 7.01872 58.9023 7.07916 58.9023C7.09705 58.9023 7.11454 58.9039 7.13164 58.9071C7.14834 58.9104 7.16544 58.9151 7.18253 58.9216Z" fill="#FED56C"/>
<path d="M7.42494 59.0961C7.40268 59.0961 7.38558 59.1001 7.37405 59.1073C7.36331 59.1149 7.35814 59.1261 7.35814 59.141C7.35814 59.155 7.36212 59.1662 7.37087 59.1746C7.38041 59.1822 7.39313 59.1858 7.40904 59.1858C7.42892 59.1858 7.44601 59.1786 7.45993 59.1634C7.47345 59.1486 7.48061 59.1305 7.48061 59.1089V59.0961H7.42494ZM7.58876 59.0561V59.2482H7.48061V59.1986C7.46669 59.219 7.45079 59.2338 7.4329 59.2434C7.41461 59.2518 7.39234 59.2563 7.3661 59.2563C7.33111 59.2563 7.30288 59.2462 7.28181 59.2258C7.26034 59.2058 7.25 59.1794 7.25 59.1474C7.25 59.1081 7.26312 59.0793 7.28976 59.0609C7.31719 59.0417 7.35974 59.0321 7.41699 59.0321H7.48061V59.0241C7.48061 59.0072 7.47345 58.9948 7.45993 58.9872C7.44721 58.9788 7.42654 58.9744 7.39791 58.9744C7.37445 58.9744 7.35258 58.9768 7.3327 58.9808C7.31362 58.9852 7.29533 58.992 7.27863 59.0016V58.92C7.30169 58.9136 7.32475 58.9096 7.34702 58.9071C7.37008 58.9039 7.39353 58.9023 7.41699 58.9023C7.47743 58.9023 7.52076 58.9148 7.5474 58.9392C7.57484 58.9628 7.58876 59.0016 7.58876 59.0561Z" fill="#FED56C"/>
<path d="M7.68945 58.7793H7.7976V59.2485H7.68945V58.7793Z" fill="#FED56C"/>
<path d="M7.85547 58.9102H7.96203L8.05268 59.1392L8.12902 58.9102H8.23717L8.09563 59.2801C8.08052 59.3173 8.06382 59.3433 8.04473 59.3585C8.02644 59.3734 8.00219 59.381 7.97157 59.381H7.90955V59.3105H7.94294C7.96084 59.3105 7.97396 59.3073 7.9827 59.3009C7.99105 59.2953 7.99742 59.2853 8.00179 59.2705L8.00497 59.2609L7.85547 58.9102Z" fill="#FED56C"/>
<path d="M8.40698 59.1986V59.3764H8.29883V58.9104H8.40698V58.96C8.42169 58.94 8.43799 58.9256 8.45628 58.9168C8.47417 58.9071 8.49485 58.9023 8.51831 58.9023C8.55966 58.9023 8.59345 58.9192 8.62009 58.952C8.64633 58.9852 8.65985 59.0281 8.65985 59.0801C8.65985 59.1313 8.64633 59.1738 8.62009 59.2066C8.59345 59.2398 8.55966 59.2563 8.51831 59.2563C8.49485 59.2563 8.47417 59.2518 8.45628 59.2434C8.43799 59.2338 8.42169 59.219 8.40698 59.1986ZM8.47854 58.9808C8.45509 58.9808 8.43719 58.9896 8.42447 59.0064C8.41254 59.0236 8.40698 59.0481 8.40698 59.0801C8.40698 59.1121 8.41254 59.1369 8.42447 59.1538C8.43719 59.1698 8.45509 59.1778 8.47854 59.1778C8.50081 59.1778 8.51751 59.1698 8.52944 59.1538C8.54216 59.1369 8.54852 59.1121 8.54852 59.0801C8.54852 59.0473 8.54216 59.0224 8.52944 59.0064C8.51751 58.9896 8.50081 58.9808 8.47854 58.9808Z" fill="#FED56C"/>
<path d="M2.27255 59.3984V59.4689H2.2137C2.19859 59.4689 2.18826 59.4717 2.1819 59.4769C2.17553 59.4825 2.17235 59.4921 2.17235 59.5057V59.5298H2.2646V59.6066H2.17235V59.8676H2.06579V59.6066H2.01172V59.5298H2.06579V59.5057C2.06579 59.4697 2.07573 59.4429 2.09601 59.4257C2.11589 59.4076 2.1477 59.3984 2.19144 59.3984L2.27255 59.3984Z" fill="#FED56C"/>
<path d="M2.56805 59.6208C2.55851 59.6168 2.54897 59.6136 2.53943 59.6112C2.53068 59.6092 2.52193 59.608 2.51239 59.608C2.48456 59.608 2.46348 59.6172 2.44877 59.6352C2.43366 59.6536 2.42651 59.6792 2.42651 59.7121V59.8674H2.31836V59.5295H2.42651V59.5855C2.44003 59.5631 2.45593 59.5471 2.47422 59.5375C2.49211 59.5271 2.51318 59.5215 2.53784 59.5215H2.55056C2.55454 59.5215 2.5605 59.5223 2.56805 59.5231L2.56805 59.6208Z" fill="#FED56C"/>
<path d="M2.78215 59.5984C2.7575 59.5984 2.73921 59.6072 2.72648 59.624C2.71456 59.6412 2.70899 59.6664 2.70899 59.6992C2.70899 59.7313 2.71456 59.7561 2.72648 59.7729C2.73921 59.7901 2.7575 59.7985 2.78215 59.7985C2.80521 59.7985 2.8227 59.7901 2.83463 59.7729C2.84736 59.7561 2.85372 59.7313 2.85372 59.6992C2.85372 59.6664 2.84736 59.6412 2.83463 59.624C2.8227 59.6072 2.80521 59.5984 2.78215 59.5984ZM2.78215 59.5215C2.8394 59.5215 2.88433 59.5375 2.91733 59.5695C2.94993 59.6008 2.96663 59.644 2.96663 59.6992C2.96663 59.7549 2.94994 59.7981 2.91733 59.8289C2.88433 59.8602 2.8394 59.8754 2.78215 59.8754C2.7237 59.8754 2.67798 59.8602 2.64537 59.8289C2.61356 59.7981 2.59766 59.7549 2.59766 59.6992C2.59766 59.644 2.61356 59.6007 2.64537 59.5695C2.67797 59.5375 2.7237 59.5215 2.78215 59.5215Z" fill="#FED56C"/>
<path d="M3.35469 59.5856C3.36821 59.5643 3.38411 59.5483 3.4024 59.5375C3.42149 59.5271 3.44216 59.5215 3.46443 59.5215C3.50339 59.5215 3.53321 59.5339 3.55349 59.5583C3.57337 59.582 3.58371 59.616 3.58371 59.6608V59.8674H3.47556V59.6912V59.6832V59.6704C3.47556 59.6472 3.47158 59.63 3.46443 59.6192C3.45807 59.6088 3.44693 59.6032 3.43103 59.6032C3.41075 59.6032 3.39485 59.612 3.38332 59.6288C3.37258 59.6448 3.36741 59.6688 3.36741 59.7008V59.8674H3.25926V59.6912C3.25926 59.654 3.25608 59.63 3.24972 59.6192C3.24336 59.6088 3.23143 59.6032 3.21473 59.6032C3.19446 59.6032 3.17855 59.612 3.16702 59.6288C3.15629 59.646 3.15112 59.67 3.15112 59.7008V59.8674H3.04297V59.5295H3.15112V59.5791C3.16384 59.5599 3.17855 59.5455 3.19565 59.5359C3.21354 59.5263 3.23263 59.5215 3.2529 59.5215C3.27596 59.5215 3.29624 59.5275 3.31334 59.5391C3.33123 59.5499 3.34515 59.5655 3.35469 59.5856Z" fill="#FED56C"/>
<path d="M4.01415 59.4336V59.5297H4.12548V59.6065H4.01415V59.7507C4.01415 59.7659 4.01733 59.7763 4.02369 59.7827C4.03005 59.7883 4.04198 59.7907 4.06027 59.7907H4.11593V59.8676H4.02369C3.98115 59.8676 3.95093 59.8592 3.93304 59.8419C3.91594 59.8239 3.90759 59.7935 3.90759 59.7507V59.6065H3.85352V59.5297H3.90759V59.4336L4.01415 59.4336Z" fill="#FED56C"/>
<path d="M4.52821 59.6611V59.8676H4.42006V59.7107C4.42006 59.6811 4.41887 59.6607 4.41688 59.6499C4.41569 59.6394 4.4137 59.6314 4.41052 59.6258C4.40615 59.6186 4.40018 59.613 4.39303 59.6098C4.38666 59.6058 4.37871 59.6034 4.36917 59.6034C4.3469 59.6034 4.32941 59.6122 4.31669 59.629C4.30396 59.6462 4.2976 59.6703 4.2976 59.7011V59.8676H4.18945V59.3984H4.2976V59.5794C4.31351 59.5594 4.3302 59.545 4.34849 59.5362C4.36639 59.5265 4.38666 59.5217 4.40893 59.5217C4.44789 59.5217 4.47772 59.5342 4.49799 59.5586C4.51787 59.5822 4.52821 59.6162 4.52821 59.6611Z" fill="#FED56C"/>
<path d="M4.96295 59.6976V59.7281H4.71166C4.71484 59.7537 4.72359 59.7729 4.7387 59.7857C4.7546 59.7985 4.77687 59.8049 4.8055 59.8049C4.82776 59.8049 4.85042 59.8017 4.87388 59.7953C4.89814 59.7881 4.92239 59.7773 4.94704 59.7633V59.8466C4.9216 59.8562 4.89615 59.8634 4.8707 59.8674C4.84526 59.8726 4.81981 59.8754 4.79436 59.8754C4.73393 59.8754 4.68661 59.8602 4.65282 59.8289C4.61982 59.7981 4.60352 59.7549 4.60352 59.6992C4.60352 59.644 4.61982 59.6007 4.65282 59.5695C4.68542 59.5375 4.73115 59.5215 4.7896 59.5215C4.84129 59.5215 4.88343 59.5375 4.91524 59.5695C4.94705 59.6016 4.96295 59.6444 4.96295 59.6976ZM4.85322 59.6608C4.85322 59.6408 4.84685 59.6248 4.83413 59.6128C4.8222 59.5999 4.80709 59.5935 4.78801 59.5935C4.76773 59.5935 4.75063 59.5995 4.73712 59.6112C4.72439 59.6232 4.71644 59.6396 4.71326 59.6608L4.85322 59.6608Z" fill="#FED56C"/>
<path d="M5.26367 59.418H5.39249L5.55631 59.727V59.418H5.66604V59.868H5.53722L5.37341 59.5589V59.868H5.26367V59.418Z" fill="#FED56C"/>
<path d="M5.93254 59.5984C5.90789 59.5984 5.8896 59.6072 5.87687 59.624C5.86495 59.6412 5.85938 59.6664 5.85938 59.6992C5.85938 59.7313 5.86495 59.7561 5.87687 59.7729C5.8896 59.7901 5.90789 59.7985 5.93254 59.7985C5.9556 59.7985 5.9731 59.7901 5.98502 59.7729C5.99775 59.7561 6.00411 59.7313 6.00411 59.6992C6.00411 59.6664 5.99775 59.6412 5.98502 59.624C5.97309 59.6072 5.9556 59.5984 5.93254 59.5984ZM5.93254 59.5215C5.98979 59.5215 6.03472 59.5375 6.06772 59.5695C6.10033 59.6008 6.11703 59.644 6.11703 59.6992C6.11703 59.7549 6.10033 59.7981 6.06772 59.8289C6.03472 59.8602 5.98979 59.8754 5.93254 59.8754C5.87409 59.8754 5.82837 59.8602 5.79576 59.8289C5.76395 59.7981 5.74805 59.7549 5.74805 59.6992C5.74805 59.644 5.76395 59.6007 5.79576 59.5695C5.82836 59.5375 5.87409 59.5215 5.93254 59.5215Z" fill="#FED56C"/>
<path d="M6.19141 59.7359V59.5293H6.29955V59.5629V59.6318V59.6878C6.29955 59.7147 6.29995 59.7343 6.30115 59.7471C6.30194 59.7591 6.30433 59.7675 6.30751 59.7727C6.31268 59.7791 6.31864 59.7847 6.325 59.7887C6.33216 59.7919 6.34091 59.7935 6.35045 59.7935C6.37271 59.7935 6.39021 59.7851 6.40293 59.7679C6.41565 59.7511 6.42202 59.7271 6.42202 59.6958V59.5293H6.52858V59.8672H6.42202V59.8175C6.40611 59.838 6.38902 59.8528 6.37112 59.8624C6.35283 59.8708 6.33295 59.8752 6.31069 59.8752C6.27132 59.8752 6.2415 59.8636 6.22162 59.84C6.20135 59.8167 6.19141 59.7819 6.19141 59.7359Z" fill="#FED56C"/>
<path d="M6.96962 59.6608V59.8674H6.86147V59.7105C6.86147 59.6808 6.86028 59.6604 6.85829 59.6496C6.8571 59.6392 6.85511 59.6312 6.85193 59.6256C6.84755 59.6184 6.84159 59.6128 6.83443 59.6096C6.82807 59.6056 6.82012 59.6032 6.81058 59.6032C6.78831 59.6032 6.77082 59.612 6.75809 59.6288C6.74537 59.646 6.73901 59.67 6.73901 59.7008V59.8674H6.63086V59.5295H6.73901V59.5791C6.75491 59.5591 6.77161 59.5447 6.7899 59.5359C6.80779 59.5263 6.82807 59.5215 6.85034 59.5215C6.8893 59.5215 6.91912 59.5339 6.9394 59.5583C6.95928 59.5819 6.96962 59.616 6.96962 59.6608Z" fill="#FED56C"/>
<path d="M7.28711 59.418H7.47955C7.5368 59.418 7.58014 59.4308 7.60996 59.4564C7.64057 59.4812 7.65608 59.5169 7.65608 59.5637C7.65608 59.6117 7.64057 59.6486 7.60996 59.6742C7.58013 59.699 7.5368 59.711 7.47955 59.711H7.40321V59.868H7.28711V59.418ZM7.40321 59.5012V59.6278H7.46682C7.48909 59.6278 7.50579 59.6225 7.51772 59.6117C7.53044 59.6001 7.5368 59.5841 7.5368 59.5637C7.5368 59.5445 7.53044 59.5297 7.51772 59.5189C7.50579 59.5072 7.48909 59.5012 7.46682 59.5012L7.40321 59.5012Z" fill="#FED56C"/>
<path d="M7.98212 59.6208C7.97257 59.6168 7.96303 59.6136 7.95349 59.6112C7.94474 59.6092 7.93599 59.608 7.92645 59.608C7.89862 59.608 7.87755 59.6172 7.86284 59.6352C7.84773 59.6536 7.84057 59.6792 7.84057 59.7121V59.8674H7.73242V59.5295H7.84057V59.5855C7.85409 59.5631 7.86999 59.5471 7.88828 59.5375C7.90617 59.5271 7.92725 59.5215 7.9519 59.5215H7.96462C7.9686 59.5215 7.97456 59.5223 7.98212 59.5231L7.98212 59.6208Z" fill="#FED56C"/>
<path d="M8.19621 59.5984C8.17156 59.5984 8.15327 59.6072 8.14055 59.624C8.12862 59.6412 8.12305 59.6664 8.12305 59.6992C8.12305 59.7313 8.12862 59.7561 8.14055 59.7729C8.15327 59.7901 8.17156 59.7985 8.19621 59.7985C8.21927 59.7985 8.23677 59.7901 8.24869 59.7729C8.26142 59.7561 8.26778 59.7313 8.26778 59.6992C8.26778 59.6664 8.26142 59.6412 8.24869 59.624C8.23677 59.6072 8.21927 59.5984 8.19621 59.5984ZM8.19621 59.5215C8.25347 59.5215 8.29839 59.5375 8.33139 59.5695C8.364 59.6008 8.3807 59.644 8.3807 59.6992C8.3807 59.7549 8.364 59.7981 8.33139 59.8289C8.29839 59.8602 8.25346 59.8754 8.19621 59.8754C8.13776 59.8754 8.09204 59.8602 8.05943 59.8289C8.02762 59.7981 8.01172 59.7549 8.01172 59.6992C8.01172 59.644 8.02762 59.6007 8.05943 59.5695C8.09203 59.5375 8.13776 59.5215 8.19621 59.5215Z" fill="#FED56C"/>
<path d="M8.45829 59.5297H8.56643V59.8612C8.56643 59.9069 8.5553 59.9417 8.53304 59.9653C8.51157 59.9885 8.48095 60.0006 8.44079 60.0006H8.38672V59.9301H8.4058C8.42568 59.9301 8.4396 59.9253 8.44715 59.9157C8.45431 59.9069 8.45829 59.8889 8.45829 59.8612L8.45829 59.5297ZM8.45829 59.3984H8.56643V59.4865H8.45829V59.3984Z" fill="#FED56C"/>
<path d="M9.00397 59.6976V59.7281H8.75268C8.75586 59.7537 8.76461 59.7729 8.77971 59.7857C8.79562 59.7985 8.81788 59.8049 8.84651 59.8049C8.86878 59.8049 8.89144 59.8017 8.9149 59.7953C8.93915 59.7881 8.96341 59.7773 8.98806 59.7633V59.8466C8.96261 59.8562 8.93716 59.8634 8.91172 59.8674C8.88627 59.8726 8.86083 59.8754 8.83538 59.8754C8.77494 59.8754 8.72763 59.8602 8.69383 59.8289C8.66083 59.7981 8.64453 59.7549 8.64453 59.6992C8.64453 59.644 8.66083 59.6007 8.69383 59.5695C8.72644 59.5375 8.77216 59.5215 8.83061 59.5215C8.8823 59.5215 8.92445 59.5375 8.95626 59.5695C8.98807 59.6016 9.00397 59.6444 9.00397 59.6976ZM8.89423 59.6608C8.89423 59.6408 8.88787 59.6248 8.87515 59.6128C8.86322 59.5999 8.84811 59.5935 8.82903 59.5935C8.80875 59.5935 8.79165 59.5995 8.77813 59.6112C8.76541 59.6232 8.75746 59.6396 8.75428 59.6608L8.89423 59.6608Z" fill="#FED56C"/>
<path d="M9.35636 59.5407V59.6288C9.34125 59.6184 9.32654 59.6108 9.31183 59.6063C9.29791 59.6011 9.2832 59.5983 9.2673 59.5983C9.23628 59.5983 9.21243 59.6075 9.19573 59.6256C9.17983 59.6428 9.17187 59.6672 9.17187 59.6992C9.17187 59.7305 9.17982 59.7549 9.19573 59.7729C9.21243 59.7901 9.23629 59.7985 9.2673 59.7985C9.2832 59.7985 9.29831 59.7965 9.31342 59.7921C9.32932 59.7869 9.34364 59.7793 9.35636 59.7697V59.8578C9.33926 59.8642 9.32217 59.8682 9.30547 59.8706C9.28837 59.8738 9.27088 59.8754 9.25298 59.8754C9.19255 59.8754 9.14523 59.8602 9.11144 59.8289C9.07725 59.7981 9.06055 59.7549 9.06055 59.6992C9.06055 59.6428 9.07725 59.5991 9.11144 59.5679C9.14524 59.5371 9.19255 59.5215 9.25298 59.5215C9.27088 59.5215 9.28837 59.5231 9.30547 59.5263C9.32217 59.5295 9.33926 59.5343 9.35636 59.5407Z" fill="#FED56C"/>
<path d="M9.56688 59.4336V59.5297H9.67821V59.6065H9.56688V59.7507C9.56688 59.7659 9.57006 59.7763 9.57642 59.7827C9.58278 59.7883 9.59471 59.7907 9.613 59.7907H9.66867V59.8676H9.57642C9.53388 59.8676 9.50366 59.8592 9.48577 59.8419C9.46867 59.8239 9.46032 59.7935 9.46032 59.7507V59.6065H9.40625V59.5297H9.46032V59.4336L9.56688 59.4336Z" fill="#FED56C"/>
</svg>
