<svg width="52" height="60" viewBox="0 0 52 60" fill="none" xmlns="http://www.w3.org/2000/svg">
<path d="M28.2734 1.21886C27.5067 1.07593 26.7202 1.00927 25.9531 1.00927C25.1287 1.00927 24.3232 1.07592 23.5371 1.21886C24.1797 0.457259 25.0139 0 25.9055 0C26.8067 0 27.6311 0.457304 28.2734 1.21886Z" fill="#FED56C"/>
<path d="M7.28851 45.9059C7.70207 45.0158 8.50755 42.7416 9.1961 40.6796L7.52601 41.5622C7.48762 41.581 7.45893 41.6003 7.42053 41.6192L6.20285 42.2668C2.37762 44.2192 0 48.0763 0 52.3429V59.0477C0 59.5716 0.431651 60 0.958641 60H6.68615L6.68703 48.7453C6.68703 47.7526 6.89437 46.7705 7.28851 45.9059Z" fill="#FED56C"/>
<path d="M42.9778 46.6901C42.3639 45.3804 41.2724 41.7548 40.5997 39.4354L39.4257 38.8281V46.5291C39.4257 47.0557 38.9967 47.4814 38.467 47.4814H13.5474C13.0173 47.4814 12.5888 47.0552 12.5888 46.5291L12.5883 38.8877L11.6332 39.3924C10.8714 41.7898 9.61535 45.4483 9.03448 46.697C8.75907 47.3016 8.60547 48.0317 8.60547 48.745L8.60591 59.9997H43.4098V48.745C43.4098 48.0334 43.2562 47.3033 42.9781 46.6896L42.9778 46.6901Z" fill="#FED56C"/>
<path d="M45.9979 42.2287L42.9551 40.6543C43.599 42.7966 44.3162 45.0375 44.7183 45.8964C45.1172 46.7733 45.3251 47.7554 45.3251 48.7451V59.9998H51.0408C51.5678 59.9998 51.9994 59.5714 51.9994 59.0474V52.1997C51.9994 48.0379 49.7084 44.2189 45.9978 42.2284L45.9979 42.2287Z" fill="#FED56C"/>
<path d="M38.099 17.4775V15.2392C38.118 15.1537 38.1467 15.0774 38.1467 14.9823C38.1467 9.42047 34.35 4.63001 29.0008 3.30666C30.2088 6.46835 30.7265 11.2019 30.8223 14.0303H28.905C28.7903 9.59187 27.9177 5.72563 27.0743 3.63026C26.9017 3.20189 26.4797 2.92567 26.0101 2.91602H25.9912C25.5215 2.91602 25.0899 3.20189 24.9173 3.6399C24.0831 5.73527 23.2202 9.59231 23.1055 14.0303H21.1882C21.284 11.2019 21.8017 6.44948 23.0194 3.28734C17.8807 4.59218 13.8639 9.23009 13.8639 14.9832C13.8639 15.0687 13.8926 15.1546 13.9115 15.2309V17.4688C12.0609 17.6972 10.6133 19.2498 10.6133 21.1448C10.6133 23.0495 12.0609 24.6117 13.9208 24.8208V24.8493C14.0069 28.011 15.7807 30.8491 18.4841 32.3538V35.7729L14.5056 37.8779V45.5824L37.5045 45.5829V37.8403L33.5353 35.7831V32.3543C36.2197 30.8399 37.993 28.0212 38.0796 24.9256C38.0893 24.8874 38.0893 24.8589 38.0893 24.8208C39.9399 24.602 41.3875 23.0499 41.3875 21.1448C41.3875 19.2498 39.9492 17.6972 38.099 17.4785L38.099 17.4775ZM31.6186 36.3344L26.0004 41.9151L20.4017 36.3436V33.153C21.2068 33.3915 22.0507 33.5248 22.9039 33.5248H29.1067C29.9793 33.5248 30.8228 33.3915 31.6184 33.1631L31.6186 36.3344ZM36.1818 24.5915C36.1818 24.6393 36.1818 24.6963 36.1721 24.8011C36.0569 28.563 32.951 31.6199 29.1064 31.6199H22.9035C19.136 31.6199 15.9432 28.6485 15.8378 24.7344C15.8281 24.6866 15.8281 24.6392 15.8281 24.5915V19.3726C16.758 20.6678 18.2631 21.5153 19.979 21.5153H32.0214C33.7375 21.5153 35.2522 20.6581 36.1821 19.3726L36.1818 24.5915Z" fill="#FED56C"/>
</svg>
