<svg width="60" height="60" viewBox="0 0 60 60" fill="none" xmlns="http://www.w3.org/2000/svg">
<path d="M59.4135 48.7833L57.2883 46.6585L54.5914 43.9719C54.5716 43.9522 54.5515 43.922 54.5314 43.9018C54.5108 43.8729 54.4873 43.8456 54.4613 43.8217H54.4512C54.4432 43.8037 54.429 43.7894 54.4109 43.7814L51.664 41.0353C51.6539 41.0152 51.6342 41.0051 51.6241 40.985H51.6141L51.5839 40.9548C51.5738 40.9351 51.5637 40.925 51.5541 40.925C51.5239 40.8948 51.4937 40.8746 51.4735 40.8545L48.9174 38.2988C48.8973 38.2787 48.8772 38.2485 48.857 38.2283C48.8365 38.1994 48.813 38.1726 48.787 38.1482H48.7769C48.7689 38.1306 48.7547 38.1159 48.7366 38.1084L46.2649 35.6365L46.8963 23.6437L46.9022 23.6445C47.0625 23.6546 47.2131 23.6546 47.3633 23.6546C50.2898 23.6621 53.0981 22.5001 55.1628 20.4268C55.3507 20.2393 55.4561 19.9851 55.4561 19.7199C55.4561 19.4548 55.3507 19.2006 55.1628 19.0135L48.7869 12.6386H48.7811L50.3238 11.0961C50.7308 11.2857 51.1747 11.3847 51.624 11.3855C52.9847 11.3855 54.1755 10.4718 54.5279 9.15794C54.8803 7.84404 54.3059 6.45716 53.1278 5.7767C51.9496 5.09624 50.461 5.29174 49.4989 6.25368H49.4888C48.5922 7.15858 48.3589 8.52832 48.906 9.67864L47.3611 11.2233L40.9874 4.84036C40.8002 4.65242 40.546 4.54712 40.2808 4.54712C40.0156 4.54712 39.7614 4.65241 39.5738 4.84036C37.3921 7.02145 36.2247 10.0176 36.3557 13.0997L36.3565 13.1056L24.3619 13.737L21.8897 11.2651C21.8801 11.2454 21.8599 11.2354 21.8498 11.2152H21.8398L21.8096 11.185C21.7995 11.1649 21.7894 11.1552 21.7794 11.1552C21.7496 11.125 21.7194 11.1049 21.6992 11.0848L19.1432 8.52863C19.123 8.50892 19.1029 8.47871 19.0827 8.45858C19.0622 8.42963 19.0387 8.40278 19.0127 8.37845H19.0026C18.9946 8.36041 18.9804 8.34615 18.9623 8.3386L16.2158 5.59206C16.2078 5.57402 16.1936 5.55976 16.1755 5.55179V5.54172H16.1655L16.1357 5.51194C16.1256 5.4918 16.1155 5.48173 16.1055 5.48173C16.0753 5.45153 16.045 5.43139 16.0253 5.41167L13.3383 2.71508L11.2132 0.590257C10.8377 0.212697 10.327 0 9.79461 0C9.26217 0 8.75155 0.212697 8.37603 0.590257L0.586562 8.37858C-0.195521 9.16265 -0.195521 10.4312 0.586562 11.2153L5.47882 16.1069C5.49896 16.127 5.51868 16.1568 5.53882 16.1769C5.55309 16.1933 5.56987 16.2067 5.58917 16.2172L8.33611 18.9633C8.34576 18.9834 8.3659 18.9935 8.37597 19.0136C8.39611 19.0237 8.40618 19.0434 8.42632 19.0535L11.1532 21.78C11.1729 21.8001 11.193 21.8303 11.2132 21.8504C11.2333 21.8605 11.2434 21.8802 11.2631 21.8903L14.01 24.6368C14.0201 24.657 14.0402 24.667 14.0503 24.6872C14.07 24.6968 14.0801 24.7169 14.1002 24.727L16.8875 27.5134C17.2621 27.8922 17.7728 28.1049 18.3056 28.1049C18.8385 28.1049 19.3495 27.8922 19.7242 27.5134L21.1377 26.1001H21.1381L22.5618 27.5235H22.5613L17.5991 32.4754L18.2708 33.1567L18.4512 33.3371L19.0126 33.8988L26.1 40.9852L26.1202 40.9651L27.5337 42.3885L32.4863 37.447V37.4466L33.8999 38.8599V38.8603L32.4863 40.2736C31.7043 41.0573 31.7043 42.3263 32.4863 43.11L35.253 45.8767C35.2702 45.9023 35.2904 45.9262 35.313 45.9467C35.3332 45.9568 35.3432 45.9769 35.3634 45.987L38.1103 48.7336C38.1204 48.7533 38.1401 48.7633 38.1502 48.7835C38.1703 48.7935 38.1804 48.8137 38.2005 48.8237L40.9274 51.5502C40.9442 51.5758 40.9647 51.5993 40.9874 51.6203C41.0075 51.6303 41.0176 51.6505 41.0377 51.6601L43.7842 54.4066C43.7943 54.4268 43.8144 54.4368 43.8245 54.457C43.8484 54.483 43.8757 54.5065 43.9046 54.527L48.7868 59.4085C49.1619 59.7869 49.6725 60 50.2054 60C50.7383 60 51.2489 59.7869 51.624 59.4085L59.4134 51.6202C60.1955 50.8361 60.1955 49.5675 59.4134 48.7834L59.4135 48.7833ZM53.7493 45.9466L45.9498 53.7449L44.5363 52.3316L52.3357 44.5332L53.7493 45.9466ZM44.3579 33.7293L44.3558 33.7276L43.1126 32.485C42.7375 32.107 42.2269 31.8948 41.6944 31.8948C41.1616 31.8948 40.6509 32.107 40.2758 32.485L38.8623 33.8983L37.4488 32.485L41.6995 28.2248C42.4744 27.4383 42.4744 26.1747 41.6995 25.3881L40.2859 23.9748L41.9898 22.2606C42.9015 22.7674 43.8805 23.142 44.897 23.3736L44.9025 23.3744L44.3579 33.7293ZM29.649 26.0996L34.6012 21.138L35.3127 21.8499L36.0248 22.5614L31.0625 27.5129C30.6719 27.9064 30.6731 28.5415 31.0654 28.9334C31.4573 29.3256 32.0925 29.3269 32.4861 28.9363L37.4383 23.9748L38.1499 24.6867L38.1701 24.7064L38.862 25.3982L33.8997 30.3496C33.1402 31.109 32.0334 31.4056 30.9962 31.1274C29.959 30.8497 29.1489 30.0396 28.8711 29.0026C28.5929 27.9656 28.8895 26.8588 29.649 26.0996ZM39.5735 20.4366L40.2755 21.138L38.862 22.5513H38.8519L37.6787 21.3788L37.6087 21.3083L37.5386 21.2383L37.4484 21.138L38.8619 19.7247L39.5735 20.4366ZM50.9119 7.67692C51.3025 7.28636 51.9352 7.28636 52.3254 7.67692C52.716 8.06707 52.716 8.69969 52.3254 9.08982C51.9352 9.48038 51.3025 9.48038 50.9119 9.09024C50.7243 8.90271 50.619 8.64849 50.619 8.38336C50.619 8.11823 50.7243 7.86403 50.9119 7.67692ZM36.6262 15.1044C36.8599 16.1171 37.2346 17.0925 37.7393 18.0012V18.0112L36.0249 19.7149L34.6114 18.3015C33.815 17.5498 32.5705 17.5498 31.7742 18.3015L27.5235 22.5617H27.5231L26.0999 21.1387V21.1383L27.5134 19.725C28.2955 18.9413 28.2955 17.6723 27.5134 16.8886L26.2707 15.6457L26.2686 15.644L36.6254 15.099L36.6262 15.1044ZM3.4232 11.2252L11.2227 3.42685L12.6362 4.84018L4.83673 12.6385L3.4232 11.2252ZM6.25026 14.0518L14.0497 6.2535L15.4733 7.67692L7.67389 15.4752L6.25026 14.0518ZM10.5005 18.3115L9.08742 16.8982V16.8886L16.8869 9.09026L18.3101 10.5133L10.5106 18.3116L10.5005 18.3115ZM11.9242 19.7249L19.7236 11.9266L21.1472 13.35L13.3478 21.1483L11.9242 19.7249ZM14.7613 22.5616L22.5608 14.7633L23.9743 16.1766L16.1748 23.9749L14.7613 22.5616ZM22.5596 24.6869H22.5609L24.6864 22.5616L24.6868 22.5608L26.1004 23.9745L23.9744 26.0998L23.974 26.1006L22.5596 24.6869ZM33.899 36.0235L33.8998 36.0231L36.025 33.8983L37.4486 35.3213L35.323 37.4465L35.3226 37.4474L33.899 36.0235ZM36.025 43.8214L43.8244 36.0231L45.2481 37.4465L37.4486 45.2448L36.025 43.8214ZM38.8622 46.6582L46.6516 38.8599H46.6617L48.0752 40.2833L40.2858 48.0816L38.8622 46.6582ZM41.6993 49.4949L49.4888 41.6966H49.4989L50.912 43.1095V43.1196L43.1125 50.9079L41.6993 49.4949ZM47.3732 55.168L55.1727 47.3697L56.5862 48.783L48.7867 56.5813L47.3732 55.168Z" fill="#FED56C"/>
<path d="M25.5702 43.2497H25.5602L24.4273 42.117H24.4172L17.881 35.5818H17.871L17.0389 34.7398L16.9185 34.6295L16.8984 34.6093L16.8182 34.5191L16.7784 34.4789L16.3773 34.0879L14.4824 37.8669L15.4449 38.8394L15.9761 39.3705L17.2692 40.6638L17.4098 40.8039L22.1216 45.5151L25.9309 43.6105L25.5702 43.2497Z" fill="#FED56C"/>
<path d="M19.7235 45.9466L14.0496 40.2735C14.0395 40.2634 14.0395 40.2634 14.0395 40.2534H14.0294C14.0194 40.2433 14.0194 40.2332 13.9992 40.2232L14.0294 40.2534C14.0194 40.2433 14.0093 40.2232 13.9992 40.2131C13.9891 40.203 13.9791 40.1833 13.9594 40.1733V40.1833L13.0669 39.291L9.27734 41.1856L10.4505 42.3485L10.5004 42.3984C10.5105 42.4084 10.5206 42.4286 10.5306 42.4387L10.7715 42.679L17.3176 49.2146L17.5283 49.4348C17.5505 49.4487 17.5706 49.4655 17.5883 49.4852L17.5983 49.4953C17.6084 49.5049 17.6084 49.5049 17.6084 49.515L18.8113 50.708L20.7062 46.929L19.7235 45.9466Z" fill="#FED56C"/>
<path d="M16.8164 51.5508L16.9066 51.641C16.8772 51.6158 16.8533 51.5852 16.8365 51.5508H16.8164Z" fill="#FED56C"/>
<path d="M9.88879 44.6229L8.44507 43.1797C7.71082 44.1903 7.31769 45.4086 7.32231 46.6579C7.32734 49.9771 10.0177 52.667 13.3373 52.6721C14.5869 52.6767 15.8053 52.2836 16.8161 51.5494L15.3727 50.1059L9.88879 44.6229Z" fill="#FED56C"/>
</svg>
