<svg width="63" height="49" viewBox="0 0 63 49" fill="none" xmlns="http://www.w3.org/2000/svg">
<path d="M45.2188 21.5137H58.0177V22.345C58.0177 22.345 53.733 22.7143 53.6589 26.833C52.9757 26.833 45.2743 27.1281 45.2188 27.1467V21.5137Z" fill="#414141"/>
<path d="M45.2176 21.736C49.484 21.736 53.7501 21.736 58.0165 21.736C57.9424 21.6618 57.8691 21.5887 57.795 21.5144C57.795 21.7916 57.795 22.0685 57.795 22.3458C57.8691 22.2717 57.9424 22.1976 58.0165 22.1238C57.2132 22.1968 56.4112 22.4839 55.7134 22.8764C54.2481 23.7002 53.4879 25.1799 53.4361 26.8338C53.5103 26.7599 53.5842 26.6859 53.6577 26.612C52.1541 26.617 50.6467 26.7071 49.1452 26.7642C48.2445 26.7981 47.343 26.833 46.4434 26.87C46.0224 26.8867 45.5757 26.8645 45.1591 26.934C45.2533 27.0048 45.3466 27.0759 45.4392 27.1475C45.4392 25.2701 45.4392 23.3923 45.4392 21.5146C45.4392 21.2291 44.9961 21.2291 44.9961 21.5146C44.9961 23.3924 44.9961 25.2701 44.9961 27.1475C44.9961 27.3029 45.1374 27.3841 45.2764 27.361C45.166 27.3798 45.3002 27.3632 45.3264 27.3614C45.4221 27.3569 45.5172 27.3525 45.6129 27.3481C45.9184 27.3343 46.2232 27.322 46.5281 27.3093C47.4389 27.2718 48.3496 27.2374 49.26 27.2032C50.7241 27.1475 52.1922 27.0604 53.6577 27.0554C53.7817 27.0546 53.8754 26.9545 53.8799 26.8338C53.9269 25.274 54.6516 23.9815 56.017 23.2144C56.6096 22.8814 57.3661 22.6259 58.0167 22.5674C58.1379 22.5566 58.2383 22.4746 58.2383 22.3458C58.2383 22.0687 58.2383 21.7916 58.2383 21.5144C58.2383 21.3938 58.1379 21.293 58.0167 21.293C53.7504 21.293 49.4843 21.293 45.2177 21.293C44.932 21.293 44.932 21.736 45.2176 21.736Z" fill="#414141"/>
<path d="M39.3187 13.3059H45.3571C45.6025 13.3059 45.8008 13.1076 45.8008 12.8622V5.85027C45.8008 5.60532 45.6049 5.43711 45.3624 5.47376L39.3134 6.39405C39.0711 6.43101 38.875 6.65951 38.875 6.90415V12.8622C38.875 13.1076 39.0733 13.3059 39.3187 13.3059Z" fill="#FED56C"/>
<path d="M51.9373 21.462H46.582V4.50781L51.9373 4.91376V21.462Z" fill="#414141"/>
<path d="M51.9359 21.2944C50.1516 21.2944 48.3658 21.2944 46.5807 21.2944C46.6355 21.3495 46.6919 21.4048 46.7475 21.4604C46.7475 16.072 46.7475 10.6844 46.7475 5.29655C46.7475 5.03265 46.7475 4.76938 46.7475 4.50626C46.6919 4.56155 46.6355 4.61714 46.5807 4.67227C48.3658 4.80806 50.1517 4.94307 51.9359 5.07854C51.8811 5.02341 51.8263 4.96781 51.7709 4.91221C51.7709 10.2397 51.7709 15.566 51.7709 20.8932C51.7709 21.0822 51.7709 21.2714 51.7709 21.4604C51.7709 21.675 52.1027 21.675 52.1027 21.4604C52.1027 16.1337 52.1027 10.807 52.1027 5.47948C52.1027 5.29076 52.1027 5.10125 52.1027 4.91221C52.1027 4.81652 52.0269 4.75278 51.9359 4.7462C50.1516 4.61072 48.3658 4.47541 46.5807 4.34024C46.4913 4.3332 46.4141 4.42043 46.4141 4.5061C46.4141 9.89422 46.4141 15.2823 46.4141 20.67C46.4141 20.9336 46.4141 21.1968 46.4141 21.4603C46.4141 21.5513 46.4897 21.6266 46.5807 21.6266C48.3658 21.6266 50.1517 21.6266 51.9359 21.6266C52.1513 21.6268 52.1513 21.2944 51.9359 21.2944Z" fill="#414141"/>
<path d="M50.5501 20.6089H47.9731C47.6065 20.6089 47.3086 20.3113 47.3086 19.9441V6.13182C47.3086 5.76534 47.6051 5.48969 47.9717 5.51757L50.5525 5.71318C50.9183 5.74106 51.2153 6.06166 51.2153 6.42814V19.9441C51.2153 20.3113 50.9182 20.6089 50.5501 20.6089Z" fill="#FED56C"/>
<path d="M51.9395 21.4584V4.91016L55.8977 7.03358C56.2212 7.20727 56.4836 7.64595 56.4836 8.01291V21.4582L51.9395 21.4584Z" fill="#414141"/>
<path d="M52.1092 21.4583C52.1092 16.1316 52.1092 10.8048 52.1092 5.47733C52.1092 5.2886 52.1092 5.0991 52.1092 4.91006C52.0257 4.95783 51.9424 5.0056 51.8591 5.05368C53.0652 5.70113 54.2715 6.34797 55.4771 6.99511C55.9377 7.24256 56.3199 7.54421 56.3199 8.12933C56.3199 8.51978 56.3199 8.91023 56.3199 9.30052C56.3199 12.5901 56.3199 15.8794 56.3199 19.169C56.3199 19.9328 56.3199 20.6952 56.3199 21.4584C56.3753 21.4028 56.4311 21.3475 56.4865 21.2924C54.9723 21.2924 53.4572 21.2924 51.9423 21.2924C51.7286 21.2924 51.7286 21.6248 51.9423 21.6248C53.4572 21.6248 54.9723 21.6248 56.4865 21.6248C56.5767 21.6248 56.6518 21.5496 56.6518 21.4584C56.6518 18.9062 56.6518 16.3544 56.6518 13.8017C56.6518 12.257 56.6518 10.712 56.6518 9.16724C56.6518 8.31837 56.806 7.33121 55.9092 6.84977C54.6151 6.1558 53.321 5.4612 52.0275 4.7666C51.917 4.70802 51.7773 4.78085 51.7773 4.91021C51.7773 10.2377 51.7773 15.564 51.7773 20.8912C51.7773 21.0802 51.7773 21.2694 51.7773 21.4584C51.7773 21.6728 52.1092 21.6728 52.1092 21.4583Z" fill="#414141"/>
<path d="M46.5817 21.462V4.50781L38.7436 5.7003C38.3801 5.75574 38.0859 6.09842 38.0859 6.46585V21.4621H46.5817V21.462Z" fill="#FED56C"/>
<path d="M46.749 21.459C46.749 16.0706 46.749 10.683 46.749 5.29516C46.749 5.03126 46.749 4.76798 46.749 4.50487C46.749 4.38725 46.6433 4.32851 46.5384 4.34433C43.9661 4.73572 41.3946 5.12742 38.8228 5.51881C37.822 5.6712 37.9206 6.58146 37.9206 7.34011C37.9206 8.75093 37.9206 10.162 37.9206 11.5725C37.9206 14.8683 37.9206 18.1638 37.9206 21.4592C37.9206 21.5502 37.9954 21.6255 38.0865 21.6255C40.9189 21.6255 43.7507 21.6255 46.5822 21.6255C46.7968 21.6255 46.7968 21.2932 46.5822 21.2932C43.7507 21.2932 40.9189 21.2932 38.0865 21.2932C38.1423 21.3483 38.1979 21.4036 38.2525 21.4592C38.2525 16.4659 38.2525 11.4729 38.2525 6.47997C38.2525 5.78835 39.1593 5.80166 39.6317 5.72977C40.5477 5.59023 41.4646 5.45084 42.3816 5.31082C43.7963 5.09594 45.2117 4.88043 46.6264 4.66524C46.557 4.61168 46.4859 4.55843 46.4156 4.50502C46.4156 9.89314 46.4156 15.2813 46.4156 20.6689C46.4156 20.9325 46.4156 21.1958 46.4156 21.4592C46.4156 21.6736 46.749 21.6736 46.749 21.459Z" fill="#414141"/>
<path d="M29.6818 10.5994C29.2125 10.1756 28.5882 10.1024 28.2881 10.4349L18.5117 21.2658L20.212 22.8002L29.9876 11.9693C30.2884 11.6363 30.1514 11.0222 29.6818 10.5994Z" fill="#FED56C"/>
<path d="M29.801 10.4824C29.321 10.0928 28.604 9.84 28.125 10.3702C27.8989 10.6203 27.6735 10.8702 27.4478 11.1207C26.4511 12.2247 25.4549 13.3283 24.4585 14.4319C22.4909 16.6121 20.5233 18.7921 18.5555 20.9719C18.5025 21.0314 18.449 21.09 18.3958 21.1486C18.3375 21.2136 18.3259 21.3212 18.3958 21.384C18.9623 21.8956 19.5288 22.4068 20.0956 22.9187C20.1601 22.9769 20.268 22.9885 20.3311 22.9187C21.985 21.0861 23.6389 19.2538 25.2928 17.4209C26.4156 16.1769 27.5385 14.9327 28.6619 13.6886C29.1736 13.1213 29.7525 12.575 30.2043 11.9561C30.5485 11.4853 30.1341 10.8156 29.801 10.4824C29.6494 10.3308 29.4148 10.5658 29.5659 10.7175C29.856 11.0081 30.1759 11.5155 29.8356 11.8922C29.755 11.9825 29.6735 12.072 29.5925 12.162C29.2572 12.5337 28.9224 12.9052 28.5866 13.2768C27.4842 14.4981 26.382 15.7191 25.2801 16.9406C23.554 18.8522 21.8282 20.7642 20.1026 22.6762C20.1 22.679 20.0979 22.6817 20.0956 22.6844C20.174 22.6844 20.2528 22.6844 20.3311 22.6844C19.7642 22.1722 19.1977 21.6606 18.6306 21.1489C18.6306 21.228 18.6306 21.3063 18.6306 21.3843C20.2848 19.5517 21.9391 17.7194 23.5927 15.887C24.7159 14.6428 25.8389 13.3984 26.9618 12.1547C27.3219 11.7556 27.6818 11.3567 28.0414 10.9579C28.2795 10.694 28.4589 10.4027 28.8547 10.3951C29.1167 10.3896 29.3739 10.5617 29.5659 10.7175C29.7307 10.8514 29.9676 10.6175 29.801 10.4824Z" fill="#414141"/>
<path d="M20.2146 22.8055C19.9145 23.1385 19.2901 23.0647 18.8209 22.6414C18.3516 22.218 18.2141 21.6038 18.5148 21.2711C18.8154 20.9382 19.4398 21.0118 19.9095 21.4346C20.3786 21.8589 20.5155 22.4729 20.2146 22.8055Z" fill="#FED56C"/>
<path d="M20.0978 22.687C19.4685 23.2972 18.0867 22.0746 18.6326 21.3871C19.1734 20.7072 20.6447 21.9982 20.0978 22.687C19.9662 22.8525 20.1997 23.0895 20.3329 22.9218C21.149 21.894 19.3405 20.2394 18.398 21.1517C17.9477 21.5877 18.2873 22.3121 18.6284 22.6856C19.0436 23.1398 19.8431 23.3963 20.3329 22.9218C20.4868 22.7719 20.2517 22.5374 20.0978 22.687Z" fill="#414141"/>
<path d="M19.5396 21.837C19.354 21.6691 19.1074 21.6406 18.9886 21.7717L8.05078 33.8901L8.7222 34.4967L19.6604 22.3784C19.7792 22.247 19.7252 22.0041 19.5396 21.837Z" fill="#FED56C"/>
<path d="M19.6251 21.6923C18.9252 21.1919 18.3374 22.2464 17.9275 22.7006C16.9208 23.8149 15.9145 24.9305 14.9084 26.0454C12.7792 28.4046 10.6495 30.764 8.5203 33.1233C8.32499 33.3393 8.12969 33.5556 7.93486 33.7716C7.8766 33.8361 7.86501 33.9438 7.93486 34.0066C8.15867 34.2087 8.38279 34.411 8.60675 34.6127C8.67159 34.6713 8.77887 34.6823 8.84183 34.6127C12.395 30.676 15.949 26.7391 19.5026 22.8021C19.8174 22.4523 20.0602 22.1734 19.6593 21.7179C19.5177 21.5568 19.2831 21.793 19.4243 21.9535C19.7042 22.2707 19.3564 22.4681 19.1565 22.6893C18.8107 23.0728 18.4647 23.4559 18.1184 23.8396C17.03 25.0456 15.9413 26.2516 14.8531 27.4577C12.8635 29.6617 10.8739 31.8658 8.88427 34.0702C8.79203 34.1728 8.69947 34.2755 8.60691 34.3783C8.68521 34.3783 8.76368 34.3783 8.84199 34.3783C8.61803 34.1759 8.39438 33.9737 8.1701 33.7716C8.1701 33.8496 8.1701 33.9283 8.1701 34.0066C11.7238 30.0697 15.2772 26.1327 18.8306 22.1955C19.0201 21.9859 19.1177 21.7358 19.458 21.9789C19.6325 22.104 19.7985 21.8154 19.6251 21.6923Z" fill="#414141"/>
<path d="M20.6055 21.4587C20.6055 21.4587 20.7375 21.3 20.9677 21.0226C21.2012 20.7487 21.5289 20.3504 21.9341 19.8843C22.3395 19.4178 22.805 18.8671 23.3178 18.2895C23.8299 17.7114 24.3756 17.0944 24.922 16.4778C25.4756 15.8673 26.0291 15.2575 26.548 14.6853C27.0659 14.113 27.5629 13.5905 27.9825 13.1363C28.4019 12.6829 28.7615 12.3139 29.0093 12.0516C29.2597 11.7922 29.4031 11.6445 29.4031 11.6445C29.4031 11.6445 29.2721 11.8027 29.0412 12.0806C28.8074 12.3549 28.48 12.7532 28.075 13.2193C27.6691 13.6854 27.2041 14.2366 26.6913 14.8138C26.1792 15.3919 25.6332 16.0085 25.0871 16.6256C24.5333 17.2356 23.9801 17.8461 23.4606 18.4176C22.9419 18.9899 22.4457 19.5132 22.0261 19.9669C21.6067 20.4203 21.2467 20.789 20.9998 21.0516C20.7491 21.3103 20.6055 21.4587 20.6055 21.4587Z" fill="#414141"/>
<path d="M43.6661 33.3878H29.9805C29.1238 33.3878 28.4297 32.6935 28.4297 31.8367V15.4737C28.4297 14.6162 28.5443 13.9216 29.4013 13.9216H43.6662C44.5229 13.9216 45.2175 14.6162 45.2175 15.4737V31.8367C45.2174 32.6935 44.5228 33.3878 43.6661 33.3878Z" fill="#414141"/>
<path d="M43.6632 33.168C41.1249 33.168 38.5866 33.168 36.0491 33.168C34.4724 33.168 32.8953 33.168 31.3179 33.168C30.2856 33.168 28.648 33.3617 28.648 31.8289C28.648 26.4906 28.648 21.1524 28.648 15.8141C28.648 15.4058 28.6337 14.993 28.7423 14.5955C28.8826 14.0854 29.4106 14.1455 29.8218 14.1455C31.0906 14.1455 32.3606 14.1455 33.63 14.1455C36.773 14.1455 39.9187 14.1455 43.0621 14.1455C43.3386 14.1455 43.6249 14.1258 43.8988 14.1651C44.6737 14.2766 44.9931 14.997 44.9931 15.689C44.9931 16.7466 44.9931 17.8039 44.9931 18.862C44.9931 22.2931 44.9931 25.7246 44.9931 29.1564C44.9931 29.8865 44.9931 30.6174 44.9931 31.3482C44.9931 31.4995 44.9931 31.6511 44.9931 31.8027C44.9929 32.5675 44.4142 33.1324 43.6632 33.168C43.3785 33.1816 43.3771 33.6248 43.6632 33.6113C44.6304 33.5656 45.436 32.8353 45.436 31.8344C45.436 31.6128 45.436 31.3922 45.436 31.1709C45.436 29.8799 45.436 28.5892 45.436 27.2979C45.436 23.9385 45.436 20.579 45.436 17.2194C45.436 16.4774 45.5657 15.5624 45.3193 14.8451C44.9019 13.6277 43.6563 13.7018 42.6267 13.7018C39.3639 13.7018 36.1008 13.7018 32.8378 13.7018C31.7435 13.7018 30.6494 13.7018 29.5559 13.7018C28.3451 13.7018 28.2051 14.6741 28.2051 15.6891C28.2051 18.4921 28.2051 21.2956 28.2051 24.0985C28.2051 26.6628 28.2051 29.2265 28.2051 31.7904C28.2051 32.5197 28.6353 33.25 29.3484 33.4944C29.7077 33.6179 30.0488 33.6113 30.4189 33.6113C31.7241 33.6113 33.0289 33.6113 34.3345 33.6113C37.444 33.6113 40.5533 33.6113 43.6634 33.6113C43.9488 33.6113 43.9488 33.168 43.6632 33.168Z" fill="#414141"/>
<path d="M30.8505 26.7247V15.4779C30.8505 14.6204 30.1554 13.9258 29.2984 13.9258H23.6102C22.753 13.9258 22.0586 14.6204 22.0586 15.4779V25.7629L30.8505 26.7247Z" fill="#FED56C"/>
<path d="M31.0725 26.7246C31.0725 24.0134 31.0725 21.3022 31.0725 18.591C31.0725 17.5576 31.0725 16.5238 31.0725 15.4901C31.0725 14.6018 30.3644 13.7553 29.4486 13.7116C28.9717 13.6889 28.492 13.7044 28.0146 13.7044C26.5609 13.7044 25.1074 13.7044 23.6543 13.7044C22.7307 13.7044 21.9833 14.3592 21.8525 15.2695C21.8082 15.5782 21.8378 15.9085 21.8378 16.219C21.8378 19.261 21.8378 22.3033 21.8378 25.3448C21.8378 25.4845 21.8378 25.6235 21.8378 25.763C21.8378 25.8939 21.9391 25.9719 22.0589 25.9846C24.9896 26.3054 27.9201 26.6257 30.8508 26.9462C31.1342 26.9771 31.131 26.5337 30.8508 26.5024C27.9201 26.1823 24.9896 25.862 22.0589 25.5417C22.133 25.6153 22.2071 25.6894 22.2807 25.763C22.2807 23.015 22.2807 20.2654 22.2807 17.5165C22.2807 16.3908 21.9241 14.518 23.3742 14.1678C23.8403 14.0555 24.4239 14.1482 24.8947 14.1482C25.7711 14.1482 26.6482 14.1482 27.5247 14.1482C28.6865 14.1482 30.6289 13.8403 30.6289 15.5667C30.6289 16.6762 30.6289 17.7857 30.6289 18.8947C30.6289 21.5047 30.6289 24.1149 30.6289 26.7249C30.6292 27.0103 31.0725 27.0103 31.0725 26.7246Z" fill="#414141"/>
<path d="M29.9046 26.5915V15.9752C29.9046 15.285 29.3417 14.7246 28.6464 14.7246H24.0335C23.3389 14.7246 22.7754 15.285 22.7754 15.9752V25.8167L29.9046 26.5915Z" fill="#FED56C"/>
<path d="M30.0144 26.7147L22.6641 25.9153V15.9748C22.6641 15.2242 23.278 14.6133 24.0329 14.6133H28.6458C29.4005 14.6133 30.0146 15.2241 30.0146 15.9748L30.0144 26.7147ZM22.8857 25.7165L29.793 26.4675V15.9746C29.793 15.3463 29.2787 14.8347 28.6458 14.8347H24.0329C23.4005 14.8347 22.8857 15.3464 22.8857 15.9746V25.7165Z" fill="#414141"/>
<path d="M35.9308 39.5679C36.0269 39.588 36.1236 39.6105 36.2199 39.632C36.4995 39.6952 36.6168 39.2669 36.3389 39.205C36.2425 39.1828 36.1444 39.1612 36.0479 39.1403C35.9291 39.1158 35.8088 39.1734 35.7748 39.2946C35.7446 39.406 35.8118 39.5433 35.9308 39.5679Z" fill="#414141"/>
<path d="M50.6851 24.5352C50.2243 24.5352 37.0725 26.9956 37.0725 26.9956C35.7143 27.1878 34.5151 27.924 33.6529 28.992C32.7928 30.0602 32.2695 31.4606 32.2695 32.979C32.2695 35.8002 34.302 39.6022 36.4937 39.8577L43.7446 40.486C42.8354 40.1379 40.7441 39.1888 40.115 38.4264L51.7371 34.5743C52.1166 34.4594 52.42 34.3574 52.7365 34.2024C53.5382 33.8057 54.2222 33.1405 54.7028 32.3032C55.1861 31.4633 55.4677 30.4504 55.4677 29.3579C55.4677 28.0544 55.0665 26.862 54.3988 25.9468L56.6341 25.4791C57.0167 25.3865 57.8309 25.2576 58.3858 25.2866C53.3802 24.6525 51.2074 24.5352 50.6851 24.5352Z" fill="#FED56C"/>
<path d="M50.6863 24.3145C49.8004 24.3374 48.8688 24.6066 48 24.7614C46.2555 25.0732 44.512 25.3927 42.7695 25.7145C41.232 25.9979 39.694 26.2826 38.1582 26.5689C36.8533 26.812 35.6121 27.0273 34.5101 27.8517C32.3024 29.5027 31.6758 32.3957 32.325 34.9647C32.8138 36.9035 34.1428 39.6269 36.327 40.0554C37.5007 40.287 38.7663 40.2762 39.9558 40.3794C41.2177 40.4891 42.4802 40.5981 43.7436 40.7077C43.7443 40.7077 43.7443 40.7077 43.746 40.7077C44.0138 40.7307 44.0199 40.3572 43.8047 40.2723C42.6237 39.8147 41.1273 39.2438 40.2739 38.2712C40.2404 38.3938 40.2083 38.518 40.1759 38.6418C42.6995 37.805 45.2238 36.9685 47.7468 36.1318C48.9964 35.7176 50.2452 35.3038 51.4945 34.8892C52.0596 34.7024 52.6246 34.5315 53.1454 34.2338C54.3169 33.5627 55.081 32.3373 55.4577 31.0716C55.9792 29.3188 55.6398 27.3254 54.5918 25.8362C54.547 25.9445 54.5037 26.0525 54.4597 26.1614C55.7279 25.8954 57.0846 25.4723 58.3872 25.5092C58.6806 25.517 58.6621 25.1006 58.3872 25.0655C55.8527 24.7459 53.25 24.3222 50.6863 24.3145C50.4008 24.3139 50.4008 24.7568 50.6863 24.7579C53.25 24.7656 55.8525 25.1891 58.3869 25.5092C58.3869 25.3611 58.3869 25.2135 58.3869 25.0655C57.0417 25.0276 55.6502 25.4599 54.3413 25.7343C54.2085 25.7617 54.1293 25.9454 54.2085 26.0596C56.1017 28.7492 55.3462 33.093 52.037 34.2488C51.1393 34.5612 50.2286 34.8428 49.3264 35.1417C46.3635 36.124 43.4 37.1058 40.4381 38.0883C40.3106 38.1299 40.1847 38.1722 40.0573 38.214C39.8938 38.2681 39.8473 38.4563 39.9601 38.5844C40.8702 39.6209 42.4299 40.2122 43.6869 40.6997C43.7064 40.5547 43.7256 40.4095 43.7457 40.2653C42.5187 40.1581 41.2915 40.0518 40.0659 39.9461C38.841 39.8402 37.5438 39.8447 36.3353 39.607C35.1729 39.3794 34.3193 38.218 33.7522 37.2698C33.0595 36.1091 32.6141 34.7581 32.5081 33.4103C32.2745 30.4502 34.2362 27.7517 37.151 27.2065C39.3923 26.7874 41.6334 26.3723 43.8761 25.9593C45.3772 25.6838 46.8783 25.4098 48.3809 25.1421C49.1195 25.0099 49.9623 24.7762 50.6863 24.7581C50.9725 24.7506 50.9725 24.3073 50.6863 24.3145Z" fill="#414141"/>
<path d="M33.7752 16.5156L33.6094 25.6074L33.4434 16.5156H33.7752Z" fill="#FED56C"/>
<path d="M34.4746 16.5159H34.7929L34.6337 25.439L34.4746 16.5159Z" fill="#FED56C"/>
<path d="M35.5078 16.5156H35.8118L35.6599 25.2707L35.5078 16.5156Z" fill="#FED56C"/>
<path d="M36.5391 16.5156H36.8293L36.6844 25.1023L36.5391 16.5156Z" fill="#FED56C"/>
<path d="M37.5703 16.5156H37.848L37.7094 24.9337L37.5703 16.5156Z" fill="#FED56C"/>
<path d="M38.6035 16.5156H38.8666L38.7352 24.7656L38.6035 16.5156Z" fill="#FED56C"/>
<path d="M39.6367 16.5156H39.8859L39.7617 24.5972L39.6367 16.5156Z" fill="#FED56C"/>
<path d="M40.666 16.5156H40.9022L40.7841 24.4294L40.666 16.5156Z" fill="#FED56C"/>
<path d="M41.9186 16.5156L41.8075 24.2608L41.6973 16.5156H41.9186Z" fill="#FED56C"/>
<path d="M32.2695 16.5137C32.2695 16.5137 32.4377 16.5057 32.7326 16.4913C33.0271 16.4821 33.4476 16.4597 33.9524 16.4489C34.4572 16.4393 35.0451 16.4185 35.6772 16.4138C36.3078 16.4088 36.9807 16.4038 37.6539 16.3984C38.3267 16.4034 38.9997 16.4085 39.631 16.4138C40.2614 16.4172 40.8514 16.4393 41.3551 16.4486C41.8606 16.4594 42.2805 16.4821 42.5754 16.491C42.8694 16.5057 43.0378 16.5137 43.0378 16.5137C43.0378 16.5137 42.8694 16.5219 42.5754 16.5361C42.2805 16.5453 41.8606 16.5685 41.3551 16.5789C40.8514 16.5881 40.2616 16.6107 39.631 16.6141C38.9997 16.619 38.3267 16.624 37.6539 16.6291C36.9807 16.6241 36.3078 16.6191 35.6772 16.6141C35.0453 16.6094 34.4572 16.5881 33.9524 16.5785C33.4476 16.5682 33.0271 16.5453 32.7326 16.5361C32.4377 16.5219 32.2695 16.5137 32.2695 16.5137Z" fill="#FED56C"/>
<path d="M42.3958 40.3447C42.9246 40.463 43.4524 40.5889 43.9825 40.7006C44.2611 40.7601 44.3802 40.3325 44.1009 40.273C43.5706 40.1602 43.0425 40.0353 42.5131 39.9165C42.2353 39.8531 42.1163 40.2816 42.3958 40.3447Z" fill="#414141"/>
<path d="M58.7895 25.1319C58.6585 25.1104 58.5156 25.0664 58.3828 25.0664C58.0964 25.0664 58.0964 25.5101 58.3828 25.5101C58.2832 25.5101 58.348 25.5056 58.3819 25.5109C58.4206 25.5172 58.46 25.524 58.4992 25.5306C58.5573 25.5402 58.6141 25.5499 58.6721 25.5594C58.7902 25.5795 58.9092 25.53 58.9435 25.4049C58.9733 25.2977 58.9086 25.1519 58.7895 25.1319Z" fill="#414141"/>
<path d="M62.0232 30.1931C62.0232 31.3122 61.7346 32.3518 61.2406 33.2113C60.7468 34.0738 60.0459 34.7543 59.224 35.1593C59.224 35.1593 44.9997 40.4862 44.3613 40.4862C44.2333 40.4862 44.1052 40.4817 43.9787 40.4731C43.4463 40.4322 42.9353 40.3149 42.4537 40.129C41.5453 39.7802 40.7444 39.189 40.1152 38.4265C39.2224 37.3429 38.6797 35.916 38.6797 34.3493C38.6797 32.7908 39.2155 31.3568 40.0975 30.2619C40.9796 29.1675 42.2122 28.4113 43.6044 28.2119L54.3991 25.9469L56.6343 25.4793C57.0169 25.3867 57.8437 25.2578 57.9209 25.2578C58.0758 25.2578 58.2296 25.2667 58.3823 25.2869H58.3861L58.7296 25.3443C60.8547 25.7963 62.0232 27.5513 62.0232 30.1931Z" fill="#414141"/>
<path d="M44.3599 40.7058C44.2265 40.7058 44.0931 40.7011 43.961 40.6919C43.4146 40.6509 42.8807 40.5314 42.3722 40.3345C41.4451 39.9795 40.6047 39.3683 39.9441 38.5671C38.9839 37.4028 38.457 35.905 38.457 34.3481C38.457 32.7973 38.9778 31.2966 39.9241 30.1219C40.8686 28.9501 42.1637 28.1934 43.5714 27.9918L56.5865 25.2612C56.9539 25.1722 57.8035 25.0352 57.9194 25.0352C58.0862 25.0352 58.2421 25.0444 58.3948 25.0638L58.4217 25.0668L58.7652 25.1249C60.9793 25.5955 62.2435 27.4419 62.2435 30.1923C62.2435 31.3157 61.9635 32.3973 61.4316 33.3215C60.9115 34.2292 60.1815 34.9335 59.3207 35.358C56.9191 36.2581 45.006 40.7058 44.3599 40.7058ZM57.9193 25.4781C57.8336 25.4826 57.0518 25.6045 56.6843 25.6934L43.6478 28.4278C42.3372 28.6161 41.1426 29.3154 40.2697 30.3999C39.3869 31.4961 38.8999 32.8978 38.8999 34.3481C38.8999 35.8025 39.3916 37.2011 40.2851 38.2847C40.8981 39.0274 41.6752 39.5931 42.5321 39.9209C42.9996 40.1022 43.4913 40.2125 43.9938 40.2498C44.1139 40.2596 44.2351 40.2636 44.357 40.2636C44.925 40.2158 53.5088 37.0617 59.1457 34.9517C59.906 34.5746 60.5713 33.9317 61.048 33.1008C61.5407 32.2439 61.8007 31.2383 61.8007 30.1923C61.8007 27.6331 60.6931 25.9877 58.6828 25.5603L58.3525 25.5055C58.2125 25.4872 58.0712 25.4781 57.9193 25.4781Z" fill="#414141"/>
<path d="M56.7257 21.2895L47.9902 21.837L56.7088 21.0684L56.7257 21.2895Z" fill="#FED56C"/>
<path d="M55.1578 15.9818L53.2657 15.552C52.9068 15.4703 52.6172 15.1068 52.6172 14.7394V6.70989C52.6172 6.34293 52.8797 6.18584 53.2039 6.36031L55.2213 7.44239C55.5445 7.61608 55.807 8.05445 55.807 8.42172V15.4648C55.807 15.8315 55.5168 16.0637 55.1578 15.9818Z" fill="#FED56C"/>
<path d="M51.2153 8.3453V6.42814C51.2153 6.06166 50.9182 5.7409 50.5525 5.71318L47.9717 5.51757C47.6049 5.48969 47.3086 5.76534 47.3086 6.13182V8.25415L47.8766 8.34514V13.9018L47.3086 13.8719V19.9441C47.3086 20.3114 47.6065 20.6089 47.9731 20.6089H50.5501C50.9183 20.6089 51.2153 20.3114 51.2153 19.9441V13.9228L48.9982 13.9328V8.35516L51.2153 8.3453Z" fill="#414141"/>
<path d="M52.6172 13.9258V14.743C52.6172 15.1104 52.9068 15.4739 53.2657 15.5557L55.1578 15.9855C55.5168 16.0674 55.807 15.835 55.807 15.4685V13.9258H52.6172Z" fill="#414141"/>
<path d="M55.2213 7.44425L53.2039 6.36217C52.8797 6.18786 52.6172 6.34495 52.6172 6.71174V8.34636H55.8C55.7675 7.99726 55.5221 7.60603 55.2213 7.44425Z" fill="#414141"/>
<path d="M51.964 15.8926L55.7828 16.8245L51.918 16.1095L51.964 15.8926Z" fill="#FED56C"/>
<path d="M45.357 13.0934H39.3186C39.0124 13.0934 38.7637 12.853 38.7637 12.5573V6.84472C38.7637 6.55294 38.9983 6.28982 39.297 6.2466L45.346 5.36359C45.6602 5.31738 45.9119 5.53649 45.9119 5.83438V12.5572C45.912 12.853 45.6633 13.0934 45.357 13.0934ZM45.4279 5.57909C45.4118 5.57909 45.3956 5.58066 45.3787 5.58301L39.3297 6.46586C39.1428 6.4928 38.9861 6.66649 38.9861 6.84472V12.5573C38.9861 12.731 39.135 12.872 39.3187 12.872H45.3571C45.5408 12.872 45.6898 12.7312 45.6898 12.5573V5.83454C45.6896 5.68716 45.5801 5.57909 45.4279 5.57909Z" fill="#414141"/>
<path d="M45.8014 8.01285V5.85027C45.8014 5.60532 45.6055 5.43711 45.3631 5.47376L39.314 6.39405C39.1474 6.41958 39.0038 6.53688 38.9297 6.68739L41.0033 7.24151L41.0151 13.0638H42.0862L42.0824 7.46077L45.8014 8.01285Z" fill="#414141"/>
<path d="M51.964 16.4062L54.1908 16.9975L51.918 16.6232L51.964 16.4062Z" fill="#FED56C"/>
<path d="M29.4608 25.9151C29.4091 25.9666 29.3632 26.0212 29.3215 26.0759C29.1958 25.9296 29.0448 25.7517 28.8677 25.5487C28.9256 25.4939 28.9839 25.4377 29.0407 25.3807C29.1649 25.2559 29.2854 25.1284 29.3953 25.0067C29.4562 25.0659 29.5126 25.1202 29.5619 25.1696C29.761 25.3598 29.8749 25.4679 29.8749 25.4679C29.8749 25.4679 29.7731 25.3486 29.5936 25.1398C29.546 25.0866 29.4932 25.0256 29.4365 24.9605C29.5264 24.859 29.61 24.7614 29.68 24.6745C29.8448 24.4731 29.9405 24.3241 29.9405 24.3241C29.9405 24.3241 29.7923 24.4203 29.5901 24.5851C29.5059 24.6521 29.4117 24.7337 29.3137 24.8205C29.1829 24.6699 29.0337 24.4994 28.8642 24.3127C29.0316 24.1321 29.1875 23.9572 29.3256 23.7979C29.4229 23.8897 29.5139 23.9746 29.5879 24.0457C29.7894 24.232 29.9051 24.3389 29.9051 24.3389C29.9051 24.3389 29.8009 24.2208 29.6185 24.0156C29.5482 23.9384 29.4637 23.8443 29.3729 23.7432C29.4061 23.7035 29.4432 23.6618 29.4741 23.6252C29.6017 23.475 29.701 23.3434 29.7735 23.2546C29.8094 23.2092 29.8367 23.1728 29.855 23.1481C29.8746 23.1655 29.8874 23.1763 29.8874 23.1763C29.8874 23.1763 29.875 23.1636 29.858 23.1442C29.8738 23.1233 29.883 23.1103 29.883 23.1103C29.883 23.1103 29.8711 23.1201 29.8503 23.1367C29.8064 23.0872 29.7217 22.9938 29.5977 22.8573C29.5289 22.784 29.4464 22.6945 29.3588 22.5981C29.4974 22.4444 29.6103 22.3086 29.696 22.2128C29.7975 22.0955 29.8531 22.0258 29.8531 22.0258C29.8531 22.0258 29.784 22.0815 29.6656 22.1819C29.5707 22.2668 29.4356 22.3786 29.2829 22.5157C29.1659 22.3894 29.0335 22.2474 28.8896 22.0953C28.9865 21.9941 29.0814 21.8962 29.169 21.806C29.2553 21.718 29.3317 21.6361 29.4052 21.5578C29.463 21.6126 29.5175 21.6632 29.566 21.7086C29.7585 21.8842 29.8681 21.9841 29.8681 21.9841C29.8681 21.9841 29.7695 21.8729 29.5966 21.6781C29.5515 21.6291 29.5009 21.5728 29.4465 21.5133C29.5525 21.3991 29.6445 21.298 29.7186 21.2193C29.793 21.1363 29.8465 21.0768 29.8805 21.0388C29.9095 21.0657 29.9289 21.0834 29.9289 21.0834C29.9289 21.0834 29.9118 21.0634 29.8861 21.033C29.9081 21.0087 29.9225 20.9924 29.9225 20.9924C29.9225 20.9924 29.9057 21.0063 29.8807 21.0272C29.8399 20.9785 29.7757 20.9014 29.6839 20.7941C29.5867 20.6823 29.4628 20.5371 29.32 20.3728C29.4605 20.2134 29.5812 20.0726 29.6774 19.9656C29.7488 19.8812 29.8045 19.8164 29.8451 19.7692C29.8814 19.8021 29.9015 19.8198 29.9015 19.8198C29.9015 19.8198 29.8838 19.7993 29.852 19.7608C29.8952 19.7114 29.9181 19.6843 29.9181 19.6843C29.9181 19.6843 29.8923 19.7083 29.8448 19.7515C29.8119 19.7122 29.7673 19.6566 29.7087 19.5858C29.6202 19.4837 29.5068 19.3464 29.3712 19.189C29.4539 19.0994 29.5314 19.0148 29.5966 18.9449C29.7798 18.7421 29.8852 18.6254 29.8852 18.6254C29.8852 18.6254 29.769 18.7312 29.566 18.9149C29.4969 18.9789 29.4144 19.0555 29.3256 19.1363C29.2816 19.0857 29.2362 19.0345 29.1883 18.9797C29.0803 18.8597 28.9644 18.7282 28.8421 18.5899C29.0161 18.412 29.1706 18.2488 29.3063 18.1038C29.4703 18.2488 29.6135 18.3681 29.7142 18.4557C29.8307 18.5537 29.8987 18.6085 29.8987 18.6085C29.8987 18.6085 29.8442 18.5398 29.745 18.4253C29.6559 18.3254 29.5344 18.1818 29.3865 18.0181C29.4691 17.9294 29.5464 17.8472 29.6119 17.7789C29.7994 17.5755 29.9063 17.4594 29.9063 17.4594C29.9063 17.4594 29.7887 17.5644 29.5814 17.7481C29.5123 17.8114 29.429 17.887 29.3399 17.9669C29.3359 17.9626 29.3328 17.9589 29.3286 17.9542C29.1897 17.8005 29.0254 17.6262 28.8525 17.4441C29.0215 17.2651 29.172 17.1008 29.3035 16.9557C29.3352 16.983 29.3688 17.0131 29.3989 17.0386C29.5344 17.157 29.6547 17.2485 29.7353 17.316C29.8175 17.3816 29.8669 17.4167 29.8669 17.4167C29.8669 17.4167 29.8313 17.3677 29.7659 17.2851C29.6987 17.2045 29.6067 17.0845 29.4888 16.9487C29.4614 16.9171 29.4302 16.8815 29.4008 16.8483C29.4733 16.7687 29.5408 16.6939 29.5994 16.6306C29.7842 16.4245 29.8896 16.3064 29.8896 16.3064C29.8896 16.3064 29.7726 16.4137 29.569 16.6005C29.5071 16.6591 29.4348 16.7263 29.3576 16.7988C29.2155 16.6384 29.0531 16.4616 28.8785 16.2787C29.0348 16.1128 29.1721 15.9622 29.2891 15.8361C29.4154 15.9515 29.5394 16.0564 29.6457 16.1366C29.8077 16.2613 29.9298 16.3304 29.9298 16.3304C29.9298 16.3304 29.8611 16.2084 29.7358 16.0463C29.6547 15.9382 29.5469 15.8123 29.4305 15.6843C29.608 15.4882 29.7092 15.3756 29.7092 15.3756C29.7092 15.3756 29.5969 15.4768 29.4016 15.6519C29.3502 15.5971 29.298 15.5424 29.2442 15.4875C29.1082 15.3525 28.9666 15.2247 28.8366 15.1172C28.8448 15.1089 28.8536 15.0986 28.8612 15.0904C29.0236 14.9088 29.1159 14.8052 29.1159 14.8052C29.1159 14.8052 29.0121 14.8979 28.8307 15.0599C28.8215 15.0685 28.8099 15.0788 28.8003 15.0873C28.7608 15.0549 28.7218 15.0237 28.6854 14.9961C28.5233 14.8715 28.402 14.8021 28.402 14.8021C28.402 14.8021 28.4711 14.9239 28.5955 15.0857C28.6219 15.1203 28.6522 15.1578 28.6825 15.1957C28.5513 15.3144 28.3925 15.4596 28.218 15.6229C28.0258 15.4403 27.8423 15.2737 27.6805 15.1337C27.7167 15.0928 27.7516 15.0538 27.7825 15.0198C27.916 14.8669 27.9926 14.7797 27.9926 14.7797C27.9926 14.7797 27.9046 14.8557 27.7518 14.9893C27.7167 15.0214 27.6774 15.0568 27.6352 15.0942C27.6324 15.0914 27.6287 15.0884 27.626 15.0857C27.4897 14.968 27.3701 14.8757 27.2891 14.8082C27.2069 14.7426 27.1576 14.707 27.1576 14.707C27.1576 14.707 27.1929 14.7564 27.2586 14.8391C27.3262 14.9197 27.418 15.0397 27.5361 15.1752C27.5377 15.1767 27.5388 15.178 27.54 15.1794C27.4194 15.2867 27.2817 15.4101 27.1294 15.5537C27.0977 15.5839 27.0634 15.6162 27.0299 15.6472C26.8858 15.5144 26.7471 15.3875 26.6227 15.2771C26.5829 15.2413 26.5455 15.2081 26.5085 15.1756C26.5876 15.0846 26.6572 15.0035 26.7135 14.9395C26.8158 14.8206 26.8717 14.7507 26.8717 14.7507C26.8717 14.7507 26.8019 14.807 26.683 14.9092C26.6186 14.9669 26.5356 15.0373 26.4423 15.1185C26.3256 15.0178 26.2238 14.9324 26.1471 14.8654C26.0313 14.767 25.963 14.7133 25.963 14.7133C25.963 14.7133 26.0175 14.7805 26.1165 14.8958C26.1832 14.9701 26.2686 15.0698 26.3682 15.1828C26.3134 15.2315 26.2567 15.2821 26.1964 15.3376C26.1088 15.4198 26.0124 15.5075 25.912 15.5993C25.8806 15.5692 25.8479 15.5382 25.8178 15.5097C25.6661 15.3661 25.53 15.2434 25.4124 15.1385C25.5041 15.0306 25.5787 14.9355 25.6366 14.8677C25.7091 14.7783 25.7481 14.7258 25.7481 14.7258C25.7481 14.7258 25.6954 14.7644 25.6061 14.8369C25.537 14.8954 25.4406 14.9719 25.3306 15.0652C25.2944 15.0323 25.2589 15.0004 25.228 14.9727C25.0828 14.8453 25.0003 14.7728 25.0003 14.7728C25.0003 14.7728 25.072 14.8566 25.1978 15.0027C25.2249 15.0328 25.2554 15.0676 25.2871 15.1031C25.272 15.1161 25.2576 15.1279 25.242 15.1416C25.0938 15.2705 24.9236 15.4237 24.7445 15.5911C24.564 15.4273 24.4003 15.2829 24.2633 15.1625C24.2792 15.1424 24.2968 15.1216 24.3117 15.1031C24.4559 14.9214 24.5381 14.7868 24.5381 14.7868C24.5381 14.7868 24.4031 14.869 24.2221 15.0129C24.2008 15.0292 24.1773 15.0491 24.1553 15.0669C24.1315 15.0453 24.1044 15.0221 24.0824 15.0029C23.8999 14.8445 23.7961 14.7543 23.7961 14.7543C23.7961 14.7543 23.8894 14.8561 24.0531 15.0337C24.072 15.053 24.0947 15.0776 24.1156 15.0994C23.9538 15.233 23.7691 15.3996 23.5915 15.5767C23.5749 15.5932 23.5588 15.6102 23.5422 15.6273C23.5059 15.594 23.468 15.5601 23.4357 15.5308C23.2407 15.3578 23.1289 15.2596 23.1289 15.2596C23.1289 15.2596 23.2296 15.3687 23.4056 15.5617C23.4357 15.593 23.4708 15.6304 23.5048 15.6666C23.3215 15.8561 23.1516 16.0492 23.0282 16.2068C23.0131 16.2262 22.9989 16.2439 22.9854 16.2624C22.8654 16.154 22.799 16.0937 22.799 16.0937C22.799 16.0937 22.86 16.1612 22.9694 16.2824C22.8626 16.424 22.8017 16.5233 22.8017 16.5233C22.8017 16.5233 22.899 16.463 23.0382 16.3581C23.0551 16.377 23.0694 16.3929 23.0885 16.4137C23.1987 16.531 23.3373 16.6831 23.4963 16.8552C23.3945 16.9666 23.2972 17.0743 23.213 17.1713C23.1331 17.2619 23.0656 17.3445 23.007 17.4164C22.8813 17.3045 22.8103 17.2424 22.8103 17.2424C22.8103 17.2424 22.8756 17.3122 22.9906 17.4364C22.9608 17.4731 22.9326 17.507 22.9084 17.5355C22.8363 17.6247 22.7968 17.6771 22.7968 17.6771C22.7968 17.6771 22.8496 17.6381 22.9389 17.5656C22.9666 17.5421 23 17.5147 23.0358 17.4857C23.0586 17.5097 23.0781 17.5312 23.1038 17.559C23.2169 17.6771 23.3596 17.8303 23.5232 18.0035C23.4886 18.0413 23.4534 18.0795 23.4207 18.115C23.2582 18.2901 23.129 18.4441 23.029 18.5584C22.8795 18.433 22.7923 18.3597 22.7923 18.3597C22.7923 18.3597 22.8719 18.4417 23.0084 18.5816C23.0034 18.5879 22.9968 18.5955 22.9915 18.6016C22.8896 18.72 22.8332 18.7904 22.8332 18.7904C22.8332 18.7904 22.903 18.7337 23.0219 18.6317C23.0277 18.6264 23.0351 18.6211 23.0412 18.6153C23.0586 18.6334 23.0737 18.6488 23.0938 18.6691C23.2161 18.7907 23.3724 18.9498 23.5525 19.1304C23.5453 19.1388 23.5367 19.1481 23.5286 19.1559C23.3256 19.3717 23.1602 19.56 23.0301 19.7047C22.8799 19.5789 22.7915 19.5056 22.7915 19.5056C22.7915 19.5056 22.8717 19.5882 23.0092 19.7282C22.9945 19.7446 22.9779 19.7633 22.9644 19.778C22.8305 19.9309 22.7541 20.0181 22.7541 20.0181C22.7541 20.0181 22.8413 19.9424 22.9945 19.809C23.0095 19.7951 23.0277 19.7789 23.044 19.7637C23.0586 19.7796 23.0714 19.7919 23.0875 19.8082C23.2125 19.9332 23.3741 20.098 23.5625 20.2854C23.3707 20.4923 23.2117 20.6706 23.0888 20.8029C23.0653 20.8292 23.0462 20.8508 23.0258 20.8735C22.8633 20.7327 22.7693 20.6513 22.7693 20.6513C22.7693 20.6513 22.8532 20.7439 22.9984 20.9049C22.8938 21.0214 22.8341 21.0878 22.8341 21.0878C22.8341 21.0878 22.9008 21.0284 23.0167 20.9251C23.1459 21.0624 23.317 21.2518 23.5242 21.4699C23.3676 21.6394 23.231 21.7887 23.1229 21.9041C23.0836 21.9473 23.0492 21.9855 23.0175 22.0203C22.9925 21.9977 22.9669 21.9758 22.945 21.9565C22.8158 21.8466 22.7422 21.7833 22.7422 21.7833C22.7422 21.7833 22.805 21.8574 22.9146 21.9866C22.935 22.009 22.9578 22.0353 22.9806 22.0612C22.8938 22.157 22.8432 22.2131 22.8432 22.2131C22.8432 22.2131 22.8991 22.1628 22.9943 22.0768C23.0974 22.1946 23.2255 22.3439 23.3802 22.5105C23.4291 22.5634 23.4802 22.6178 23.5326 22.6753C23.3521 22.8717 23.197 23.0446 23.0755 23.1753C23.0705 23.1815 23.0665 23.1854 23.062 23.1907C23.0022 23.1414 22.9489 23.0978 22.9057 23.0615C22.8114 22.9843 22.7557 22.9423 22.7557 22.9423C22.7557 22.9423 22.7981 22.9982 22.8758 23.092C22.9132 23.1353 22.9575 23.1896 23.0084 23.251C22.8684 23.4078 22.7859 23.4995 22.7859 23.4995C22.7859 23.4995 22.8763 23.4173 23.0302 23.2757C23.0811 23.3368 23.1378 23.4035 23.2015 23.475C23.2849 23.57 23.3807 23.6756 23.4814 23.7844C23.3123 23.9681 23.1665 24.131 23.051 24.2552C23.0468 24.2602 23.0441 24.2634 23.0399 24.2679C22.8952 24.1606 22.7964 24.1 22.7964 24.1C22.7964 24.1 22.862 24.1973 22.9754 24.3401C22.8404 24.4905 22.7613 24.5785 22.7613 24.5785C22.7613 24.5785 22.8481 24.4997 22.9951 24.3647C23.0139 24.3879 23.0341 24.4126 23.0553 24.4382C23.1773 24.5847 23.3373 24.7606 23.5121 24.939C23.3517 25.1125 23.2122 25.2659 23.1015 25.384C23.0856 25.4021 23.0737 25.4144 23.059 25.4311C23.0084 25.391 22.958 25.3552 22.9113 25.3312C22.8337 25.2887 22.7674 25.274 22.7674 25.274C22.7674 25.274 22.7806 25.3404 22.8208 25.4192C22.8451 25.47 22.8828 25.5249 22.9246 25.5796C22.8543 25.6576 22.8127 25.7036 22.8127 25.7036C22.8127 25.7036 22.8587 25.6621 22.9353 25.5927C22.9571 25.6201 22.9782 25.6491 23.003 25.6751C23.082 25.7556 23.1738 25.8234 23.2534 25.8648C23.3312 25.9072 23.3973 25.9221 23.3973 25.9221C23.3973 25.9221 23.3848 25.8549 23.3445 25.7763C23.3055 25.6961 23.2404 25.602 23.1621 25.5205C23.1386 25.4969 23.1123 25.4762 23.0872 25.4548C23.103 25.441 23.1154 25.4297 23.1323 25.4142C23.2504 25.3032 23.4033 25.1641 23.5773 25.0032C23.6142 25.0407 23.6514 25.0778 23.6893 25.1147C23.8575 25.2765 24.0304 25.4302 24.1886 25.5619C24.1848 25.5663 24.1804 25.571 24.1773 25.5747C24.0227 25.7522 23.9342 25.8537 23.9342 25.8537C23.9342 25.8537 24.0338 25.7635 24.2078 25.6046C24.212 25.601 24.2178 25.5951 24.2225 25.5909C24.2805 25.6388 24.3364 25.6834 24.3881 25.7237C24.5879 25.8795 24.7355 25.9703 24.7355 25.9703C24.7355 25.9703 24.6398 25.8267 24.4766 25.632C24.436 25.5833 24.3915 25.5318 24.3438 25.4775C24.4634 25.3664 24.6081 25.2328 24.7666 25.0817C24.924 25.2294 25.0734 25.366 25.2124 25.4892C25.1433 25.5647 25.08 25.6339 25.0266 25.6903C24.8966 25.8349 24.8225 25.9171 24.8225 25.9171C24.8225 25.9171 24.9079 25.8457 25.0568 25.7207C25.1162 25.669 25.1889 25.6064 25.268 25.539C25.2982 25.565 25.3305 25.5949 25.3591 25.6197C25.5149 25.757 25.652 25.8646 25.7447 25.9434C25.8385 26.0197 25.8947 26.0618 25.8947 26.0618C25.8947 26.0618 25.8813 26.0451 25.8573 26.0147C25.8744 26.0007 25.9369 25.9508 26.0379 25.8642C26.1306 25.7818 26.2606 25.6728 26.4092 25.5406C26.6094 25.7263 26.7862 25.875 26.9062 25.9835C26.9471 26.018 26.9803 26.046 27.0091 26.0704C26.9867 26.1005 26.974 26.1182 26.974 26.1182C26.974 26.1182 26.9914 26.1043 27.0208 26.0809C27.0763 26.1276 27.1095 26.1561 27.1095 26.1561C27.1095 26.1561 27.0816 26.1237 27.0352 26.0687C27.0573 26.0515 27.0824 26.0302 27.1145 26.0035C27.2009 25.9281 27.3286 25.8244 27.4741 25.6919C27.5312 25.6413 27.5937 25.5835 27.6562 25.5257C27.6575 25.5266 27.659 25.5281 27.6601 25.5285C27.8605 25.7154 28.0402 25.8728 28.1881 26.0035C28.06 26.1671 27.9864 26.2808 27.9864 26.2808C27.9864 26.2808 28.1021 26.2054 28.2684 26.0743C28.2966 26.0997 28.3264 26.126 28.3507 26.1486C28.5208 26.2955 28.6174 26.3793 28.6174 26.3793C28.6174 26.3793 28.5317 26.2842 28.3815 26.1177C28.3599 26.0949 28.3341 26.0671 28.3103 26.0413C28.3192 26.0339 28.328 26.0274 28.3369 26.02C28.4702 25.9122 28.6276 25.775 28.789 25.6245C28.9832 25.8194 29.1533 25.9849 29.2919 26.1223C29.2714 26.1514 29.249 26.181 29.2337 26.2072C29.1804 26.2964 29.1585 26.3692 29.1585 26.3692C29.1585 26.3692 29.2323 26.3492 29.322 26.2983C29.3499 26.2823 29.3806 26.2602 29.4108 26.2396C29.5875 26.4111 29.6907 26.5104 29.6907 26.5104C29.6907 26.5104 29.5998 26.4026 29.444 26.2176C29.5027 26.1755 29.5624 26.1285 29.6175 26.0745C29.7129 25.9804 29.7958 25.8736 29.8476 25.7837C29.9004 25.6945 29.9223 25.6216 29.9223 25.6216C29.9223 25.6216 29.8482 25.6408 29.758 25.6925C29.6655 25.7417 29.5577 25.8225 29.4608 25.9151ZM29.2564 24.8712C29.1347 24.9808 29.0078 25.1005 28.8843 25.2239C28.8301 25.2787 28.7773 25.3331 28.7248 25.3877C28.7118 25.3728 28.6998 25.3589 28.6858 25.3436C28.5638 25.207 28.4323 25.058 28.2965 24.9049C28.3668 24.8342 28.4374 24.7633 28.5076 24.6906C28.5998 24.5954 28.6912 24.4985 28.781 24.4028C28.9552 24.5779 29.1151 24.7345 29.2564 24.8712ZM27.6287 25.3172C27.4852 25.1685 27.332 25.0078 27.169 24.8393C27.1745 24.8346 27.1792 24.8297 27.1845 24.825C27.3223 24.6953 27.4631 24.5587 27.6055 24.419C27.7547 24.5714 27.9007 24.7201 28.0404 24.8627C27.8943 25.0197 27.7557 25.1735 27.6287 25.3172ZM26.4304 25.3519C26.4251 25.3573 26.4204 25.3631 26.415 25.3689C26.2822 25.2258 26.1391 25.0679 25.9835 24.9011C26.1445 24.7569 26.3156 24.6029 26.4915 24.4392C26.5602 24.5044 26.6299 24.5727 26.6974 24.6355C26.768 24.7035 26.8384 24.7691 26.9081 24.8342C26.7337 25.0201 26.5737 25.1978 26.4304 25.3519ZM25.7954 24.7028C25.6966 24.5984 25.592 24.4911 25.4874 24.3841C25.6225 24.253 25.761 24.1187 25.9034 23.9766C25.9203 23.9595 25.9384 23.941 25.9558 23.9241C26.0889 24.053 26.2202 24.1788 26.351 24.3046C26.1834 24.4729 26.026 24.6356 25.8778 24.7898C25.8501 24.7609 25.8235 24.7323 25.7954 24.7028ZM24.8238 24.8541C24.6875 24.7115 24.5467 24.567 24.4023 24.4231C24.3673 24.388 24.3322 24.3548 24.2969 24.3205C24.4319 24.192 24.5738 24.0579 24.7192 23.9182C24.7616 23.9613 24.8037 24.0037 24.8465 24.0479C24.9727 24.1721 25.0985 24.2967 25.2239 24.4203C25.0841 24.5714 24.9511 24.7169 24.8275 24.8497C24.8261 24.8507 24.8249 24.8523 24.8238 24.8541ZM24.1817 17.5788C24.3162 17.7207 24.4575 17.869 24.6045 18.0217C24.517 18.1121 24.4275 18.2035 24.3427 18.292C24.2831 18.3537 24.2249 18.4139 24.1674 18.4748C24.1018 18.4137 24.0358 18.3522 23.9741 18.2942C23.8753 18.2016 23.782 18.116 23.6921 18.0334C23.844 17.8948 24.01 17.7438 24.1798 17.5807C24.1804 17.5803 24.1812 17.5791 24.1817 17.5788ZM24.7998 15.816C24.9287 15.9478 25.0645 16.087 25.2089 16.2344C25.2142 16.2394 25.2189 16.2452 25.2239 16.2505C25.0753 16.3952 24.9253 16.5431 24.7743 16.692C24.7624 16.7041 24.7508 16.716 24.7389 16.7283C24.5864 16.586 24.4416 16.4521 24.3052 16.3243C24.3206 16.3091 24.3356 16.2945 24.351 16.2795C24.5057 16.1244 24.6562 15.9681 24.7998 15.816ZM28.4343 16.1402C28.5049 16.2104 28.5756 16.2796 28.647 16.3487C28.628 16.3664 28.6106 16.3817 28.5919 16.4004C28.4691 16.5169 28.3355 16.6427 28.1981 16.7723C28.1353 16.7088 28.0731 16.6453 28.0092 16.5817C27.9156 16.4898 27.8215 16.398 27.7276 16.3077C27.8789 16.1471 28.0216 15.9955 28.1555 15.855C28.2473 15.9496 28.3399 16.0453 28.4343 16.1402ZM27.8528 16.7387C27.9153 16.8005 27.9778 16.8602 28.0404 16.9211C27.9139 17.0408 27.7826 17.1658 27.6495 17.294C27.6177 17.2599 27.5867 17.2269 27.5549 17.1929C27.4396 17.0779 27.3242 16.9636 27.2095 16.8491C27.3375 16.7178 27.4597 16.5897 27.5792 16.4643C27.6698 16.5554 27.7607 16.6474 27.8528 16.7387ZM28.2969 18.2757C28.413 18.393 28.5262 18.5056 28.6362 18.6137C28.4846 18.7561 28.3233 18.9055 28.153 19.0644C28.1306 19.0394 28.1082 19.0146 28.085 18.9893C27.9751 18.867 27.8584 18.7404 27.7431 18.6153C27.8955 18.459 28.0402 18.3061 28.181 18.1568C28.2194 18.1958 28.2595 18.2375 28.2969 18.2757ZM28.9364 20.1263C29.024 20.2143 29.1059 20.2945 29.1854 20.3717C29.1079 20.4458 29.0273 20.5233 28.9422 20.6079C28.8871 20.6619 28.8283 20.7194 28.7696 20.7766C28.6296 20.6272 28.4814 20.4684 28.3248 20.3008C28.459 20.1597 28.5856 20.0253 28.7079 19.8972C28.7875 19.976 28.8637 20.0522 28.9364 20.1263ZM28.1828 21.3531C28.0426 21.206 27.8976 21.0557 27.746 20.9014C27.9071 20.7378 28.0608 20.5772 28.2099 20.4214C28.3737 20.5788 28.5297 20.7277 28.6756 20.869C28.5201 21.0212 28.3549 21.183 28.1828 21.3531ZM28.2222 22.4972C28.0836 22.3492 27.9405 22.197 27.7908 22.0416C27.8951 21.9316 28.0011 21.8192 28.1009 21.7116C28.1348 21.6753 28.167 21.6405 28.1998 21.6051C28.3727 21.7688 28.5366 21.9238 28.6899 22.0701C28.5455 22.1993 28.3942 22.336 28.2399 22.4807C28.2345 22.4861 28.2279 22.4927 28.2222 22.4972ZM27.594 24.1257C27.4778 23.9984 27.3563 23.8676 27.2355 23.7374C27.3074 23.6696 27.3776 23.6021 27.4498 23.5334C27.5292 23.4558 27.6075 23.3794 27.6863 23.3022C27.8114 23.428 27.9337 23.55 28.0521 23.6699C27.9593 23.7609 27.8666 23.8524 27.7732 23.9443C27.7128 24.0053 27.6539 24.0654 27.594 24.1257ZM26.1092 23.7706C26.2562 23.6248 26.4036 23.4775 26.5539 23.3246C26.6822 23.4596 26.8099 23.5932 26.9359 23.7254C26.7859 23.8723 26.6409 24.0159 26.498 24.1589C26.3701 24.03 26.241 23.9019 26.1092 23.7706ZM24.8739 22.5717C24.9403 22.5069 25.0058 22.4424 25.073 22.3757C25.1655 22.2834 25.2628 22.1868 25.3577 22.092C25.5068 22.2455 25.6556 22.3984 25.8088 22.5551C25.6526 22.7141 25.4993 22.8695 25.3464 23.0252C25.1868 22.8704 25.0297 22.7204 24.8739 22.5717ZM25.1958 23.1786C25.1251 23.2504 25.0515 23.3246 24.9824 23.3951C24.9018 23.477 24.8243 23.5567 24.7467 23.6374C24.5828 23.4753 24.4205 23.3168 24.2617 23.1647C24.4114 23.0211 24.568 22.8706 24.7306 22.7124C24.8827 22.8662 25.0368 23.0212 25.1958 23.1786ZM27.398 17.35C27.4288 17.3821 27.4598 17.4137 27.4913 17.4464C27.4828 17.4546 27.4747 17.4615 27.4667 17.4701C27.3325 17.599 27.1934 17.7355 27.0557 17.8702C27.0329 17.8464 27.011 17.822 26.9889 17.798C26.8709 17.6768 26.7539 17.5568 26.6362 17.4361C26.7809 17.2893 26.9201 17.1462 27.059 17.0032C27.1718 17.1185 27.2844 17.2337 27.398 17.35ZM26.8276 17.95C26.851 17.9747 26.8742 17.9993 26.8977 18.024C26.7658 18.1534 26.633 18.2842 26.4999 18.4157C26.3579 18.2773 26.2163 18.1393 26.075 18.0024C26.2124 17.8643 26.3478 17.7269 26.4836 17.5896C26.5984 17.71 26.7126 17.8292 26.8276 17.95ZM27.6843 19.9091C27.8225 20.0453 27.9568 20.1758 28.0886 20.3039C27.9339 20.4513 27.7749 20.6049 27.6117 20.7653C27.4623 20.6134 27.3104 20.459 27.1557 20.302C27.3118 20.146 27.4662 19.9921 27.6168 19.8421C27.6391 19.864 27.6619 19.8875 27.6843 19.9091ZM26.5381 22.1291C26.6852 22.2792 26.833 22.43 26.9778 22.5786C26.9377 22.62 26.8979 22.6609 26.8581 22.7019C26.7577 22.8057 26.659 22.9078 26.559 23.0114C26.5073 22.9558 26.4567 22.9014 26.4045 22.8461C26.3066 22.7481 26.2099 22.6508 26.1117 22.5528C26.2166 22.449 26.3207 22.3462 26.4265 22.2417C26.464 22.204 26.5007 22.1669 26.5381 22.1291ZM26.6905 21.9744C26.8172 21.8455 26.9449 21.7158 27.0703 21.5888C27.2197 21.7385 27.3668 21.8859 27.5113 22.0319C27.3825 22.1631 27.2525 22.2966 27.122 22.43C26.9801 22.2804 26.8349 22.1268 26.6905 21.9744ZM26.5425 21.8181C26.5239 21.7987 26.5062 21.7794 26.4877 21.7601C26.3533 21.6289 26.2199 21.4986 26.0864 21.3669C26.1867 21.2679 26.2852 21.1689 26.3859 21.0695C26.4144 21.0408 26.4421 21.0131 26.4705 20.9844C26.6229 21.1373 26.7749 21.2905 26.9247 21.4414C26.7983 21.5658 26.6702 21.6923 26.5425 21.8181ZM26.4725 20.6735C26.3444 20.5497 26.2178 20.4281 26.0905 20.3055C26.1992 20.1965 26.307 20.0894 26.4161 19.9805C26.4359 19.9605 26.4554 19.9403 26.4749 19.9202C26.6044 20.0475 26.7341 20.1749 26.8626 20.3011C26.7342 20.4245 26.6042 20.55 26.4749 20.6749C26.4742 20.6743 26.4733 20.6735 26.4725 20.6735ZM26.6247 20.8309C26.7536 20.7024 26.8827 20.5736 27.0105 20.4466C27.1673 20.6009 27.3212 20.7522 27.4728 20.9013C27.342 21.0308 27.2077 21.1623 27.0727 21.2964C26.9245 21.142 26.7748 20.9865 26.6247 20.8309ZM27.0116 20.1561C26.8844 20.0269 26.755 19.8961 26.6261 19.7648C26.7759 19.6101 26.9264 19.4557 27.0741 19.3038C27.2114 19.4413 27.3447 19.5727 27.4792 19.7053C27.3267 19.8529 27.1702 20.0037 27.0116 20.1561ZM26.4742 19.6101C26.4565 19.5924 26.439 19.5747 26.4214 19.5569C26.2932 19.4311 26.1668 19.3064 26.0396 19.181C26.1442 19.0776 26.2489 18.9756 26.3538 18.8717C26.4025 18.8222 26.4503 18.7742 26.4993 18.7252C26.6432 18.8704 26.7861 19.0143 26.9287 19.157C26.7785 19.3067 26.6261 19.4588 26.4742 19.6101ZM26.6551 18.5689C26.7854 18.4383 26.9153 18.3074 27.0437 18.1785C27.1845 18.328 27.3254 18.4767 27.4647 18.6233C27.3389 18.7479 27.2108 18.876 27.0811 19.0052C26.9399 18.8604 26.798 18.7147 26.6551 18.5689ZM25.9165 17.8482C25.7718 17.7085 25.6301 17.573 25.4897 17.4383C25.6357 17.2909 25.7815 17.1443 25.9245 16.9983C26.0595 17.1426 26.1947 17.2865 26.3348 17.4336C26.1959 17.5719 26.0567 17.7092 25.9165 17.8482ZM25.3485 17.5788C25.4858 17.7169 25.6244 17.8566 25.7671 17.9987C25.6131 18.1539 25.4597 18.3089 25.3084 18.4618C25.2427 18.3977 25.174 18.3302 25.1096 18.2665C25.0316 18.1901 24.9549 18.116 24.8788 18.0424C25.0343 17.8898 25.1907 17.7351 25.3485 17.5788ZM25.9228 18.1537C26.0625 18.2919 26.2025 18.4308 26.3433 18.5705C26.2946 18.6192 26.2457 18.6666 26.1967 18.7147C26.0922 18.8197 25.9887 18.924 25.8846 19.0289C25.7406 18.8868 25.6009 18.7503 25.4604 18.6118C25.6133 18.4608 25.7684 18.3074 25.9228 18.1537ZM25.7372 19.1771C25.6017 19.3128 25.4705 19.4469 25.3386 19.5799C25.2753 19.519 25.2086 19.4549 25.146 19.3948C25.0626 19.3138 24.9812 19.2374 24.8998 19.1594C25.036 19.0281 25.177 18.8895 25.3173 18.7511C25.4565 18.8923 25.5947 19.0328 25.7372 19.1771ZM25.8883 19.331C26.0138 19.458 26.1388 19.585 26.2645 19.7135C26.2824 19.7309 26.3004 19.7482 26.3181 19.7659C26.2985 19.7852 26.278 19.8052 26.2587 19.825C26.1507 19.9357 26.0437 20.0461 25.9361 20.1564C25.7835 20.0098 25.6359 19.867 25.4872 19.7235C25.6205 19.5935 25.753 19.4641 25.8883 19.331ZM25.7907 20.3069C25.6611 20.4397 25.5342 20.5708 25.4069 20.7005C25.3281 20.6236 25.2463 20.5434 25.1691 20.4682C25.093 20.3941 25.0193 20.3222 24.9453 20.25C24.9915 20.2057 25.0371 20.1625 25.0839 20.1169C25.1688 20.035 25.2584 19.947 25.3449 19.863C25.4925 20.0098 25.6391 20.1561 25.7907 20.3069ZM25.9397 20.4555C26.0651 20.5802 26.1897 20.7044 26.3156 20.8294C26.2861 20.8571 26.2568 20.8858 26.2279 20.9143C26.1292 21.0157 26.0315 21.1157 25.9331 21.2165C25.8034 21.09 25.678 20.9667 25.5511 20.8427C25.6799 20.7136 25.8084 20.5863 25.9397 20.4555ZM25.7871 21.3666C25.6429 21.5147 25.5016 21.6602 25.3607 21.8046C25.2813 21.7269 25.1998 21.6452 25.122 21.5695C25.0702 21.519 25.0205 21.4699 24.9699 21.4204C25.0139 21.3764 25.0567 21.3349 25.1015 21.2909C25.2011 21.1913 25.3065 21.0864 25.4091 20.9838C25.5345 21.1111 25.6587 21.2369 25.7871 21.3666ZM25.9358 21.5168C26.067 21.6499 26.1978 21.7819 26.3294 21.9158C26.3482 21.9348 26.3668 21.9533 26.3853 21.9725C26.3467 22.0107 26.3088 22.0482 26.2703 22.0859C26.1662 22.1912 26.0639 22.2958 25.9605 22.4007C25.8061 22.2472 25.6548 22.0967 25.5035 21.9465C25.6468 21.8042 25.7895 21.6623 25.9358 21.5168ZM25.9566 22.7056C26.0528 22.804 26.148 22.9008 26.2449 22.9993C26.2988 23.0568 26.3521 23.1124 26.4061 23.1694C26.2556 23.3246 26.1106 23.4773 25.9657 23.6294C25.9002 23.5645 25.8357 23.5006 25.7701 23.4356C25.6764 23.3447 25.5837 23.2551 25.4904 23.1644C25.6445 23.0128 25.7987 22.8607 25.9566 22.7056ZM26.7073 23.1702C26.8102 23.0657 26.9124 22.9622 27.0163 22.8571C27.055 22.8165 27.0932 22.7769 27.1317 22.7356C27.2675 22.8745 27.4027 23.0128 27.5337 23.147C27.4539 23.2234 27.3743 23.2983 27.2944 23.3753C27.2249 23.4433 27.1568 23.5099 27.088 23.5775C26.9622 23.4427 26.8352 23.3067 26.7073 23.1702ZM27.8218 23.1699C27.9652 23.0291 28.1049 22.8908 28.242 22.7537C28.3743 22.8826 28.5001 23.0042 28.6213 23.1223C28.5865 23.1548 28.5522 23.1866 28.5175 23.2203C28.4049 23.3255 28.291 23.4363 28.1748 23.5495C28.0608 23.425 27.9439 23.2984 27.8218 23.1699ZM27.6742 23.0132C27.5427 22.8746 27.408 22.732 27.2722 22.5883C27.4031 22.4518 27.5323 22.316 27.6597 22.1808C27.8097 22.3313 27.9557 22.4748 28.0984 22.6139C27.9582 22.7442 27.8179 22.8765 27.6742 23.0132ZM27.9618 21.5747C27.8595 21.677 27.753 21.7861 27.6481 21.8931C27.5057 21.7456 27.361 21.5955 27.2136 21.4424C27.3486 21.3058 27.4819 21.1706 27.6119 21.038C27.7659 21.1891 27.9159 21.3335 28.0634 21.474C28.0291 21.5071 27.9961 21.5403 27.9618 21.5747ZM28.2144 20.1835C28.0875 20.0488 27.9579 19.9119 27.8218 19.7702C27.8008 19.7482 27.7773 19.7251 27.7565 19.7027C27.8869 19.5727 28.0119 19.445 28.1342 19.3194C28.3002 19.4895 28.4611 19.651 28.6138 19.8038C28.4869 19.9249 28.3541 20.0508 28.2144 20.1835ZM27.6241 19.5661C27.4921 19.428 27.3601 19.2914 27.2232 19.1501C27.3505 19.0195 27.4763 18.8908 27.5994 18.7637C27.7148 18.8845 27.8305 19.0068 27.9428 19.1222C27.9668 19.1478 27.99 19.1709 28.0142 19.1952C27.8869 19.3152 27.7568 19.438 27.6241 19.5661ZM27.6144 18.474C27.4766 18.3251 27.3372 18.1739 27.1969 18.0225C27.3345 17.8828 27.4739 17.7424 27.6055 17.607C27.6128 17.5996 27.6189 17.593 27.6255 17.5863C27.7729 17.7395 27.9184 17.8882 28.062 18.0358C27.9162 18.1764 27.7671 18.3221 27.6144 18.474ZM27.7776 17.4301C27.9081 17.2955 28.0354 17.1634 28.1572 17.0355C28.3186 17.1921 28.4771 17.3434 28.6307 17.4878C28.4968 17.6165 28.3571 17.7509 28.2092 17.8933C28.0681 17.7406 27.9247 17.5861 27.7776 17.4301ZM27.0716 16.7121C26.9247 16.5661 26.7787 16.4226 26.6362 16.2853C26.6329 16.2815 26.6293 16.2784 26.6254 16.2745C26.7586 16.134 26.8844 15.999 27.0039 15.8707C27.1483 16.0228 27.2988 16.1794 27.4578 16.341C27.3323 16.4613 27.2038 16.5839 27.0716 16.7121ZM26.4985 16.4226C26.6338 16.5655 26.7759 16.7125 26.9198 16.8602C26.7767 16.9991 26.6338 17.138 26.4877 17.2828C26.3445 17.1365 26.2047 16.9954 26.0656 16.8544C26.1803 16.737 26.2952 16.6198 26.4041 16.5059C26.4338 16.4751 26.4625 16.4458 26.4918 16.4148C26.4938 16.4173 26.4957 16.4201 26.4985 16.4226ZM26.2662 16.3678C26.1528 16.4762 26.0354 16.5913 25.9189 16.7055C25.8972 16.6842 25.8749 16.6611 25.854 16.6395C25.729 16.5152 25.6089 16.3949 25.4886 16.2782C25.5469 16.2181 25.6073 16.1567 25.6631 16.0976C25.756 16.0004 25.8449 15.9055 25.9297 15.8129C26.0639 15.9587 26.2088 16.1153 26.3608 16.2771C26.3294 16.3077 26.2979 16.337 26.2662 16.3678ZM25.7167 16.7777C25.7364 16.7993 25.7583 16.8218 25.7781 16.8425C25.6299 16.9885 25.4802 17.137 25.3305 17.2856C25.1834 17.1443 25.0402 17.0101 24.9001 16.8788C24.9106 16.8688 24.9206 16.8588 24.9311 16.8488C25.0789 16.6991 25.2247 16.5504 25.3684 16.4035C25.4813 16.5258 25.595 16.6519 25.7167 16.7777ZM24.2136 16.4146C24.3436 16.5489 24.481 16.6912 24.6266 16.8422C24.4609 17.0101 24.2982 17.176 24.1423 17.3393C24.077 17.2771 24.0119 17.2156 23.9505 17.1568C23.8601 17.0699 23.7741 16.9886 23.6911 16.9114C23.8586 16.7568 24.0349 16.5894 24.2136 16.4146ZM24.7782 16.9983C24.9121 17.137 25.0499 17.2778 25.1939 17.4228C25.0365 17.5819 24.881 17.7396 24.7273 17.8959C24.5752 17.75 24.4279 17.6104 24.2869 17.4768C24.4482 17.3225 24.6127 17.162 24.7782 16.9983ZM24.4803 18.4294C24.5679 18.346 24.6582 18.2565 24.7474 18.17C24.8218 18.2467 24.8963 18.3244 24.9738 18.4026C25.0379 18.468 25.1057 18.5366 25.1713 18.6031C25.0312 18.7449 24.8911 18.8876 24.7577 19.0259C24.5998 18.8778 24.447 18.7355 24.3016 18.6002C24.361 18.5438 24.4203 18.4879 24.4803 18.4294ZM24.6357 19.1523C24.4911 19.3025 24.351 19.4491 24.2191 19.5896C24.138 19.5182 24.0586 19.448 23.9832 19.3816C23.891 19.2991 23.8026 19.2214 23.7178 19.1484C23.8664 19.0088 24.0272 18.8597 24.1962 18.7005C24.3355 18.8446 24.4825 18.9957 24.6357 19.1523ZM24.7682 19.2867C24.8481 19.3677 24.9287 19.4491 25.0117 19.5321C25.0736 19.593 25.1387 19.6583 25.2012 19.7204C25.1167 19.8068 25.0283 19.8956 24.9458 19.9797C24.8994 20.0272 24.8551 20.0734 24.8092 20.1205C24.7236 20.0391 24.6379 19.9592 24.5527 19.8848C24.4792 19.82 24.4092 19.7581 24.3392 19.6961C24.4767 19.5661 24.6211 19.4283 24.7682 19.2867ZM24.4427 20.0029C24.5245 20.0801 24.6044 20.1644 24.6855 20.248C24.5231 20.4159 24.3694 20.578 24.2213 20.7335C24.1317 20.6536 24.0446 20.5772 23.9611 20.5036C23.8752 20.4275 23.7925 20.3558 23.7131 20.2872C23.7613 20.2424 23.8086 20.1985 23.8593 20.1498C23.9754 20.0394 24.1012 19.9205 24.2316 19.7979C24.3013 19.8643 24.3707 19.932 24.4427 20.0029ZM24.8133 20.378C24.8858 20.4544 24.9588 20.5316 25.0368 20.6071C25.112 20.6836 25.1923 20.7645 25.2695 20.8425C25.168 20.947 25.0639 21.0543 24.9647 21.1558C24.9212 21.2013 24.8794 21.2444 24.8366 21.2892C24.7309 21.1861 24.6265 21.0862 24.5201 20.9955C24.4561 20.9398 24.3956 20.8864 24.3347 20.8323C24.4872 20.6875 24.647 20.537 24.8133 20.378ZM24.4103 21.1138C24.5118 21.2095 24.6106 21.3132 24.7106 21.4198C24.5353 21.6034 24.3694 21.7802 24.2113 21.9492C24.0387 21.7902 23.8747 21.6397 23.7262 21.5016C23.7085 21.4847 23.6922 21.4709 23.6745 21.4541C23.7652 21.3703 23.8589 21.2828 23.9588 21.1874C24.0441 21.1064 24.1336 21.0214 24.2258 20.9343C24.2869 20.9938 24.3472 21.0525 24.4103 21.1138ZM24.8365 21.5518C24.8866 21.6051 24.9353 21.6576 24.9878 21.7102C25.0626 21.788 25.1428 21.8703 25.22 21.9501C25.1254 22.0471 25.0283 22.1464 24.9364 22.2414C24.8692 22.31 24.8056 22.3769 24.7405 22.4444C24.7231 22.428 24.7049 22.4101 24.6877 22.394C24.5627 22.2746 24.4407 22.1617 24.3215 22.0511C24.486 21.8925 24.6581 21.7266 24.8365 21.5518ZM24.5508 22.5327C24.5682 22.5504 24.5867 22.5689 24.6041 22.5863C24.4474 22.7519 24.298 22.9103 24.1553 23.0627C23.9986 22.9135 23.8479 22.773 23.7062 22.6425C23.7807 22.5714 23.8587 22.4969 23.9394 22.419C24.0216 22.3392 24.108 22.2554 24.197 22.1697C24.3113 22.2881 24.4282 22.4089 24.5508 22.5327ZM24.1187 23.3022C24.2723 23.4627 24.4329 23.6272 24.5964 23.7938C24.4559 23.9401 24.3214 24.0825 24.192 24.2183C24.0141 24.0461 23.8401 23.8814 23.6742 23.729C23.7506 23.6573 23.8304 23.5808 23.9131 23.5006C23.9787 23.4364 24.0484 23.3694 24.1187 23.3022ZM25.0034 23.8901C24.961 23.8488 24.919 23.8076 24.8767 23.766C24.9563 23.6887 25.0362 23.6115 25.1176 23.5313C25.1882 23.462 25.2636 23.3877 25.3358 23.3168C25.4286 23.4095 25.5214 23.5013 25.6147 23.5938C25.6814 23.6587 25.7483 23.7227 25.8146 23.7876C25.7987 23.8046 25.7807 23.8231 25.7644 23.8402C25.6271 23.9844 25.4963 24.1254 25.3696 24.2627C25.2485 24.1387 25.1259 24.0153 25.0034 23.8901ZM26.8341 24.4966C26.7718 24.4328 26.7035 24.3656 26.6393 24.3005C26.7861 24.1639 26.9345 24.0237 27.0853 23.8811C27.2097 24.0104 27.3347 24.141 27.4559 24.266C27.3157 24.4081 27.1776 24.5494 27.0473 24.6867C27.0431 24.6917 27.0391 24.6961 27.0346 24.7005C26.9688 24.6327 26.9024 24.5655 26.8341 24.4966ZM27.741 24.2861C27.8039 24.2245 27.8664 24.1634 27.9292 24.101C28.0215 24.0084 28.1132 23.9154 28.2044 23.8223C28.3538 23.9736 28.4952 24.1147 28.6304 24.2515C28.5366 24.3447 28.4424 24.4397 28.3488 24.5365C28.2828 24.6053 28.218 24.6739 28.1527 24.7429C28.0215 24.5952 27.8838 24.4421 27.741 24.2861ZM28.725 24.1581C28.5958 24.0153 28.4614 23.8648 28.3182 23.7071C28.434 23.5894 28.5474 23.4725 28.6554 23.3586C28.6899 23.3224 28.7214 23.2876 28.7551 23.2529C28.758 23.256 28.7612 23.259 28.7635 23.2618C28.9259 23.4205 29.0767 23.5639 29.2127 23.6917C29.0611 23.8316 28.896 23.9898 28.725 24.1581ZM29.567 22.8875C29.704 23.0114 29.797 23.0955 29.8464 23.1393C29.8226 23.1587 29.7865 23.1872 29.743 23.2242C29.6569 23.2999 29.528 23.4034 29.3829 23.536C29.3494 23.5661 29.311 23.6015 29.2752 23.6341C29.1497 23.4952 29.0094 23.3401 28.8526 23.1741C28.8487 23.1702 28.8449 23.1656 28.8407 23.1617C28.9973 22.9935 29.141 22.8338 29.272 22.6941C29.2852 22.6786 29.2974 22.6651 29.3109 22.6508C29.4056 22.7379 29.4944 22.819 29.567 22.8875ZM29.2229 22.5702C29.21 22.5821 29.1969 22.5929 29.1837 22.6056C29.0445 22.734 28.8854 22.8765 28.7192 23.0308C28.603 22.9061 28.4827 22.7768 28.3557 22.6403C28.3627 22.6336 28.3704 22.6269 28.377 22.6198C28.5281 22.469 28.6717 22.3219 28.8069 22.1814C28.9572 22.324 29.0974 22.4547 29.2229 22.5702ZM29.0819 21.7169C28.9893 21.8015 28.8886 21.8917 28.7848 21.9847C28.6354 21.8292 28.4778 21.6621 28.3101 21.4858C28.4756 21.3063 28.633 21.1331 28.7809 20.9699C28.9889 21.1724 29.1757 21.345 29.335 21.4926C29.2554 21.5619 29.1718 21.6352 29.0819 21.7169ZM29.6531 20.8233C29.7557 20.9197 29.8287 20.9885 29.8749 21.0325C29.8352 21.0657 29.7738 21.1166 29.6885 21.1888C29.608 21.2594 29.5042 21.3465 29.3881 21.4468C29.241 21.2851 29.0697 21.095 28.8683 20.8812C28.8672 20.8795 28.8659 20.8792 28.8645 20.8773C28.9212 20.8156 28.9774 20.7539 29.0312 20.6952C29.1123 20.6063 29.187 20.523 29.2589 20.4428C29.4122 20.5918 29.5485 20.7215 29.6531 20.8233ZM29.6774 19.6157C29.7452 19.6771 29.7977 19.7249 29.8354 19.76C29.79 19.8021 29.7267 19.8599 29.646 19.9349C29.5441 20.0336 29.4102 20.158 29.2586 20.3014C29.1861 20.2184 29.1099 20.1324 29.0271 20.0406C28.9565 19.9614 28.8832 19.8792 28.8063 19.7937C28.8124 19.7877 28.8183 19.7811 28.8236 19.7758C29.0045 19.5866 29.1632 19.4154 29.3024 19.2634C29.4507 19.4043 29.5814 19.5233 29.6774 19.6157ZM29.2459 19.2095C29.0946 19.3492 28.9237 19.5074 28.7363 19.6872C28.7316 19.6911 28.727 19.6961 28.7226 19.6998C28.5771 19.5374 28.4236 19.3661 28.2631 19.1869C28.4276 19.0176 28.5829 18.8566 28.73 18.7053C28.8611 18.833 28.9854 18.9539 29.0988 19.0666C29.1497 19.1169 29.1981 19.1644 29.2459 19.2095ZM29.2471 18.0511C29.1021 18.1824 28.938 18.331 28.761 18.498C28.6572 18.3811 28.5499 18.261 28.4365 18.1388C28.3987 18.0967 28.3574 18.0536 28.3187 18.0118C28.4623 17.8591 28.5973 17.7147 28.7273 17.577C28.9095 17.7471 29.085 17.9078 29.239 18.0444C29.2421 18.0467 29.2445 18.0488 29.2471 18.0511ZM29.2448 16.9031C29.1024 17.0355 28.9427 17.186 28.7684 17.355C28.621 17.2007 28.4661 17.0417 28.3057 16.8799C28.4365 16.7431 28.563 16.6098 28.6808 16.4876C28.6998 16.4684 28.7159 16.4505 28.7339 16.432C28.9132 16.6032 29.0869 16.7634 29.2448 16.9031ZM28.7215 15.2427C28.8288 15.3706 28.9546 15.5103 29.0872 15.6439C29.1397 15.6959 29.1925 15.7462 29.2451 15.7952C29.1189 15.911 28.9693 16.0467 28.8038 16.2002C28.7339 16.1285 28.663 16.0557 28.5908 15.9835C28.4946 15.887 28.3973 15.7927 28.3013 15.7005C28.4614 15.529 28.6045 15.3723 28.7215 15.2427ZM27.2182 15.6416C27.3602 15.4915 27.4828 15.3545 27.5893 15.2348C27.727 15.3946 27.8911 15.5747 28.0691 15.7628C27.9273 15.8978 27.7738 16.0422 27.6121 16.1951C27.4454 16.0353 27.2844 15.8837 27.1283 15.7382C27.158 15.7064 27.1892 15.6729 27.2182 15.6416ZM26.2846 15.4262C26.3391 15.3676 26.3889 15.312 26.4363 15.2588C26.4675 15.294 26.4993 15.3294 26.5331 15.3669C26.6438 15.4887 26.7709 15.6247 26.904 15.7658C26.7743 15.887 26.637 16.0138 26.4946 16.1489C26.3317 15.9922 26.174 15.8444 26.0274 15.707C26.1179 15.6077 26.2044 15.5128 26.2846 15.4262ZM25.3323 15.2319C25.3444 15.2181 25.3547 15.2057 25.3658 15.1925C25.4694 15.3102 25.5893 15.4466 25.7301 15.5977C25.7575 15.6267 25.7865 15.6583 25.8147 15.6887C25.7206 15.7752 25.6238 15.8646 25.525 15.96C25.4651 16.0167 25.4023 16.0779 25.3409 16.1374C25.3344 16.1316 25.3273 16.1243 25.3209 16.1186C25.168 15.9788 25.0246 15.8469 24.8883 15.7227C25.0537 15.5459 25.2053 15.3785 25.3323 15.2319ZM24.6592 15.6718C24.5068 15.8165 24.3502 15.9675 24.1943 16.1229C24.1773 16.1398 24.1611 16.1567 24.1441 16.1741C23.9829 16.0243 23.8358 15.8909 23.7059 15.7739C23.7196 15.7604 23.7339 15.7465 23.7481 15.7327C23.9237 15.5564 24.0894 15.3734 24.2224 15.2124C24.346 15.3437 24.4925 15.5 24.6592 15.6718ZM23.1189 16.3825C23.0991 16.3648 23.085 16.3521 23.0672 16.336C23.0835 16.3232 23.1004 16.3105 23.1181 16.2962C23.2741 16.1742 23.4647 16.0063 23.6529 15.8251C23.7724 15.9534 23.9091 16.0987 24.0618 16.2577C23.8844 16.4391 23.7145 16.6181 23.5575 16.7879C23.3867 16.6295 23.2354 16.4922 23.1189 16.3825ZM23.1336 17.5279C23.1062 17.5041 23.0852 17.4854 23.0614 17.4638C23.132 17.4063 23.2134 17.3393 23.3026 17.2608C23.3983 17.1778 23.5048 17.0821 23.6147 16.9819C23.6927 17.0657 23.7749 17.1529 23.8629 17.2439C23.9218 17.3059 23.9848 17.3719 24.0473 17.4377C24.0454 17.4392 24.0435 17.4414 24.0423 17.443C23.8767 17.6151 23.7251 17.7825 23.5846 17.9362C23.4091 17.7767 23.2531 17.6381 23.1336 17.5279ZM23.1223 18.6372C23.1019 18.6208 23.0864 18.6071 23.0675 18.5911C23.1815 18.4912 23.3345 18.3636 23.508 18.2027C23.5423 18.1706 23.5798 18.1363 23.6164 18.1023C23.7018 18.1919 23.7909 18.285 23.8871 18.383C23.9469 18.4444 24.0106 18.5096 24.0734 18.5744C23.9106 18.7468 23.7582 18.9105 23.6169 19.0613C23.4235 18.8942 23.2528 18.7503 23.1223 18.6372ZM23.1162 19.776C23.0991 19.7625 23.0867 19.752 23.0709 19.739C23.2152 19.6092 23.4028 19.445 23.6164 19.2435C23.6246 19.2358 23.6335 19.2272 23.6412 19.2197C23.7226 19.3006 23.8078 19.3847 23.899 19.4724C23.9707 19.5426 24.0459 19.6164 24.1223 19.6912C24.0001 19.8201 23.882 19.9467 23.7712 20.0621C23.721 20.1146 23.675 20.1644 23.6283 20.2145C23.4268 20.0408 23.2496 19.8922 23.1162 19.776ZM23.0498 20.8945C23.0722 20.8742 23.0929 20.856 23.1189 20.8328C23.2514 20.7097 23.4296 20.5507 23.6363 20.3594C23.7123 20.4344 23.7923 20.513 23.8767 20.5948C23.9558 20.672 24.0388 20.7522 24.124 20.8356C24.0368 20.9271 23.9524 21.0157 23.8712 21.1C23.774 21.2007 23.6852 21.2956 23.6003 21.3868C23.3806 21.186 23.1887 21.0201 23.0498 20.8945ZM23.468 22.422C23.3029 22.2681 23.1542 22.1399 23.0369 22.0374C23.0722 22.006 23.1095 21.9725 23.1528 21.9338C23.2681 21.8261 23.4175 21.6911 23.587 21.5348C23.6047 21.554 23.6208 21.5711 23.6394 21.5904C23.7813 21.737 23.9355 21.8983 24.099 22.0688C24.0136 22.1598 23.9308 22.2475 23.8509 22.3316C23.7724 22.4145 23.6988 22.4941 23.6279 22.5702C23.5723 22.5193 23.519 22.4695 23.468 22.422ZM23.2902 23.3844C23.2191 23.3224 23.1536 23.2667 23.0935 23.2165C23.0977 23.2128 23.1007 23.21 23.1059 23.2053C23.2343 23.0829 23.4045 22.9263 23.5972 22.745C23.7298 22.8897 23.8719 23.0436 24.0235 23.2029C23.956 23.2746 23.8888 23.3465 23.8247 23.414C23.7445 23.4981 23.6684 23.5799 23.5964 23.6576C23.4882 23.5597 23.3843 23.4665 23.2902 23.3844ZM23.1423 24.3461C23.1181 24.3268 23.0949 24.3097 23.0722 24.2925C23.0756 24.2897 23.0777 24.2878 23.0806 24.2848C23.203 24.1691 23.3627 24.0217 23.5434 23.8526C23.6988 24.0194 23.8667 24.1952 24.0431 24.375C23.9859 24.4353 23.9281 24.4963 23.8733 24.5533C23.7973 24.6319 23.7256 24.7083 23.6568 24.7816C23.4737 24.615 23.2929 24.4621 23.1423 24.3461ZM24.3023 25.4331C24.1657 25.2811 24.0072 25.1152 23.8416 24.9547C23.8064 24.9212 23.7707 24.8883 23.7351 24.8551C23.8077 24.7863 23.8825 24.7162 23.9611 24.641C24.0175 24.5865 24.0784 24.5282 24.1387 24.4715C24.1746 24.5078 24.2097 24.544 24.246 24.5804C24.3931 24.7262 24.5405 24.8674 24.6852 25.0051C24.5394 25.1656 24.41 25.3118 24.3023 25.4331ZM24.9093 24.9429C24.9117 24.9406 24.9135 24.9392 24.9159 24.9364C25.0463 24.8095 25.1882 24.6732 25.3364 24.5301C25.4445 24.6358 25.5522 24.7407 25.6572 24.8411C25.6872 24.8699 25.7165 24.8974 25.7463 24.9252C25.6872 24.9869 25.6301 25.0463 25.5749 25.1027C25.4785 25.2015 25.3925 25.293 25.3134 25.379C25.1907 25.2425 25.0556 25.0969 24.9093 24.9429ZM26.0059 25.8333C25.9195 25.9332 25.8686 25.9957 25.8548 26.0128C25.8352 25.9873 25.8084 25.9541 25.7734 25.9122C25.6943 25.82 25.5857 25.6837 25.4473 25.5287C25.4249 25.5033 25.3978 25.4732 25.3732 25.4463C25.4626 25.3691 25.5586 25.2855 25.6622 25.1915C25.7217 25.1367 25.7842 25.0804 25.849 25.023C26.0194 25.183 26.1812 25.3301 26.327 25.4659C26.1959 25.6122 26.0879 25.7411 26.0059 25.8333ZM27.3821 25.6032C27.2548 25.753 27.1552 25.8847 27.0827 25.9733C27.0573 26.0057 27.0379 26.0303 27.0213 26.0529C26.9965 26.0239 26.9688 25.9916 26.9356 25.9522C26.8283 25.8324 26.6814 25.6568 26.4977 25.4585C26.5051 25.4519 26.5117 25.4466 26.5186 25.44C26.6741 25.2958 26.8539 25.1348 27.0421 24.9592C27.2177 25.1221 27.3853 25.2754 27.5403 25.4186C27.4852 25.4815 27.4304 25.5458 27.3821 25.6032ZM28.2462 25.9298C28.2396 25.9371 28.2335 25.9448 28.2277 25.9525C28.0949 25.8081 27.9352 25.6336 27.7464 25.44C27.8869 25.308 28.0355 25.1644 28.1878 25.0133C28.3301 25.1584 28.468 25.2986 28.595 25.4291C28.6116 25.4454 28.6258 25.4601 28.6424 25.477C28.4915 25.6383 28.3535 25.7962 28.2462 25.9298Z" fill="#414141"/>
<path d="M40.7308 10.5997C40.261 10.1753 39.6375 10.1028 39.3365 10.4345L29.5605 21.2662L31.2608 22.8005L41.0367 11.9697C41.3366 11.6367 41.1993 11.0226 40.7308 10.5997Z" fill="#FED56C"/>
<path d="M40.8482 10.4828C40.3682 10.0931 39.6504 9.83956 39.1727 10.3705C38.9465 10.6203 38.7202 10.8706 38.495 11.121C37.498 12.225 36.5014 13.3287 35.505 14.4322C33.5378 16.6122 31.5702 18.792 29.6024 20.9722C29.5492 21.0311 29.4959 21.0903 29.4427 21.1489C29.3844 21.2139 29.3728 21.321 29.4427 21.3843C30.0095 21.896 30.576 22.4072 31.1432 22.9185C31.207 22.9768 31.3141 22.9884 31.3778 22.9185C33.0313 21.086 34.6854 19.2542 36.3393 17.4213C37.4624 16.1772 38.5852 14.9331 39.7083 13.6889C40.22 13.1216 40.7987 12.5749 41.2513 11.9564C41.596 11.4856 41.1799 10.8159 40.8482 10.4828C40.696 10.3312 40.4613 10.5658 40.6134 10.7174C40.903 11.0084 41.2225 11.5158 40.883 11.8925C40.8018 11.9824 40.7207 12.0723 40.6388 12.1619C40.3039 12.534 39.9689 12.9055 39.6333 13.2772C38.5312 14.4981 37.4292 15.719 36.3273 16.9409C34.6007 18.8526 32.8754 20.7646 31.1498 22.6766C31.1471 22.6784 31.1453 22.682 31.1432 22.6839C31.222 22.6839 31.2995 22.6839 31.3778 22.6839C30.8114 22.1726 30.2441 21.6609 29.6779 21.1492C29.6779 21.228 29.6779 21.3058 29.6779 21.3846C31.3318 19.552 32.9855 17.7195 34.6391 15.8864C35.763 14.6432 36.8859 13.3987 38.0079 12.1547C38.3693 11.7561 38.7288 11.357 39.088 10.9584C39.327 10.6941 39.5054 10.4032 39.9011 10.3946C40.1644 10.3891 40.4205 10.5619 40.6134 10.7174C40.7771 10.8516 41.0141 10.6178 40.8482 10.4828Z" fill="#414141"/>
<path d="M31.2619 22.8C30.962 23.133 30.3369 23.0592 29.8675 22.6359C29.3983 22.2119 29.261 21.5983 29.562 21.2656C29.8625 20.9324 30.4865 21.0055 30.957 21.4292C31.4257 21.8534 31.562 22.4666 31.2619 22.8Z" fill="#FED56C"/>
<path d="M31.1424 22.6854C30.5129 23.2948 29.1311 22.073 29.6778 21.3854C30.2181 20.7049 31.6891 21.9959 31.1424 22.6854C31.0103 22.8509 31.2442 23.0879 31.3774 22.9201C32.1934 21.8924 30.3853 20.237 29.4426 21.15C28.9929 21.5861 29.3322 22.3096 29.6733 22.6835C30.0885 23.1374 30.8875 23.3951 31.3774 22.9201C31.5317 22.7702 31.2966 22.5358 31.1424 22.6854Z" fill="#414141"/>
<path d="M30.5889 21.8369C30.4033 21.6694 30.1568 21.6402 30.0375 21.772L19.0996 33.8903L19.7715 34.4969L30.7101 22.3786C30.8278 22.2466 30.7742 22.0043 30.5889 21.8369Z" fill="#FED56C"/>
<path d="M30.6725 21.6901C29.9721 21.1903 29.3841 22.2445 28.9747 22.6988C27.968 23.8132 26.9616 24.9287 25.9552 26.0437C23.8258 28.4028 21.6962 30.7623 19.5669 33.1216C19.3719 33.3375 19.1771 33.5538 18.9814 33.7698C18.9235 33.8343 18.9121 33.9421 18.9814 34.0049C19.2056 34.2069 19.4294 34.4093 19.6532 34.611C19.718 34.6696 19.8253 34.6805 19.8886 34.611C23.4418 30.6743 26.9952 26.7374 30.5494 22.8003C30.8646 22.4506 31.1069 22.1709 30.7057 21.7159C30.5636 21.5546 30.329 21.7911 30.4709 21.9508C30.7508 22.2688 30.4026 22.4664 30.2028 22.6875C29.8571 23.0708 29.5115 23.4542 29.1649 23.8379C28.077 25.0439 26.9882 26.2498 25.8996 27.4559C23.9104 29.66 21.9204 31.8641 19.9312 34.0685C19.8386 34.1711 19.7459 34.2738 19.6533 34.3765C19.7321 34.3765 19.8104 34.3765 19.8887 34.3765C19.6644 34.1742 19.4406 33.972 19.2168 33.7698C19.2168 33.8478 19.2168 33.9266 19.2168 34.0049C22.7703 30.068 26.3235 26.1309 29.8772 22.1937C30.0661 21.9842 30.1642 21.7341 30.5046 21.9768C30.6798 22.1021 30.8454 21.8135 30.6725 21.6901Z" fill="#414141"/>
<path d="M31.8184 21.289C31.8184 21.289 31.9429 21.1385 32.1595 20.876C32.3798 20.6167 32.6888 20.24 33.0713 19.7987C33.453 19.3581 33.8926 18.837 34.3764 18.2914C34.8603 17.7449 35.3759 17.1623 35.8915 16.5792C36.4146 16.0032 36.938 15.427 37.4281 14.8867C37.9181 14.346 38.3882 13.8528 38.7841 13.4246C39.1814 12.9963 39.5218 12.6491 39.7564 12.4011C39.9935 12.1565 40.1291 12.0176 40.1291 12.0176C40.1291 12.0176 40.0049 12.1673 39.788 12.4296C39.5683 12.689 39.2594 13.0663 38.8773 13.5075C38.4945 13.9485 38.0553 14.4694 37.5706 15.0151C37.0876 15.5615 36.5719 16.1441 36.0564 16.7268C35.5332 17.3028 35.0099 17.879 34.5199 18.4193C34.0289 18.9597 33.5598 19.4528 33.1635 19.8818C32.7659 20.3094 32.4256 20.6575 32.1913 20.9048C31.9543 21.1493 31.8184 21.289 31.8184 21.289Z" fill="#414141"/>
<path d="M50.5512 20.7211H47.9742C47.5466 20.7211 47.1992 20.3729 47.1992 19.9454V6.13312C47.1992 5.70587 47.5466 5.37603 47.9811 5.40845L50.562 5.60422C50.984 5.63617 51.3277 6.00673 51.3277 6.4296V19.9455C51.3275 20.3731 50.9786 20.7211 50.5512 20.7211ZM47.9217 5.62772C47.6362 5.62772 47.4201 5.84526 47.4201 6.13328V19.9455C47.4201 20.2511 47.6686 20.4997 47.9742 20.4997H50.5512C50.8567 20.4997 51.1053 20.2511 51.1053 19.9455V6.4296C51.1053 6.11965 50.8537 5.84839 50.5449 5.82537L47.9641 5.62944C47.9494 5.6285 47.9356 5.62772 47.9217 5.62772Z" fill="#FED56C"/>
<path d="M55.3006 16.1089C55.2466 16.1089 55.1902 16.1023 55.1355 16.0896L53.243 15.6597C52.8301 15.5662 52.5078 15.1615 52.5078 14.7389V6.70945C52.5078 6.39152 52.6876 6.17773 52.9545 6.17773C53.0517 6.17773 53.1537 6.20592 53.2572 6.26184L55.2752 7.34469C55.6359 7.53843 55.9189 8.01157 55.9189 8.42128V15.4644C55.9188 15.8376 55.6588 16.1089 55.3006 16.1089ZM52.9545 6.39919C52.8135 6.39919 52.7299 6.5154 52.7299 6.70945V14.7389C52.7299 15.0569 52.9816 15.3734 53.2917 15.4437L55.1842 15.8736C55.4696 15.9385 55.6973 15.7532 55.6973 15.4645V8.42144C55.6973 8.09724 55.4558 7.69332 55.1694 7.53999L53.1528 6.4573C53.0817 6.41939 53.014 6.39919 52.9545 6.39919Z" fill="#FED56C"/>
<path d="M41.5212 3.81854C41.5212 4.64157 40.2985 5.20649 39.7082 5.20649C39.1179 5.20649 38.9336 4.45284 38.9336 3.62982C38.9336 2.80601 39.0739 2.17578 39.6642 2.17578C40.2548 2.17578 41.5212 2.99489 41.5212 3.81854Z" fill="#414141"/>
<path d="M40.6023 3.68561C40.6023 4.41764 40.1569 5.01154 39.6073 5.01154C39.0587 5.01154 38.6133 4.41764 38.6133 3.68561C38.6133 2.95358 39.0587 2.35938 39.6073 2.35938C40.1571 2.35922 40.6023 2.95343 40.6023 3.68561Z" fill="#FED56C"/>
<path d="M39.6064 5.20675C38.9512 5.20675 38.418 4.52452 38.418 3.68646C38.418 2.84793 38.9512 2.16602 39.6064 2.16602C40.2625 2.16602 40.7956 2.84777 40.7956 3.68646C40.7956 4.52452 40.2623 5.20675 39.6064 5.20675ZM39.6064 2.55458C39.166 2.55458 38.807 3.06234 38.807 3.68646C38.807 4.30995 39.166 4.81786 39.6064 4.81786C40.0479 4.81786 40.4067 4.31011 40.4067 3.68646C40.4067 3.06234 40.0479 2.55458 39.6064 2.55458Z" fill="#414141"/>
<path d="M47.1164 2.66557C47.1164 3.60512 45.7211 4.24882 45.0473 4.24882C44.3735 4.24882 44.1621 3.38946 44.1621 2.44991C44.1621 1.50989 44.3233 0.791016 44.997 0.791016C45.671 0.790859 47.1164 1.72587 47.1164 2.66557Z" fill="#414141"/>
<path d="M46.0726 2.51308C46.0726 3.34879 45.5647 4.02617 44.9371 4.02617C44.3114 4.02617 43.8027 3.34895 43.8027 2.51308C43.8027 1.67753 44.3114 1 44.9371 1C45.5645 1 46.0726 1.67753 46.0726 2.51308Z" fill="#FED56C"/>
<path d="M44.9359 4.24689C44.1882 4.24689 43.5801 3.46897 43.5801 2.51235C43.5801 1.55573 44.1882 0.777344 44.9359 0.777344C45.6839 0.777344 46.2936 1.55573 46.2936 2.51235C46.2936 3.46897 45.6839 4.24689 44.9359 4.24689ZM44.9359 1.22073C44.4329 1.22073 44.023 1.80006 44.023 2.51235C44.023 3.22465 44.4329 3.80398 44.9359 3.80398C45.4401 3.80398 45.8498 3.22481 45.8498 2.51235C45.8498 1.80006 45.4399 1.22073 44.9359 1.22073Z" fill="#414141"/>
<path d="M39.5743 4.50393C39.5743 4.50393 39.5412 4.50707 39.485 4.50942C39.457 4.50393 39.4194 4.49125 39.376 4.47308C39.3428 4.44802 39.2966 4.42281 39.2626 4.38271C39.1907 4.30628 39.1235 4.19978 39.0858 4.07793C39.0404 3.95671 39.0266 3.82014 39.0195 3.68514C39.0255 3.60871 39.0266 3.55812 39.0371 3.48796C39.0494 3.42045 39.062 3.35138 39.0858 3.29203C39.1052 3.23095 39.1298 3.17362 39.1628 3.12257C39.1877 3.06947 39.2294 3.02656 39.2626 2.98678C39.2966 2.94731 39.3428 2.92194 39.376 2.89719C39.417 2.88012 39.4524 2.86744 39.4812 2.86133C39.5444 2.86211 39.5744 2.86634 39.5744 2.86634C39.5744 2.86634 39.5458 2.8795 39.4957 2.90299C39.475 2.91928 39.4532 2.94355 39.4271 2.96391C39.4094 2.99633 39.383 3.02421 39.3646 3.06321C39.3475 3.10409 39.3259 3.14261 39.3129 3.19242C39.2958 3.23831 39.285 3.29046 39.2736 3.34402C39.2581 3.3968 39.2621 3.45162 39.2504 3.50534C39.2427 3.55937 39.2443 3.63533 39.241 3.68514C39.2449 3.74309 39.2427 3.80244 39.2496 3.85945C39.2604 3.91505 39.2582 3.97441 39.2736 4.02609C39.2842 4.07934 39.2944 4.13181 39.3129 4.17786C39.3259 4.22719 39.3475 4.2665 39.3646 4.30707C39.383 4.34606 39.4084 4.37378 39.4271 4.40589C39.4509 4.42484 39.4709 4.44896 39.4919 4.46682C39.5444 4.48937 39.5743 4.50393 39.5743 4.50393Z" fill="#414141"/>
<path d="M44.8218 3.51182C44.8201 3.50822 44.7871 3.52607 44.7153 3.50728C44.6472 3.48864 44.5601 3.42553 44.4915 3.32811C44.4197 3.23242 44.3641 3.10587 44.3263 2.96617C44.2868 2.82646 44.2699 2.67282 44.2676 2.51981C44.2693 2.44369 44.2738 2.36992 44.2823 2.2913C44.2908 2.21613 44.3078 2.14345 44.3263 2.07329C44.3641 1.93343 44.4197 1.80657 44.4915 1.71088C44.5601 1.61409 44.6472 1.5505 44.7153 1.53218C44.7847 1.5137 44.8218 1.53077 44.8218 1.52763C44.8218 1.52763 44.7818 1.535 44.7346 1.5718C44.6867 1.60861 44.6405 1.67971 44.602 1.77384C44.5641 1.86797 44.537 1.98637 44.5177 2.1137C44.5053 2.17775 44.5028 2.24494 44.4962 2.31245C44.4898 2.37775 44.4883 2.44949 44.4883 2.51981C44.4883 2.79671 44.5262 3.07611 44.601 3.26593C44.6405 3.36006 44.6867 3.43117 44.7346 3.46828C44.7786 3.50399 44.824 3.51057 44.8218 3.51182Z" fill="#414141"/>
<path d="M57.3058 33.3365C57.3058 33.3365 57.2747 33.3392 57.2177 33.3436C57.1606 33.3467 57.079 33.3619 56.9686 33.3494C56.8574 33.3458 56.7253 33.3242 56.5772 33.2848C56.4292 33.2413 56.2624 33.1794 56.0981 33.0787C55.9305 32.984 55.7654 32.8532 55.6094 32.6938C55.4589 32.5325 55.3078 32.3487 55.1966 32.1326C55.0785 31.9204 54.982 31.6863 54.9219 31.438C54.8539 31.1917 54.834 30.9318 54.8223 30.6733C54.8321 30.5296 54.8262 30.435 54.8492 30.2925L54.8755 30.0953L54.9181 29.9083C54.9759 29.6599 55.0732 29.4253 55.1895 29.2122C55.2999 28.9951 55.4487 28.8108 55.5996 28.6488C55.7545 28.4891 55.9187 28.3572 56.0863 28.2613C56.25 28.1602 56.4168 28.0975 56.5642 28.0529C56.713 28.0128 56.845 27.9909 56.9546 27.9877C57.0625 27.9746 57.1484 27.9898 57.2061 27.9918C57.2624 27.9956 57.2926 27.9981 57.2926 27.9981C57.2926 27.9981 57.2641 28.0042 57.2069 28.0153C57.1505 28.0274 57.0696 28.04 56.97 28.0743C56.8688 28.1007 56.7529 28.1516 56.6251 28.2111C56.4993 28.2783 56.3642 28.3608 56.2321 28.4703C56.1657 28.5243 56.0979 28.583 56.037 28.6524C55.9696 28.7147 55.9119 28.7907 55.8495 28.8646C55.7336 29.0212 55.624 29.1946 55.5375 29.3887C55.4451 29.5785 55.3848 29.7896 55.3344 30.005L55.3014 30.1682L55.2829 30.3285C55.2653 30.4253 55.2722 30.574 55.2653 30.6718C55.2713 30.8971 55.2829 31.1235 55.3379 31.3389C55.388 31.5542 55.4498 31.7652 55.5432 31.9547C55.6304 32.1477 55.7408 32.3209 55.8581 32.4764C55.9205 32.5506 55.979 32.6261 56.0462 32.6892C56.1083 32.7578 56.1753 32.8155 56.2417 32.8693C56.3751 32.9782 56.5111 33.0612 56.6375 33.127C56.7656 33.1856 56.8815 33.2365 56.9808 33.261C57.079 33.2952 57.1637 33.3079 57.2191 33.319C57.2757 33.3312 57.3058 33.3365 57.3058 33.3365Z" fill="#FED56C"/>
<path d="M43.6289 36.3153C43.6289 36.3153 43.6499 36.3096 43.6884 36.2998C43.7254 36.2899 43.7863 36.2774 43.8519 36.2515C43.9191 36.2307 43.9979 36.192 44.0842 36.1502C44.1691 36.1024 44.2593 36.0438 44.3489 35.9698C44.4391 35.8949 44.5249 35.8045 44.6051 35.7021C44.6848 35.5984 44.7558 35.4811 44.8151 35.353C44.8782 35.2272 44.9177 35.0864 44.9519 34.9433C44.9855 34.8048 44.9955 34.6401 45.0004 34.5104C44.9957 34.4307 44.9988 34.3326 44.9865 34.2703C44.9796 34.2019 44.9688 34.1306 44.9525 34.0575C44.9183 33.9146 44.8807 33.773 44.8175 33.6467C44.758 33.5192 44.687 33.4015 44.6082 33.2972C44.528 33.1942 44.4416 33.1044 44.3544 33.0286C44.2649 32.9546 44.1738 32.8949 44.0897 32.8465C44.0034 32.8047 43.9262 32.7651 43.8576 32.7439C43.7894 32.7176 43.7334 32.7052 43.6955 32.6946C43.6562 32.6847 43.6352 32.6791 43.6352 32.6791C43.6352 32.6791 43.6562 32.6759 43.6955 32.6705C43.7357 32.6667 43.796 32.652 43.8715 32.6575C43.9487 32.655 44.0421 32.6651 44.1486 32.6874C44.2543 32.7132 44.3746 32.7502 44.4952 32.816C44.615 32.8788 44.7406 32.963 44.8533 33.0741C44.9666 33.1837 45.0779 33.3118 45.162 33.4639C45.2507 33.6119 45.323 33.7784 45.3703 33.9543C45.3927 34.042 45.4151 34.1322 45.4244 34.231C45.4413 34.3328 45.4367 34.4037 45.4436 34.4919C45.4367 34.6951 45.4205 34.8672 45.3681 35.0473C45.3216 35.2236 45.2479 35.3897 45.1589 35.5377C45.074 35.689 44.9613 35.8168 44.848 35.9258C44.7353 36.0362 44.6087 36.119 44.4883 36.1825C44.3681 36.2473 44.2483 36.2839 44.1425 36.3095C44.0352 36.3311 43.942 36.3402 43.8634 36.3384C43.7868 36.3428 43.7306 36.3272 43.6895 36.324C43.6497 36.3179 43.6289 36.3153 43.6289 36.3153Z" fill="#FED56C"/>
<path d="M56.9414 31.8818C56.9414 31.8818 56.994 31.8571 57.0857 31.8207C57.1359 31.8088 57.1821 31.7694 57.2318 31.7379C57.2817 31.7108 57.3304 31.6599 57.3846 31.6099C57.4416 31.5675 57.4772 31.489 57.5312 31.4314C57.5544 31.3983 57.5698 31.3575 57.5898 31.3203C57.6091 31.2834 57.6337 31.2481 57.6452 31.2046C57.66 31.1636 57.6755 31.1221 57.6908 31.0795C57.7001 31.0358 57.7055 30.99 57.7178 30.9468L57.7333 30.8788L57.7364 30.8094L57.7411 30.7409L57.7434 30.7059L57.745 30.6881L57.7459 30.6795L57.7466 30.6755V30.6733V30.6718C57.7466 30.6676 57.748 30.707 57.748 30.6896L57.7359 30.5252L57.7304 30.4441L57.7149 30.3839C57.7043 30.3437 57.6994 30.3036 57.6911 30.2618C57.6758 30.2195 57.6611 30.178 57.6456 30.1372C57.6348 30.0928 57.61 30.0585 57.5907 30.0206C57.5715 29.9841 57.555 29.9427 57.532 29.9095C57.4795 29.8522 57.4434 29.7742 57.3862 29.731C57.3336 29.6804 57.2844 29.6292 57.2311 29.6005C57.1787 29.5672 57.1322 29.5294 57.0875 29.5175C57.0019 29.4813 56.9455 29.4555 56.9455 29.4555C56.9455 29.4555 56.9989 29.4431 57.103 29.4303C57.1571 29.4201 57.2178 29.4285 57.2921 29.4423C57.3276 29.4503 57.3701 29.4524 57.4088 29.4674C57.4479 29.4829 57.488 29.502 57.5314 29.5217C57.6232 29.5543 57.6958 29.6253 57.7828 29.6931C57.8537 29.7715 57.9409 29.8544 57.9936 29.9607C58.0214 30.0135 58.0507 30.0669 58.0792 30.1208C58.1032 30.1802 58.1209 30.2448 58.1388 30.3091L58.1649 30.4066L58.1735 30.4887L58.189 30.6524L58.1896 30.6741V30.6769L58.189 30.6829L58.1873 30.695L58.1859 30.7186L58.1812 30.7658L58.1718 30.86C58.1694 30.9233 58.1557 30.9845 58.1356 31.0444C58.1181 31.1045 58.0993 31.1642 58.0769 31.2209C58.0484 31.2751 58.0199 31.3286 57.9914 31.3809C57.9389 31.4874 57.8507 31.5697 57.7792 31.6481C57.6925 31.7152 57.6188 31.786 57.5276 31.8185C57.4846 31.8378 57.4445 31.8566 57.405 31.8718C57.3672 31.8873 57.3201 31.8903 57.2839 31.8979C57.2075 31.9114 57.1449 31.9197 57.0972 31.9073C56.9976 31.894 56.9414 31.8818 56.9414 31.8818Z" fill="#FED56C"/>
<path d="M46.7891 32.09C46.7891 32.09 46.9073 32.0448 47.1148 31.9727C47.3239 31.9041 47.621 31.7968 47.9797 31.6845C48.3394 31.5699 48.7599 31.4427 49.2138 31.3138C49.6646 31.1821 50.1507 31.0546 50.6362 30.9256C51.1233 30.8036 51.6096 30.6798 52.0693 30.576C52.5272 30.4695 52.9578 30.3769 53.3274 30.3035C53.6962 30.2277 54.008 30.1783 54.2235 30.137C54.4411 30.0991 54.5662 30.082 54.5662 30.082C54.5662 30.082 54.4481 30.1279 54.2397 30.1993C54.0307 30.2687 53.7349 30.3762 53.3751 30.4885C53.0157 30.6034 52.5944 30.7304 52.1421 30.8593C51.6896 30.9906 51.2043 31.1181 50.7188 31.2471C50.2326 31.3694 49.7449 31.4922 49.2863 31.5964C48.8271 31.7029 48.398 31.7954 48.0278 31.8687C47.658 31.9442 47.3476 31.9942 47.1308 32.0354C46.9133 32.0733 46.7891 32.09 46.7891 32.09Z" fill="#FED56C"/>
<path d="M47.3514 34.9149C47.3514 34.9149 47.4593 34.8571 47.6509 34.7633C47.8432 34.6725 48.1148 34.5345 48.4475 34.3846C48.7776 34.2327 49.1676 34.0613 49.5864 33.8853C50.0047 33.7069 50.4562 33.528 50.906 33.3481C51.359 33.1753 51.8122 33.0007 52.2406 32.8483C52.6688 32.6937 53.0703 32.5564 53.4176 32.4439C53.7634 32.3293 54.0566 32.2468 54.2595 32.183C54.4641 32.1222 54.5822 32.0916 54.5822 32.0916C54.5822 32.0916 54.4749 32.1495 54.2836 32.2438C54.0909 32.334 53.8197 32.4723 53.4872 32.6222C53.156 32.7739 52.7671 32.9451 52.3474 33.1213C51.9298 33.2997 51.4774 33.4786 51.0274 33.6577C50.5745 33.8311 50.1215 34.005 49.6924 34.1573C49.265 34.3115 48.8628 34.4494 48.5162 34.5622C48.1706 34.6768 47.8772 34.7594 47.6742 34.8231C47.4694 34.884 47.3514 34.9149 47.3514 34.9149Z" fill="#FED56C"/>
<path d="M58.9122 25.9844C59.3236 26.0743 59.7103 26.2802 60.0353 26.5582C60.3624 26.8345 60.6356 27.174 60.8508 27.5469C61.0639 27.921 61.2251 28.3255 61.3294 28.7451C61.3803 28.9551 61.4174 29.1693 61.4398 29.386C61.4628 29.603 61.4646 29.8217 61.4621 30.0318C61.4606 30.2509 61.4414 30.4677 61.4072 30.6845C61.3742 30.9004 61.3233 31.1113 61.2675 31.3199C61.2074 31.5268 61.1426 31.7311 61.0716 31.9315L61.0455 32.0068L61.016 32.0857C60.996 32.1355 60.9797 32.1817 60.9549 32.2344C60.9095 32.3393 60.86 32.4397 60.8083 32.5354C60.5961 32.9235 60.3291 33.2776 60.0166 33.5872C59.7064 33.8997 59.3435 34.1609 58.9477 34.3622L58.9391 34.3662L58.9313 34.3691C57.6835 34.8544 56.4378 35.3504 55.1869 35.8279C53.9266 36.2815 52.667 36.7381 51.403 37.1766L49.4957 37.8085C48.8598 38.0178 48.2263 38.2331 47.5889 38.4377C46.3068 38.8266 45.0304 39.2272 43.7461 39.6029L51.2918 36.8662L53.1649 36.1509L55.041 35.4442L58.7656 33.9617L58.7501 33.9694C59.4484 33.6081 60.0473 33.0251 60.4325 32.3307C60.4804 32.2428 60.5244 32.1557 60.5639 32.0693C60.5845 32.0275 60.6039 31.975 60.624 31.9275L60.6525 31.86L60.6788 31.7878C60.7535 31.5955 60.8199 31.4015 60.8832 31.2079C60.9404 31.0127 60.9928 30.817 61.0293 30.6199C61.0649 30.4232 61.0871 30.2223 61.0993 30.0224C61.1109 29.8141 61.1178 29.6127 61.1064 29.4121C61.0948 29.211 61.0688 29.0099 61.0301 28.8107C60.9545 28.4124 60.8278 28.0209 60.648 27.6547C60.4699 27.2882 60.2429 26.941 59.9504 26.6508C59.6594 26.361 59.3087 26.1247 58.9122 25.9844Z" fill="#FED56C"/>
<path d="M60.189 27.7891C60.189 27.7891 60.2319 27.85 60.303 27.9595C60.3408 28.0126 60.3756 28.0832 60.418 28.1656C60.4388 28.2069 60.4611 28.2509 60.4852 28.2978C60.5029 28.3455 60.5223 28.3964 60.543 28.4492C60.5864 28.5546 60.618 28.6735 60.6503 28.8C60.6821 28.9258 60.7052 29.0625 60.7245 29.2029C60.7359 29.3449 60.7539 29.4913 60.75 29.6408C60.7554 29.7902 60.7408 29.9416 60.733 30.0932C60.7115 30.2431 60.6954 30.3938 60.6628 30.5394C60.639 30.6863 60.595 30.8268 60.558 30.9634C60.4738 31.2337 60.3757 31.4798 60.2708 31.6796C60.2222 31.7806 60.1712 31.871 60.1211 31.9473C60.0731 32.0254 60.0326 32.0935 59.9929 32.1459C59.9167 32.2528 59.8711 32.3114 59.8711 32.3114C59.8711 32.3114 59.9005 32.2419 59.956 32.1246C60.0108 32.0077 60.0819 31.8364 60.1544 31.6292C60.1945 31.5271 60.2269 31.4118 60.2662 31.2923C60.3032 31.1729 60.335 31.0437 60.3698 30.9126C60.3997 30.7792 60.4299 30.6419 60.4523 30.5001C60.4822 30.3599 60.4938 30.2149 60.5124 30.0713C60.5217 29.9267 60.5402 29.7826 60.537 29.6397C60.5416 29.4973 60.5355 29.3574 60.53 29.2216C60.517 29.0866 60.5099 28.9545 60.4883 28.832C60.4659 28.7093 60.4512 28.5911 60.4211 28.4871C60.3973 28.3792 60.3726 28.2829 60.3425 28.1988C60.317 28.1134 60.293 28.0387 60.2653 27.9792C60.215 27.8592 60.189 27.7891 60.189 27.7891Z" fill="#FED56C"/>
<path d="M43.7217 38.2377C43.7217 38.2377 43.6816 38.2401 43.6053 38.2422C43.5289 38.2454 43.4201 38.2554 43.2758 38.2316C43.2033 38.2247 43.123 38.2139 43.0396 38.1892C42.9546 38.168 42.8612 38.1458 42.7695 38.1035C42.6746 38.0664 42.5735 38.0253 42.4763 37.9661C42.4262 37.9375 42.3737 37.9096 42.3226 37.8773C42.2749 37.8418 42.2246 37.8054 42.1729 37.7677C42.068 37.6982 41.9778 37.6022 41.8752 37.5123C41.7809 37.415 41.6852 37.3101 41.5972 37.1957C41.4205 36.9674 41.26 36.7057 41.1309 36.4172C41.0081 36.1284 40.8949 35.8205 40.8352 35.4955C40.7635 35.1689 40.741 34.8449 40.7305 34.4938C40.7405 34.3304 40.7358 34.1791 40.7598 34.0076C40.7765 33.8369 40.7991 33.6685 40.8352 33.5088C40.8938 33.1835 41.0067 32.8753 41.1303 32.5869C41.2561 32.2978 41.418 32.0371 41.5933 31.8071C41.6819 31.6933 41.7762 31.5876 41.8703 31.49C41.9723 31.3998 42.0627 31.3047 42.1681 31.2335C42.2183 31.196 42.2678 31.1594 42.3164 31.1235C42.3671 31.0911 42.4191 31.0627 42.4685 31.0341C42.5665 30.9741 42.6677 30.9331 42.7616 30.8948C42.8536 30.8518 42.9469 30.8299 43.0312 30.8078C43.1153 30.7818 43.1945 30.7708 43.2666 30.7638C43.4085 30.7387 43.5219 30.7467 43.5975 30.7498C43.6724 30.7522 43.7132 30.7537 43.7132 30.7537C43.7132 30.7537 43.6739 30.7605 43.5983 30.7738C43.5252 30.7852 43.4169 30.8045 43.2852 30.8493C43.2186 30.8678 43.1468 30.8911 43.0727 30.9291C42.9978 30.9644 42.9153 30.9945 42.8349 31.0477C42.7532 31.0956 42.6667 31.1456 42.5848 31.214C42.5438 31.246 42.5007 31.2784 42.4567 31.3116C42.4158 31.3489 42.3748 31.388 42.3334 31.4272C42.1641 31.5838 42.0085 31.7816 41.8623 31.999C41.7204 32.2206 41.5964 32.47 41.4896 32.737C41.387 33.0056 41.3082 33.2933 41.255 33.5904C41.2233 33.7393 41.208 33.8878 41.1942 34.0366C41.174 34.1818 41.1801 34.3527 41.1723 34.5099C41.1793 34.8007 41.1933 35.1209 41.2548 35.413C41.3074 35.7112 41.3886 35.9981 41.4912 36.2665C41.5969 36.5325 41.7203 36.7829 41.8647 37.0031C42.0113 37.2213 42.1679 37.4177 42.3364 37.5737C42.3781 37.613 42.4212 37.6506 42.4612 37.6886C42.5038 37.7234 42.5486 37.7534 42.59 37.7859C42.6719 37.8537 42.7591 37.904 42.841 37.9502C42.9214 38.0034 43.0039 38.0327 43.0788 38.0667C43.1538 38.1044 43.2255 38.1276 43.291 38.1445C43.4207 38.1887 43.5327 38.207 43.6075 38.218C43.6816 38.2316 43.7217 38.2377 43.7217 38.2377Z" fill="#FED56C"/>
<path d="M47.2812 33.4189C47.2812 33.4189 47.721 33.2212 48.3934 32.9669C48.7292 32.838 49.1234 32.6948 49.547 32.5473C49.971 32.3983 50.4263 32.2516 50.8816 32.1036C51.3392 31.9622 51.7961 31.8203 52.2285 31.6975C52.659 31.5734 53.0644 31.4638 53.4131 31.3758C54.1093 31.1965 54.5823 31.1055 54.5823 31.1055C54.5823 31.1055 54.1433 31.3031 53.4703 31.5579C53.1336 31.6867 52.7408 31.8303 52.3163 31.977C51.8929 32.1263 51.4374 32.2726 50.9828 32.4207C50.5243 32.5615 50.0673 32.7036 49.6358 32.8258C49.2047 32.9501 48.8003 33.0597 48.4507 33.1476C47.7542 33.3269 47.2812 33.4189 47.2812 33.4189Z" fill="#FED56C"/>
<path d="M51.9399 5.46875C51.9399 5.46875 51.9483 5.70524 51.9624 6.11934C51.9709 6.53328 51.9931 7.12483 52.0031 7.83462C52.0125 8.54425 52.0327 9.37229 52.0367 10.2594C52.0418 11.1466 52.0464 12.0927 52.0512 13.0396C52.0465 13.9859 52.0418 14.9321 52.0367 15.8195C52.0332 16.7064 52.0127 17.5343 52.0031 18.2444C51.9931 18.9537 51.9715 19.5457 51.9624 19.9596C51.9483 20.3737 51.9399 20.6102 51.9399 20.6102C51.9399 20.6102 51.9328 20.3737 51.9192 19.9596C51.91 19.5457 51.8882 18.9537 51.878 18.2444C51.8689 17.5343 51.8481 16.7064 51.8442 15.8195C51.8396 14.9319 51.8348 13.9858 51.8301 13.0396C51.8348 12.0927 51.8403 11.1466 51.8442 10.2594C51.8486 9.37229 51.8688 8.54425 51.878 7.83462C51.889 7.12498 51.9098 6.53328 51.9192 6.11934C51.9328 5.70524 51.9399 5.46875 51.9399 5.46875Z" fill="#FED56C"/>
<path d="M55.4667 8.96875C55.4667 8.96875 55.4761 9.03484 55.4883 9.15011C55.4977 9.26538 55.5169 9.42983 55.5301 9.6278C55.558 10.0229 55.5772 10.5504 55.5772 11.0771C55.5772 11.6046 55.5588 12.1313 55.5301 12.5268C55.5177 12.7244 55.4985 12.8895 55.4883 13.0046C55.4761 13.1204 55.4667 13.186 55.4667 13.186C55.4667 13.186 55.4568 13.1204 55.4451 13.0046C55.435 12.8897 55.415 12.7244 55.4032 12.5268C55.3747 12.1313 55.3561 11.6046 55.3555 11.0771C55.3561 10.5504 55.3755 10.0229 55.4032 9.6278C55.4156 9.42983 55.4349 9.26538 55.4451 9.15011C55.4566 9.03484 55.4667 8.96875 55.4667 8.96875Z" fill="#414141"/>
<path d="M50.6516 8.96875C50.6516 8.96875 50.6616 9.03484 50.6734 9.15011C50.6835 9.26538 50.7034 9.42983 50.7152 9.6278C50.7437 10.0229 50.7622 10.5504 50.7631 11.0771C50.7622 11.6046 50.7437 12.1313 50.716 12.5268C50.7036 12.7244 50.6842 12.8895 50.6734 13.0046C50.6618 13.1204 50.6516 13.186 50.6516 13.186C50.6516 13.186 50.6423 13.1204 50.6308 13.0046C50.6207 12.8897 50.6007 12.7244 50.5883 12.5268C50.5604 12.1313 50.542 11.6046 50.541 11.0771C50.542 10.5504 50.5604 10.0229 50.5883 9.6278C50.6005 9.42983 50.6215 9.26538 50.6308 9.15011C50.6425 9.03484 50.6516 8.96875 50.6516 8.96875Z" fill="#414141"/>
<path d="M47.9896 14.8867C47.9896 14.8867 48.0149 15.1503 48.0359 15.5455C48.0427 15.7431 48.0568 15.9738 48.0621 16.2211C48.0698 16.4684 48.0698 16.7315 48.0721 16.9956C48.0696 17.2587 48.0696 17.5226 48.0621 17.7696C48.0574 18.0166 48.0427 18.2474 48.0359 18.4449C48.0167 18.8405 47.9896 19.104 47.9896 19.104C47.9896 19.104 47.9625 18.8405 47.9424 18.4449C47.9348 18.2474 47.9208 18.0166 47.9153 17.7696C47.9092 17.5226 47.9077 17.2587 47.9062 16.9956C47.9077 16.7315 47.9092 16.4684 47.9161 16.2211C47.9213 15.9738 47.9346 15.7429 47.9423 15.5455C47.9625 15.1502 47.9896 14.8867 47.9896 14.8867Z" fill="#FED56C"/>
<path d="M45.2195 8.3457C45.2195 8.3457 45.2289 8.41211 45.2411 8.52707C45.2505 8.64296 45.2705 8.80726 45.2827 9.00491C45.3108 9.40037 45.3299 9.92754 45.3308 10.4546C45.3299 10.9816 45.3114 11.5092 45.2837 11.9044C45.2713 12.1019 45.2505 12.2666 45.2412 12.3821C45.229 12.4972 45.2196 12.5636 45.2196 12.5636C45.2196 12.5636 45.2101 12.4972 45.1979 12.3821C45.188 12.2668 45.168 12.1019 45.1554 11.9044C45.1277 11.5092 45.1094 10.9816 45.1094 10.4546C45.11 9.92738 45.1285 9.40037 45.1565 9.00491C45.1695 8.80726 45.1888 8.64296 45.198 8.52707C45.2101 8.41211 45.2195 8.3457 45.2195 8.3457Z" fill="#414141"/>
<path d="M47.3674 24.8223L53.9537 25.5158L47.3359 25.2644L47.3674 24.8223Z" fill="#414141"/>
<path d="M43.9605 25.3828L50.4935 26.1081L43.9258 25.8249L43.9605 25.3828Z" fill="#414141"/>
<path d="M40.1481 26.0449L47.0175 26.7889L40.1133 26.4869L40.1481 26.0449Z" fill="#414141"/>
<path d="M36.8324 26.7852L43.614 27.4924L36.8008 27.2271L36.8324 26.7852Z" fill="#414141"/>
<path d="M33.6351 33.4473L37.5439 33.932L33.6055 33.8892L33.6351 33.4473Z" fill="#414141"/>
<path d="M33.4016 35.6836L37.7565 36.1743L33.375 36.1264L33.4016 35.6836Z" fill="#414141"/>
<path d="M34.0088 37.875L38.8771 38.501L33.9727 38.3165L34.0088 37.875Z" fill="#414141"/>
<path d="M33.8021 28.1211L40.4471 28.8177L33.7695 28.5623L33.8021 28.1211Z" fill="#414141"/>
<path d="M33.6404 30.3926L38.2826 31.0704L33.5977 30.8339L33.6404 30.3926Z" fill="#414141"/>
<path d="M4.83984 23.8874L8.17517 23.1152V24.225L4.83984 23.8874Z" fill="#414141"/>
<path d="M4.89779 24.1019C6.00961 23.8449 7.12129 23.5871 8.23265 23.3294C8.13883 23.2591 8.04596 23.1877 7.95246 23.1164C7.95246 23.4865 7.95246 23.8566 7.95246 24.2262C8.02575 24.1522 8.09983 24.0785 8.17407 24.0043C7.06224 23.892 5.95057 23.7793 4.8389 23.6666C4.55495 23.638 4.55714 24.0815 4.8389 24.1103C5.95073 24.2231 7.0624 24.3351 8.17407 24.4472C8.29404 24.4596 8.39568 24.3381 8.39568 24.2261C8.39568 23.8565 8.39568 23.4864 8.39568 23.1163C8.39568 22.9677 8.25473 22.8701 8.11503 22.9028C7.00335 23.1603 5.892 23.4173 4.78017 23.6746C4.50154 23.7393 4.61963 24.1667 4.89779 24.1019Z" fill="#414141"/>
<path d="M34.6107 25.7969V43.2951L26.7812 48.6936C34.6107 40.7651 32.5435 26.6857 32.5435 26.6857L34.6107 25.7969Z" fill="#414141"/>
<path d="M34.3872 25.7967C34.3872 31.2472 34.3872 36.6978 34.3872 42.1486C34.3872 42.4452 34.3872 42.7414 34.3872 43.0378C34.3872 43.1086 34.3872 43.1791 34.3872 43.25C34.3872 43.4082 34.5864 43.0416 34.4638 43.1273C33.7159 43.6428 32.9684 44.1584 32.2208 44.674C30.3699 45.9497 28.5186 47.2263 26.6675 48.5019C26.7574 48.6184 26.847 48.7349 26.9361 48.8508C30.2631 45.4504 31.9457 40.8621 32.6305 36.2264C33.0753 33.2188 33.1505 30.1159 32.8144 27.0921C32.7961 26.9366 32.7782 26.7815 32.7555 26.6273C32.722 26.7103 32.6872 26.7945 32.654 26.8771C33.3425 26.5806 34.0318 26.2846 34.7215 25.9873C34.9833 25.8746 34.7571 25.4934 34.4977 25.6053C33.8085 25.9018 33.1189 26.198 32.4298 26.4952C32.3327 26.5369 32.3153 26.655 32.3287 26.7447C32.6398 28.8816 32.6276 31.4304 32.4663 33.6854C32.1356 38.294 30.9143 42.983 28.1505 46.754C27.6874 47.3852 27.1709 47.9772 26.6229 48.5368C26.4512 48.7129 26.6789 49.0324 26.8911 48.8858C29.1651 47.3182 31.4388 45.75 33.7123 44.1826C34.0412 43.9558 34.3706 43.729 34.7001 43.5019C34.8653 43.3883 34.8313 43.2156 34.8313 43.038C34.8313 41.9883 34.8313 40.9396 34.8313 39.8906C34.8313 35.1925 34.8313 30.4943 34.8313 25.7969C34.831 25.5104 34.3872 25.5104 34.3872 25.7967Z" fill="#414141"/>
<path d="M26.7828 48.6948L1.07422 37.8955C1.07422 37.8955 6.17181 35.5046 4.84197 23.8845L32.5451 26.687C32.5451 26.687 34.6125 40.7663 26.7828 48.6948Z" fill="#FED56C"/>
<path d="M26.8414 48.4816C22.183 46.5253 17.5247 44.5672 12.8662 42.6109C8.95535 40.9678 5.04445 39.3246 1.13277 37.6814C1.15094 37.8167 1.16817 37.9517 1.18555 38.0869C2.27216 37.5721 3.09535 36.3711 3.64789 35.3592C5.51979 31.9296 5.48423 27.6516 5.06325 23.8843C4.98917 23.9581 4.91509 24.0322 4.84132 24.1062C9.88096 24.6156 14.9198 25.126 19.9587 25.6351C24.1545 26.0607 28.3493 26.4845 32.5445 26.9089C32.4732 26.8546 32.4018 26.8005 32.3315 26.746C32.6425 28.8829 32.6303 31.4317 32.469 33.6867C32.1384 38.2953 30.9171 42.9843 28.1532 46.7553C27.6901 47.3865 27.1736 47.9785 26.6256 48.5381C26.4257 48.7433 26.7391 49.0567 26.939 48.8523C30.266 45.4518 31.9485 40.8635 32.6334 36.2278C33.0782 33.2203 33.1534 30.1174 32.8173 27.0936C32.799 26.938 32.7811 26.783 32.7584 26.6287C32.7434 26.526 32.6345 26.4751 32.5446 26.4662C27.5056 25.9559 22.4663 25.4463 17.4274 24.936C13.2321 24.5116 9.03679 24.0874 4.84148 23.6625C4.73075 23.6517 4.60733 23.7725 4.62002 23.8843C5.03474 27.5946 5.07687 31.7493 3.26481 35.1354C2.7558 36.0878 1.98023 37.2211 0.962215 37.7038C0.766443 37.7965 0.859943 38.0433 1.01499 38.1091C5.67374 40.0662 10.3322 42.0225 14.9901 43.9798C18.9014 45.6228 22.8124 47.2653 26.7238 48.9091C26.9874 49.0197 27.1007 48.5904 26.8414 48.4816Z" fill="#414141"/>
<path d="M5.02427 25.0312L23.0827 27.75L4.9375 25.6908L5.02427 25.0312Z" fill="#414141"/>
<path d="M5.03417 26.4512C5.03417 26.4512 8.10701 27.0513 11.1797 27.6518C14.2633 28.1849 17.3465 28.7177 17.3465 28.7177C17.3465 28.7177 14.2351 28.3484 11.1238 27.9788C8.0229 27.5434 4.92188 27.1069 4.92188 27.1069L5.03417 26.4512Z" fill="#414141"/>
<path d="M29.6789 44.9254L16.3887 40.6992L29.8653 44.2878L29.6789 44.9254Z" fill="#414141"/>
<path d="M28.6971 46.6851L9.22656 39.3711L28.9217 46.0601L28.6971 46.6851Z" fill="#414141"/>
<path d="M34.9742 10.457H32.6016V13.8536H34.9742V10.457Z" fill="#414141"/>
<path d="M33.1242 10.9794L33.1147 6.13164C33.11 6.10266 33.0686 6.02686 33.0401 6.00337L31.9141 5.28308V3.63672L33.7625 4.88809C34.1631 5.14354 34.4434 5.65411 34.4441 6.12866L34.4535 10.9766L33.1242 10.9794Z" fill="#414141"/>
<path d="M32.3178 4.46015C32.3178 4.00596 32.1197 3.72122 31.9128 3.63712C31.6817 3.54378 31.5078 4.00596 31.5078 4.46015C31.5078 4.91465 31.6475 5.19531 31.9128 5.28333C32.1255 5.35334 32.3178 4.91465 32.3178 4.46015Z" fill="#414141"/>
<path d="M34.5318 10.4557H33.7871L34.5301 10.3555L34.5318 10.4557Z" fill="#FED56C"/>
<path d="M35.0085 13.7023H33.498L35.0063 13.5742L35.0085 13.7023Z" fill="#FED56C"/>
<path d="M32.0279 3.80493C32.0279 3.80493 32.0473 3.81887 32.0825 3.84346C32.1123 3.87478 32.1552 3.92521 32.1856 3.99397C32.2133 4.06304 32.2449 4.14636 32.2581 4.23861C32.2761 4.33054 32.2781 4.42999 32.2781 4.52882C32.2703 4.6278 32.2612 4.72647 32.2366 4.81668C32.2164 4.90783 32.1778 4.98802 32.1455 5.05521C32.1087 5.12193 32.0628 5.16703 32.0304 5.1957C31.9937 5.22028 31.9729 5.23125 31.9729 5.23125C31.9729 5.23125 31.9881 5.21308 32.0152 5.18113C32.0401 5.14714 32.0639 5.09389 32.0888 5.02984C32.1331 4.8975 32.1583 4.71112 32.1662 4.52506C32.1726 4.33837 32.161 4.15074 32.127 4.01527C32.1076 3.94777 32.0888 3.8953 32.067 3.85928C32.0413 3.82467 32.0279 3.80493 32.0279 3.80493Z" fill="#FED56C"/>
</svg>
